<svg width="50" height="49" viewBox="0 0 50 49" fill="none" xmlns="http://www.w3.org/2000/svg">
<path d="M1.43461 0.667047C1.23991 0.71687 0.908927 0.916164 0.694759 1.10549C-0.0645638 1.76316 -0.0158892 0.796588 0.0133155 14.797C0.0425202 27.2629 0.0425202 27.3027 0.246953 27.7013C0.354037 27.9205 0.636349 28.2294 0.860252 28.3988V28.3988C1.13284 28.5935 1.45826 28.7005 1.79318 28.7056L3.25504 28.7277V28.7277C4.35844 28.7443 5.24601 29.6402 5.25233 30.7437L5.27016 33.8595C5.29937 38.9016 5.29937 38.9614 5.51354 39.37C5.73744 39.8084 6.19498 40.2469 6.60385 40.4362C6.77907 40.5259 8.46321 40.5757 12.1722 40.6056L16.0268 40.6418C16.7566 40.6486 17.2794 41.3488 17.0786 42.0505V42.0505L16.955 42.4723C16.7839 43.0561 16.2646 43.4695 15.6573 43.5053V43.5053C14.4307 43.5751 13.944 43.7644 13.4475 44.3523C12.9705 44.9004 12.8439 45.3488 12.8439 46.4947C12.8439 47.5809 13.0191 47.9994 13.574 48.2386C14.0803 48.4478 33.2191 48.4478 33.7253 48.2386C34.2802 47.9994 34.4554 47.5809 34.4554 46.4947C34.4554 45.3488 34.3289 44.9004 33.8518 44.3523C33.3554 43.7644 32.8686 43.5751 31.642 43.5053L31.0947 43.473C30.8163 43.4566 30.5788 43.2656 30.503 42.9971V42.9971C30.4349 42.748 30.2402 42.1103 30.0844 41.5821V41.5821C29.9431 41.0934 30.3099 40.6056 30.8187 40.6056H33.297H33.7326C35.4221 40.6056 36.7918 41.9752 36.7918 43.6648V43.6648C36.7918 47.1325 36.821 47.262 37.5316 47.8599C38.1352 48.3681 38.4272 48.398 43.6159 48.3581L47.7924 48.3318C48.1548 48.3295 48.5091 48.2246 48.8144 48.0293V48.0293C49.1648 47.8101 49.3693 47.5809 49.564 47.1923V47.1923C49.7431 46.8452 49.8366 46.4604 49.8366 46.0698V38.7721C49.8366 33.5805 49.7976 30.7605 49.7295 30.5113C49.6029 30.0231 49.1162 29.4651 48.6197 29.2359C48.2692 29.0665 47.9188 29.0465 45.1443 29.0465V29.0465C43.4378 29.0465 42.0524 27.6671 42.0449 25.9606L42.0292 22.3403C42 16.0227 41.9902 15.6241 41.815 15.2952C41.5619 14.807 41.2796 14.508 40.861 14.2888C40.5202 14.1094 40.2477 14.0995 36.7528 14.0995V14.0995C34.68 14.0995 32.9968 12.4244 32.9867 10.3516L32.9757 8.09075L32.9493 2.64101C32.9474 2.26856 32.8456 1.90344 32.6544 1.5838V1.5838C32.4597 1.27489 32.1969 1.00585 31.9243 0.846411V0.846411C31.6372 0.683124 31.3126 0.59706 30.9823 0.596617L16.6405 0.577364C7.18794 0.567399 1.66825 0.607258 1.43461 0.667047ZM31.3305 2.30126C31.5252 2.55038 31.5349 2.68988 31.5349 5.04155V5.04155C31.5349 6.41189 30.4241 7.52277 29.0537 7.52277H24.8179C20.1062 7.52277 18.0424 7.55266 17.8769 7.63238C17.6335 7.74199 17.4193 8.10072 17.4193 8.37973C17.4193 8.45945 17.5264 8.63881 17.6627 8.76835V8.76835C17.8118 8.9273 18.02 9.01747 18.2379 9.01747H24.7205V9.01747C28.484 9.01747 31.5349 12.0684 31.5349 15.8319V17.916C31.5349 25.808 31.5155 26.8344 31.3792 27.0337V27.0337C31.288 27.1706 31.1343 27.2529 30.9697 27.2529H16.5237C2.97273 27.2529 1.7948 27.2429 1.62931 27.0835C1.46382 26.934 1.45408 26.5155 1.45408 17.9658V15.8319C1.45408 12.0684 4.50501 9.01747 8.26851 9.01747V9.01747C14.9564 9.01747 15.0829 9.01747 15.2776 8.81818C15.5989 8.48934 15.5697 8.07082 15.2192 7.74199V7.74199C15.0626 7.60086 14.8592 7.52277 14.6483 7.52277H8.2101H3.99508C2.59172 7.52277 1.45408 6.38512 1.45408 4.98177V4.98177C1.45408 2.57031 1.46382 2.4308 1.64878 2.24147C1.84348 2.04218 1.97003 2.04218 16.4848 2.04218H30.8117C31.0158 2.04218 31.2079 2.13814 31.3305 2.30126V2.30126ZM40.4618 15.8931C40.5592 16.0924 40.5787 17.5373 40.5592 22.5695L40.5434 27.7691C40.5414 28.4556 39.999 29.0187 39.3131 29.0465V29.0465C38.1644 29.0964 38.0671 29.1163 37.6874 29.3853C36.8794 29.9533 36.8502 30.0629 36.7918 32.8331V32.8331C36.7647 34.1892 35.6577 35.2745 34.3013 35.2745H21.7514H9.99813C8.20954 35.2745 6.7596 33.8245 6.7596 32.0359V32.0359V32.0359C6.7596 30.2453 8.20744 28.7916 9.99811 28.7845L19.23 28.7476C29.9092 28.7077 31.7296 28.6778 31.8854 28.5583C31.9827 28.4785 32.2164 28.2693 32.3916 28.1099C32.9854 27.5419 32.9952 27.4422 32.9952 21.2043V19.2643C32.9952 17.2406 34.6415 15.6031 36.6652 15.6141V15.6141L40.0559 15.6417C40.2275 15.6431 40.3841 15.7401 40.4618 15.8931V15.8931ZM48.2206 30.7605C48.3568 30.9598 48.3763 31.8765 48.3763 38.7223V46.1527C48.3763 46.3561 48.283 46.5483 48.1232 46.6741V46.6741C47.8701 46.8834 47.7728 46.8834 43.2752 46.8834C39.2742 46.8834 38.6609 46.8634 38.4662 46.7239V46.7239C38.332 46.6303 38.252 46.4769 38.252 46.3133V38.7422C38.252 31.5875 38.2618 30.89 38.4175 30.7206C38.5635 30.5512 38.8458 30.5412 43.3239 30.5412H47.8111C47.9757 30.5412 48.1293 30.6235 48.2206 30.7605V30.7605ZM36.7723 37.9351V37.9351C36.756 38.5631 36.245 39.0653 35.6168 39.0705L30.8243 39.1109C25.1002 39.1607 24.8957 39.1707 24.7594 39.35C24.5647 39.6291 24.5939 40.0376 24.8081 40.3166C24.9931 40.5458 25.0418 40.5558 26.648 40.5857L26.975 40.5916C27.7592 40.6059 28.4431 41.1282 28.6631 41.8811V41.8811C28.8676 42.5786 29.0525 43.2263 29.072 43.316C29.1207 43.4854 28.8189 43.4954 23.6497 43.4954C18.4804 43.4954 18.1786 43.4854 18.2273 43.316C18.2468 43.2263 18.4318 42.5786 18.6362 41.8811V41.8811C18.8563 41.1282 19.5402 40.6059 20.3244 40.5916L20.6513 40.5857C22.2576 40.5558 22.3062 40.5458 22.4912 40.3166C22.7346 40.0177 22.7248 39.5593 22.4815 39.3102C22.2868 39.1109 22.1602 39.1109 14.752 39.1109C5.86399 39.1109 6.77907 39.2604 6.7304 37.7756V37.7756C6.70915 37.2537 7.12652 36.819 7.64886 36.819H21.7416H35.6851C36.2969 36.819 36.7883 37.3235 36.7723 37.9351V37.9351ZM32.5084 45.1395C32.8978 45.3488 32.9952 45.568 32.9952 46.2755V46.2755C32.9952 46.6112 32.723 46.8834 32.3873 46.8834H23.6497H14.912C14.5763 46.8834 14.3042 46.6112 14.3042 46.2755V46.2755C14.3042 45.578 14.4015 45.3488 14.7714 45.1495C15.1706 44.9203 32.0898 44.9203 32.5084 45.1395Z" fill="#121212"/>
<path d="M4.14119 4.24438C3.81998 4.50347 3.79078 5.0316 4.08279 5.33055C4.26773 5.51988 4.404 5.52985 8.31695 5.52985C12.2299 5.52985 12.3662 5.51988 12.5511 5.33055C12.8431 5.0316 12.8139 4.50347 12.4927 4.24438C12.2396 4.04508 12.1326 4.03512 8.31695 4.03512C4.50134 4.03512 4.39427 4.04508 4.14119 4.24438Z" fill="#121212"/>
<path d="M20.8555 4.13479C20.1547 4.43373 20.4175 5.52985 21.1864 5.52985C21.5369 5.52985 21.897 5.15119 21.897 4.78249C21.897 4.29422 21.3227 3.93549 20.8555 4.13479Z" fill="#121212"/>
<path d="M24.4575 4.13479C23.7567 4.43373 24.0195 5.52985 24.7885 5.52985C25.1389 5.52985 25.4991 5.15119 25.4991 4.78249C25.4991 4.29422 24.9248 3.93549 24.4575 4.13479Z" fill="#121212"/>
<path d="M28.0593 4.13479C27.378 4.42376 27.6213 5.52985 28.3708 5.52985C28.7407 5.52985 29.1009 5.16115 29.1009 4.78249C29.1009 4.29422 28.5266 3.93549 28.0593 4.13479Z" fill="#121212"/>
<path d="M4.36465 11.5784C3.77089 11.9571 3.79036 11.7279 3.79036 18.2149V23.7823C3.79036 24.0104 3.86563 24.2321 4.0045 24.413V24.413C4.41331 24.9511 4.53012 24.9611 8.70587 24.9611C12.9692 24.9611 13.0666 24.9511 13.4267 24.3432C13.6117 24.0244 13.6214 23.855 13.6214 18.1053V12.7091C13.6214 12.3849 13.5038 12.0717 13.2904 11.8275V11.8275V11.8275C13.0797 11.5928 12.7796 11.458 12.4641 11.4565L8.78374 11.4389C5.05574 11.409 4.58852 11.429 4.36465 11.5784ZM12.1613 18.185V20.0109C12.1613 21.9193 10.6143 23.4663 8.70587 23.4663V23.4663V23.4663C6.79748 23.4663 5.25041 21.9193 5.25041 20.0109V18.185V16.3592C5.25041 14.4508 6.79748 12.9037 8.70587 12.9037V12.9037V12.9037C10.6143 12.9037 12.1613 14.4508 12.1613 16.3592V18.185Z" fill="#121212"/>
<path d="M16.6893 11.4988C16.5822 11.5486 16.3875 11.708 16.2512 11.8575C16.0078 12.1166 16.0078 12.1365 15.9786 14.1992C15.9494 16.521 15.9884 16.7402 16.5725 17.059C16.8645 17.2284 17.322 17.2384 22.5789 17.2384C28.9358 17.2384 28.7119 17.2583 29.0429 16.5409C29.1889 16.2419 29.2084 15.9031 29.1791 14.1494L29.1564 12.5592C29.1523 12.2691 29.0346 11.9921 28.8287 11.7877V11.7877V11.7877C28.6297 11.5777 28.3535 11.4583 28.0642 11.4574L22.6957 11.439C19.5027 11.429 16.7964 11.4589 16.6893 11.4988ZM27.7384 14.3487V14.3487C27.7384 15.1466 27.0915 15.7935 26.2935 15.7935H22.5789H18.8643C18.0663 15.7935 17.4194 15.1466 17.4194 14.3487V14.3487V14.3487C17.4194 13.5507 18.0663 12.9038 18.8643 12.9038H22.5789H26.2935C27.0915 12.9038 27.7384 13.5507 27.7384 14.3487V14.3487Z" fill="#121212"/>
<path d="M16.2023 20.128C15.8907 20.437 15.881 20.8654 16.1828 21.1544V21.1544C16.3263 21.295 16.5192 21.3737 16.72 21.3737H22.5884H28.4726C28.668 21.3737 28.8541 21.2903 28.9842 21.1445V21.1445C29.2665 20.8356 29.2568 20.427 28.955 20.128V20.128C28.8059 19.9691 28.5977 19.8789 28.3798 19.8789H22.5786H16.7774C16.5595 19.8789 16.3513 19.9691 16.2023 20.128V20.128Z" fill="#121212"/>
<path d="M16.1732 23.6955C15.9104 23.9844 15.9007 24.3631 16.144 24.672C16.3192 24.8912 16.4068 24.9112 17.4872 24.9411C18.5482 24.971 18.665 24.961 18.9083 24.7617C19.2393 24.4926 19.2685 23.9645 18.9765 23.6656C18.8012 23.4862 18.6552 23.4663 17.5846 23.4663C16.4555 23.4663 16.3679 23.4762 16.1732 23.6955Z" fill="#121212"/>
<path d="M21.907 23.7255C21.6539 24.0543 21.6442 24.3732 21.8875 24.6721V24.6721C22.0042 24.8229 22.1841 24.9113 22.3748 24.9113H25.45H28.5253C28.716 24.9113 28.8959 24.8229 29.0126 24.6721V24.6721C29.2656 24.3532 29.2462 23.9447 28.9736 23.6856C28.7498 23.4664 28.7011 23.4664 25.4306 23.4664H22.4257C22.2217 23.4664 22.0296 23.5624 21.907 23.7255V23.7255Z" fill="#121212"/>
<path d="M42.7399 44.1531C42.4868 44.4819 42.4771 44.8008 42.7107 45.0798C43.139 45.6179 43.9956 45.3189 43.9956 44.6314C43.9956 43.9239 43.1584 43.605 42.7399 44.1531Z" fill="#121212"/>
</svg>
