<svg width="50" height="50" viewBox="0 0 50 50" fill="none" xmlns="http://www.w3.org/2000/svg">
<path d="M8.07379 1.12075C7.84463 1.22237 7.51131 1.46627 7.32382 1.64919C6.62592 2.37073 6.66759 1.34432 6.66759 16.273C6.66759 29.6569 6.66759 29.789 6.87591 29.9923C7.10507 30.2158 7.68839 30.2667 8.02171 30.0939C8.13629 30.0329 8.2717 29.8195 8.3342 29.6061C8.3967 29.3622 8.43836 25.8053 8.43836 19.1388V9.05762H25.0003H41.5622L41.5831 19.4233L41.6143 29.7789L41.8539 30.0126C42.1455 30.3073 42.8018 30.3276 43.1143 30.0532L43.333 29.8602V16.2831C43.333 3.27519 43.3226 2.68576 43.1351 2.29959C43.0309 2.07602 42.7809 1.75082 42.5934 1.5679C41.8435 0.876848 43.1872 0.927661 24.9795 0.927661C9.13625 0.927661 8.46961 0.937823 8.07379 1.12075ZM41.3643 2.84836C41.5414 3.06178 41.5622 3.26502 41.5622 5.25687V7.43163H25.0003H8.43836V5.21622C8.43836 3.22437 8.45919 2.97031 8.62585 2.8382C8.7196 2.74674 8.89668 2.65528 9.01126 2.62479C9.12584 2.5943 16.4068 2.58414 25.1878 2.5943L41.1664 2.60447L41.3643 2.84836Z" fill="#121212"/>
<path d="M10.2088 4.38284C10.0734 4.51495 10.0005 4.7182 10.0005 4.99259C10.0005 5.53121 10.2817 5.8056 10.8338 5.8056C11.3859 5.8056 11.6671 5.53121 11.6671 4.99259C11.6671 4.45398 11.3859 4.17958 10.8338 4.17958C10.5526 4.17958 10.3442 4.25072 10.2088 4.38284Z" fill="#121212"/>
<path d="M13.5419 4.38284C13.4065 4.51495 13.3336 4.7182 13.3336 4.99259C13.3336 5.53121 13.6149 5.8056 14.1669 5.8056C14.719 5.8056 15.0002 5.53121 15.0002 4.99259C15.0002 4.7182 14.9273 4.51495 14.7919 4.38284C14.6565 4.25072 14.4481 4.17958 14.1669 4.17958C13.8857 4.17958 13.6774 4.25072 13.5419 4.38284Z" fill="#121212"/>
<path d="M16.8756 4.38284C16.7401 4.51495 16.6672 4.7182 16.6672 4.99259C16.6672 5.53121 16.9485 5.8056 17.5005 5.8056C18.0526 5.8056 18.3338 5.53121 18.3338 4.99259C18.3338 4.7182 18.2609 4.51495 18.1255 4.38284C17.9901 4.25072 17.7818 4.17958 17.5005 4.17958C17.2193 4.17958 17.011 4.25072 16.8756 4.38284Z" fill="#121212"/>
<path d="M28.5309 4.37267C28.2184 4.61658 28.1872 5.27715 28.4788 5.59219C28.6767 5.8056 28.7392 5.8056 34.1349 5.8056C39.4473 5.8056 39.5931 5.79544 39.791 5.60235C39.9264 5.47024 39.9993 5.26698 39.9993 4.99259C39.9993 4.7182 39.9264 4.51495 39.791 4.38284C39.5931 4.18975 39.4473 4.17958 34.1766 4.17958C29.0309 4.17958 28.7601 4.18975 28.5309 4.37267Z" fill="#121212"/>
<path d="M1.40706 5.99869C1.1779 6.10031 0.844577 6.34421 0.657084 6.52714C-0.0512255 7.25883 0.000856041 6.03934 0.000856041 22.8785C0.000856041 39.7176 -0.0512255 38.4981 0.657084 39.2298C0.844577 39.4127 1.1779 39.6566 1.40706 39.7583C1.81329 39.9412 2.6466 39.9514 25 39.9514C47.3534 39.9514 48.1867 39.9412 48.5929 39.7583C48.8221 39.6566 49.1554 39.4127 49.3429 39.2298C50.0512 38.4981 49.9991 39.7176 49.9991 22.8582C49.9991 8.19377 49.9887 7.5637 49.8012 7.17753C49.6971 6.95396 49.4471 6.62876 49.2596 6.44584C48.6659 5.89706 48.2909 5.8056 46.7388 5.8056C45.4576 5.8056 45.3326 5.82593 45.1451 6.01901C44.8951 6.2934 44.8847 6.94379 45.1347 7.20802C45.3014 7.38078 45.4889 7.41127 46.5618 7.44175C47.593 7.47224 47.8221 7.51289 48.0096 7.67549L48.2284 7.86858V19.8501V31.8214H24.9479H1.66747L1.6883 19.8806L1.71955 7.94988L1.95912 7.71614C2.16745 7.50273 2.31328 7.4824 3.43824 7.44175C4.51112 7.41127 4.69861 7.38078 4.86527 7.20802C5.11526 6.94379 5.10485 6.2934 4.85486 6.01901C4.66736 5.82593 4.54237 5.8056 3.24033 5.8056C2.08412 5.8056 1.7508 5.84625 1.40706 5.99869ZM48.2284 35.6323C48.2284 37.6851 48.218 37.8274 48.02 38.0205C47.8117 38.2237 47.6763 38.2237 25.0417 38.2237C10.3963 38.2237 2.20911 38.1933 2.08412 38.1221C1.74038 37.9494 1.66747 37.4514 1.66747 35.4189V33.4474H24.9479H48.2284V35.6323Z" fill="#121212"/>
<path d="M22.7085 35.297C22.4272 35.5917 22.4272 36.2218 22.7085 36.4961C22.9064 36.6892 23.0522 36.6994 25.0522 36.6994C27.1042 36.6994 27.1875 36.6892 27.3958 36.4758C27.6875 36.1608 27.6771 35.5815 27.3646 35.297C27.1354 35.0835 27.0313 35.0734 25.0209 35.0734C23.0001 35.0734 22.9168 35.0835 22.7085 35.297Z" fill="#121212"/>
<path d="M27.0619 12.3604C26.7182 12.5433 26.8953 12.0555 23.9579 20.6936C21.635 27.5125 21.5309 27.8276 21.6767 28.1121C21.958 28.6812 22.9579 28.7625 23.2496 28.2239C23.3121 28.1121 24.5099 24.6772 25.8953 20.6123C28.0931 14.1794 28.4056 13.1734 28.3223 12.899C28.2702 12.7161 28.1765 12.523 28.1036 12.4518C27.8744 12.2486 27.364 12.1978 27.0619 12.3604Z" fill="#121212"/>
<path d="M18.0318 15.5717C17.813 15.653 13.209 19.342 12.6986 19.84C12.4694 20.0635 12.4278 20.7241 12.6361 20.968C12.6986 21.0594 13.959 22.096 15.4173 23.2749C18.3339 25.6325 18.4068 25.6732 18.9693 25.1244C19.3234 24.7789 19.3651 24.3317 19.0943 24.0167C18.9901 23.8948 17.9901 23.0614 16.8756 22.157C15.761 21.2525 14.8444 20.4802 14.8444 20.4395C14.8444 20.3989 15.7818 19.6062 16.9277 18.6713C18.136 17.6855 19.063 16.842 19.1359 16.6794C19.3234 16.2526 19.1255 15.7851 18.688 15.6022C18.5005 15.5209 18.3234 15.4599 18.313 15.4701C18.2922 15.4701 18.1672 15.5209 18.0318 15.5717Z" fill="#121212"/>
<path d="M31.2919 15.6022C30.8752 15.7851 30.6773 16.2627 30.8648 16.6794C30.9377 16.842 31.8648 17.6855 33.0731 18.6712C34.2189 19.6062 35.1563 20.3988 35.1563 20.4395C35.1563 20.4801 34.2397 21.2525 33.1251 22.1569C32.0106 23.0614 31.0106 23.8947 30.9169 24.0167C30.6356 24.3317 30.6773 24.7788 31.0315 25.1244C31.3335 25.4191 31.5835 25.48 31.9377 25.3479C32.146 25.2666 37.0313 21.3439 37.3229 21.0289C37.5729 20.7444 37.5625 20.094 37.2917 19.8297C36.875 19.4232 32.0731 15.5615 31.9898 15.5615C31.9377 15.5615 31.8335 15.5412 31.7502 15.5107C31.6773 15.4904 31.4689 15.531 31.2919 15.6022Z" fill="#121212"/>
<path d="M19.7292 41.6993C19.6146 41.8314 19.3542 42.2074 19.1563 42.5326C18.9584 42.8578 18.4376 43.5184 17.9793 43.9757L17.1668 44.8293H16.1564C15.0106 44.8293 14.5315 44.9919 13.9898 45.5509C13.4378 46.1301 13.3336 46.496 13.3336 47.9797C13.3336 49.1687 13.3545 49.3211 13.5419 49.504C13.7503 49.7073 13.8857 49.7073 24.9999 49.7073C35.9682 49.7073 36.2495 49.7073 36.4474 49.5142C36.7182 49.25 36.812 48.5488 36.7286 47.502C36.6557 46.5163 36.4786 46.0285 36.0099 45.5509C35.4683 44.9919 34.9891 44.8293 33.8433 44.8293H32.8329L32.0205 43.9757C31.5621 43.5184 31.0413 42.8578 30.8434 42.5326C30.6455 42.2074 30.3851 41.8314 30.2705 41.6993C30.0101 41.4148 29.4997 41.4046 29.1247 41.6892C28.5831 42.1058 28.8227 42.8782 29.9059 44.2907L30.3226 44.8293H24.9999H19.6771L20.0938 44.2907C21.1771 42.8782 21.4167 42.1058 20.875 41.6892C20.5 41.4046 19.9896 41.4148 19.7292 41.6993ZM34.687 46.7195C34.8329 46.8618 34.9266 47.1159 34.9683 47.502L35.0308 48.0813H25.0624H15.1044V47.5427C15.1044 46.9431 15.2919 46.5976 15.6565 46.5265C15.7814 46.5061 20.073 46.4858 25.1769 46.496C34.4475 46.5061 34.4787 46.5061 34.687 46.7195Z" fill="#121212"/>
</svg>
