<svg width="555" height="370" viewBox="0 0 555 370" fill="none" xmlns="http://www.w3.org/2000/svg">
<path d="M484.086 269.508C484.086 268.213 484.029 173.82 483.932 21.1513L484.086 21.3142L37.86 21.3631L38.0718 21.1513C38.0718 108.963 38.0718 192.97 38.0718 269.508L37.8763 269.313L484.135 269.508L37.8763 269.704H37.6808V269.508C37.6808 192.938 37.6808 108.963 37.6808 21.1513V20.9395H37.9252L484.152 20.9884H484.314V21.1513C484.135 173.852 484.135 268.213 484.086 269.508Z" fill="#E0E0E0"/>
<path d="M484.095 21.1513H37.8274V40.1717H484.095V21.1513Z" fill="#E0E0E0"/>
<path d="M52.4084 30.0953C52.4084 30.703 52.2281 31.2971 51.8903 31.8023C51.5524 32.3075 51.0723 32.7011 50.5107 32.9333C49.9491 33.1655 49.3312 33.2258 48.7353 33.1067C48.1394 32.9875 47.5922 32.6942 47.163 32.2639C46.7339 31.8336 46.442 31.2857 46.3245 30.6894C46.2069 30.0932 46.2689 29.4755 46.5026 28.9145C46.7362 28.3535 47.1311 27.8744 47.6372 27.5379C48.1433 27.2015 48.7378 27.0228 49.3456 27.0244C49.7485 27.0244 50.1474 27.1039 50.5195 27.2583C50.8917 27.4127 51.2297 27.639 51.5142 27.9243C51.7987 28.2096 52.0241 28.5482 52.1776 28.9207C52.331 29.2933 52.4094 29.6924 52.4084 30.0953Z" fill="white"/>
<path d="M61.8901 30.0953C61.8901 30.703 61.7097 31.2971 61.3719 31.8023C61.0341 32.3075 60.554 32.7011 59.9924 32.9333C59.4308 33.1655 58.8129 33.2258 58.217 33.1067C57.6211 32.9875 57.0739 32.6942 56.6447 32.2639C56.2156 31.8336 55.9237 31.2857 55.8062 30.6894C55.6886 30.0932 55.7506 29.4755 55.9842 28.9145C56.2179 28.3535 56.6128 27.8744 57.1189 27.5379C57.625 27.2015 58.2195 27.0228 58.8272 27.0244C59.2301 27.0244 59.6291 27.1039 60.0012 27.2583C60.3734 27.4127 60.7114 27.639 60.9959 27.9243C61.2804 28.2096 61.5058 28.5482 61.6593 28.9207C61.8127 29.2933 61.8911 29.6924 61.8901 30.0953Z" fill="white"/>
<path d="M71.3881 30.0953C71.3881 30.7027 71.208 31.2964 70.8705 31.8015C70.5331 32.3065 70.0535 32.7001 69.4923 32.9325C68.9312 33.165 68.3137 33.2258 67.718 33.1073C67.1223 32.9888 66.5751 32.6963 66.1456 32.2668C65.7161 31.8373 65.4237 31.2902 65.3052 30.6944C65.1867 30.0987 65.2475 29.4813 65.4799 28.9201C65.7124 28.359 66.106 27.8794 66.611 27.5419C67.116 27.2045 67.7097 27.0244 68.3171 27.0244C68.7207 27.0233 69.1205 27.102 69.4936 27.2559C69.8667 27.4099 70.2056 27.6361 70.491 27.9214C70.7764 28.2068 71.0026 28.5458 71.1565 28.9189C71.3104 29.2919 71.3891 29.6917 71.3881 30.0953Z" fill="white"/>
<path d="M522.624 59.0944H71.2822V359.984H522.624V59.0944Z" fill="#FAFAFA"/>
<path d="M522.624 59.0944H71.2822V78.3266H522.624V59.0944Z" fill="#263238"/>
<path d="M522.624 78.3266C522.624 77.9356 522.624 72.258 522.567 59.0944L522.624 59.1514L71.3474 59.3061L71.5592 59.0944V78.3266L71.3474 78.1148L522.689 78.3266L71.2822 78.5465H71.0704V58.8826H71.3066L522.624 59.0373H522.681V59.0944C522.64 72.258 522.624 77.9356 522.624 78.3266Z" fill="#263238"/>
<path d="M86.0261 68.1362C86.0261 68.75 85.844 69.3501 85.503 69.8604C85.162 70.3708 84.6773 70.7686 84.1102 71.0035C83.5431 71.2384 82.9191 71.2999 82.317 71.1801C81.715 71.0604 81.162 70.7648 80.728 70.3307C80.2939 69.8967 79.9984 69.3437 79.8786 68.7417C79.7589 68.1396 79.8203 67.5156 80.0552 66.9485C80.2901 66.3814 80.6879 65.8967 81.1983 65.5557C81.7087 65.2147 82.3087 65.0327 82.9225 65.0327C83.7456 65.0327 84.535 65.3596 85.1171 65.9417C85.6991 66.5237 86.0261 67.3131 86.0261 68.1362Z" fill="#E0E0E0"/>
<path d="M95.6218 68.1362C95.6218 68.75 95.4397 69.3501 95.0987 69.8604C94.7577 70.3708 94.273 70.7686 93.7059 71.0035C93.1388 71.2384 92.5148 71.2999 91.9127 71.1801C91.3107 71.0604 90.7577 70.7648 90.3237 70.3308C89.8896 69.8967 89.5941 69.3437 89.4743 68.7417C89.3546 68.1397 89.416 67.5156 89.6509 66.9485C89.8858 66.3814 90.2836 65.8967 90.794 65.5557C91.3044 65.2147 91.9044 65.0327 92.5182 65.0327C92.9261 65.0316 93.3301 65.1111 93.7072 65.2667C94.0842 65.4223 94.4267 65.6509 94.7151 65.9393C95.0036 66.2277 95.2321 66.5702 95.3877 66.9473C95.5433 67.3243 95.6228 67.7283 95.6218 68.1362Z" fill="#E0E0E0"/>
<path d="M105.226 68.1362C105.226 68.75 105.044 69.3501 104.703 69.8604C104.362 70.3708 103.877 70.7686 103.31 71.0035C102.743 71.2384 102.119 71.2999 101.517 71.1801C100.915 71.0604 100.362 70.7648 99.9276 70.3307C99.4936 69.8967 99.198 69.3437 99.0782 68.7417C98.9585 68.1396 99.0199 67.5156 99.2548 66.9485C99.4897 66.3814 99.8875 65.8967 100.398 65.5557C100.908 65.2147 101.508 65.0327 102.122 65.0327C102.945 65.0327 103.735 65.3596 104.317 65.9417C104.899 66.5237 105.226 67.3131 105.226 68.1362Z" fill="#E0E0E0"/>
<path d="M197.982 133.938H180.061L176.64 142.214H167.484L184.688 103.603H193.518L210.779 142.214H201.403L197.982 133.938ZM195.171 127.152L189.046 112.368L182.928 127.152H195.171Z" fill="#455A64"/>
<path d="M246.531 127.34C246.531 136.667 240.071 142.621 231.746 142.621C227.771 142.621 224.57 141.351 222.419 138.76V142.181H214.2V101.249H222.81V115.651C225.018 113.207 228.048 112.066 231.771 112.066C240.071 112.066 246.531 118.021 246.531 127.34ZM237.815 127.34C237.815 122.216 234.556 119.121 230.255 119.121C225.954 119.121 222.696 122.216 222.696 127.34C222.696 132.463 225.954 135.559 230.255 135.559C234.556 135.559 237.815 132.472 237.815 127.34Z" fill="#455A64"/>
<path d="M250.058 127.34C250.058 118.379 256.949 112.066 266.349 112.066C275.75 112.066 282.641 118.404 282.641 127.34C282.641 136.276 275.798 142.621 266.349 142.621C256.9 142.621 250.058 136.276 250.058 127.34ZM273.941 127.34C273.941 122.216 270.683 119.121 266.382 119.121C262.081 119.121 258.774 122.216 258.774 127.34C258.774 132.463 262.081 135.567 266.382 135.567C270.683 135.567 273.974 132.472 273.974 127.34H273.941Z" fill="#455A64"/>
<path d="M318.295 112.506V142.181H310.149V138.654C308.992 139.94 307.57 140.961 305.981 141.646C304.392 142.33 302.674 142.663 300.945 142.621C293.491 142.621 288.253 138.434 288.253 129.27V112.506H296.855V127.983C296.855 132.944 299.063 135.152 302.875 135.152C306.842 135.152 309.709 132.61 309.709 127.152V112.49L318.295 112.506Z" fill="#455A64"/>
<path d="M345.429 140.748C343.336 142.064 340.894 142.717 338.423 142.621C331.418 142.621 327.337 139.037 327.337 131.975V119.756H322.759V113.166H327.337V105.941H335.947V113.166H343.335V119.789H335.947V131.869C335.947 134.402 337.324 135.779 339.637 135.779C340.885 135.796 342.104 135.41 343.115 134.679L345.429 140.748Z" fill="#455A64"/>
<path d="M395.794 112.506V142.181H387.648V138.654C386.489 139.94 385.066 140.96 383.476 141.645C381.886 142.33 380.166 142.663 378.435 142.621C370.99 142.621 365.744 138.434 365.744 129.27V112.506H374.354V127.983C374.354 132.944 376.562 135.152 380.366 135.152C384.341 135.152 387.208 132.61 387.208 127.152V112.49L395.794 112.506Z" fill="#455A64"/>
<path d="M400.926 139.42L403.793 133.245C406.905 135.103 410.457 136.093 414.081 136.113C418.057 136.113 419.547 135.062 419.547 133.408C419.547 128.521 401.626 133.522 401.626 121.662C401.626 116.033 406.701 112.066 415.36 112.066C419.433 112.066 423.97 113.003 426.764 114.657L423.897 120.782C421.291 119.305 418.34 118.543 415.344 118.575C411.483 118.575 409.829 119.789 409.829 121.328C409.829 126.403 427.75 121.499 427.75 133.188C427.75 138.703 422.618 142.621 413.739 142.621C408.762 142.621 403.679 141.269 400.926 139.42Z" fill="#455A64"/>
<path d="M470.499 359.959C453.083 341.655 427.514 332.695 402.221 332.874C383.746 332.996 364.474 338.511 347.31 331.701C331.418 325.396 321.333 310.091 308.976 298.304C289.732 280.101 264.303 269.872 237.815 269.679C220.041 269.622 200.474 273.703 185.812 263.651C175.923 256.866 170.864 245.177 163.916 235.394C143.552 206.712 104.346 194.754 71.5347 207.429V359.755L470.499 359.959Z" fill="#EBEBEB"/>
<path d="M522.624 359.984C522.624 358.599 522.559 242.529 522.453 59.0944L522.624 59.2654H71.3474L71.5592 59.0537C71.5592 166.203 71.5592 268.123 71.5592 359.943L71.3636 359.747L522.705 359.943L71.3636 360.138H71.1682V359.943C71.1682 268.123 71.1682 166.203 71.1682 59.0537V58.8419H71.4207H522.697H522.868V59.0129C522.689 242.529 522.624 358.599 522.624 359.984Z" fill="#263238"/>
<path d="M127.822 124.912C127.822 125.214 125.606 125.466 122.861 125.466C120.116 125.466 117.901 125.214 117.901 124.912C117.901 124.611 120.124 124.367 122.861 124.367C125.598 124.367 127.822 124.611 127.822 124.912Z" fill="#263238"/>
<path d="M133.092 111.423C133.394 111.423 133.638 113.671 133.638 116.457C133.638 119.243 133.394 121.491 133.092 121.491C132.791 121.491 132.547 119.235 132.547 116.457C132.547 113.679 132.791 111.423 133.092 111.423Z" fill="#263238"/>
<path d="M138.705 124.595C138.705 124.285 140.921 124.041 143.658 124.041C146.395 124.041 148.618 124.285 148.618 124.595C148.618 124.904 146.403 125.14 143.658 125.14C140.912 125.14 138.705 124.896 138.705 124.595Z" fill="#263238"/>
<path d="M133.435 138.084C133.133 138.084 132.889 135.828 132.889 133.05C132.889 130.272 133.133 128.016 133.435 128.016C133.736 128.016 133.98 130.272 133.98 133.05C133.98 135.828 133.736 138.084 133.435 138.084Z" fill="#263238"/>
<path d="M141.45 132.309C141.222 132.496 140.244 131.714 139.267 130.541C138.289 129.368 137.695 128.277 137.923 128.097C138.151 127.918 139.137 128.692 140.106 129.857C141.075 131.022 141.686 132.105 141.45 132.309Z" fill="#263238"/>
<path d="M140.986 116.995C141.206 117.206 140.554 118.208 139.544 119.227C138.534 120.245 137.54 120.905 137.328 120.693C137.116 120.481 137.76 119.479 138.77 118.453C139.78 117.426 140.774 116.783 140.986 116.995Z" fill="#263238"/>
<path d="M129.614 120.905C129.427 121.133 128.49 120.677 127.521 119.87C126.551 119.064 125.94 118.241 126.128 117.997C126.315 117.752 127.26 118.225 128.229 119.031C129.199 119.837 129.793 120.66 129.614 120.905Z" fill="#263238"/>
<path d="M129.174 127.633C129.394 127.845 128.832 128.822 127.912 129.832C126.991 130.843 126.071 131.462 125.851 131.282C125.631 131.103 126.185 130.101 127.105 129.091C128.026 128.081 128.979 127.421 129.174 127.633Z" fill="#263238"/>
<path d="M407.711 98.8051C407.711 98.9761 406.449 99.1146 404.893 99.1146C403.337 99.1146 402.074 98.9761 402.074 98.8051C402.074 98.634 403.337 98.4955 404.893 98.4955C406.449 98.4955 407.711 98.634 407.711 98.8051Z" fill="#263238"/>
<path d="M410.701 91.148C410.872 91.148 411.01 92.4269 411.01 93.9991C411.01 95.5712 410.872 96.8582 410.701 96.8582C410.53 96.8582 410.391 95.5794 410.391 93.9991C410.391 92.4188 410.53 91.148 410.701 91.148Z" fill="#263238"/>
<path d="M413.886 98.6177C413.886 98.4467 415.149 98.3082 416.704 98.3082C418.26 98.3082 419.515 98.4467 419.515 98.6177C419.515 98.7888 418.26 98.9354 416.704 98.9354C415.149 98.9354 413.886 98.7969 413.886 98.6177Z" fill="#263238"/>
<path d="M410.896 106.283C410.725 106.283 410.587 105.004 410.587 103.424C410.587 101.843 410.725 100.565 410.896 100.565C411.067 100.565 411.206 101.843 411.206 103.424C411.206 105.004 411.067 106.283 410.896 106.283Z" fill="#263238"/>
<path d="M415.45 102.984C415.311 103.09 414.758 102.642 414.204 101.982C413.65 101.322 413.316 100.695 413.446 100.581C413.576 100.467 414.13 100.923 414.684 101.583C415.238 102.243 415.58 102.886 415.45 102.984Z" fill="#263238"/>
<path d="M415.181 94.3086C415.303 94.4308 414.937 95.001 414.367 95.5794C413.796 96.1577 413.226 96.5243 413.104 96.3939C412.982 96.2636 413.348 95.7097 413.918 95.1313C414.489 94.553 415.059 94.1864 415.181 94.3086Z" fill="#263238"/>
<path d="M408.73 96.5243C408.616 96.6546 408.086 96.394 407.54 95.9378C406.995 95.4816 406.636 95.0092 406.726 94.8789C406.815 94.7485 407.369 95.001 407.915 95.4572C408.461 95.9134 408.835 96.394 408.73 96.5243Z" fill="#263238"/>
<path d="M408.477 100.353C408.599 100.467 408.282 101.021 407.76 101.599C407.239 102.177 406.718 102.536 406.587 102.414C406.457 102.292 406.783 101.738 407.304 101.167C407.825 100.597 408.379 100.239 408.477 100.353Z" fill="#263238"/>
<path d="M279.782 162.88C278.36 163.195 276.886 163.195 275.465 162.88C276.885 162.554 278.361 162.554 279.782 162.88Z" fill="#263238"/>
<path d="M282.12 157.007C282.435 158.448 282.435 159.94 282.12 161.381C281.794 159.941 281.794 158.447 282.12 157.007Z" fill="#263238"/>
<path d="M284.514 162.733C285.936 162.418 287.41 162.418 288.832 162.733C287.411 163.059 285.935 163.059 284.514 162.733Z" fill="#263238"/>
<path d="M282.225 168.606C281.91 167.163 281.91 165.668 282.225 164.224C282.541 165.668 282.541 167.163 282.225 168.606Z" fill="#263238"/>
<path d="M285.712 166.089C285.614 166.171 285.191 165.829 284.767 165.324C284.343 164.819 284.075 164.338 284.18 164.248C284.286 164.159 284.71 164.509 285.134 165.014C285.557 165.519 285.818 166.008 285.712 166.089Z" fill="#263238"/>
<path d="M285.516 159.426C285.606 159.524 285.329 159.956 284.889 160.404C284.449 160.852 284.009 161.128 283.92 161.039C283.83 160.949 284.107 160.509 284.547 160.07C284.987 159.63 285.419 159.336 285.516 159.426Z" fill="#263238"/>
<path d="M280.564 161.129C280.482 161.226 280.075 161.031 279.651 160.681C279.228 160.33 278.959 159.964 279.049 159.866C279.138 159.768 279.537 159.964 279.961 160.314C280.385 160.664 280.645 161.023 280.564 161.129Z" fill="#263238"/>
<path d="M280.368 164.077C280.466 164.167 280.222 164.59 279.823 165.03C279.423 165.47 279.008 165.755 278.926 165.666C278.845 165.576 279.073 165.153 279.472 164.713C279.871 164.273 280.271 163.971 280.368 164.077Z" fill="#263238"/>
<path d="M394.466 172.011C394.466 172.182 393.204 172.321 391.648 172.321C390.092 172.321 388.829 172.223 388.829 172.011C388.829 171.8 390.084 171.694 391.64 171.694C393.196 171.694 394.466 171.84 394.466 172.011Z" fill="#E0E0E0"/>
<path d="M397.456 164.346C397.627 164.346 397.765 165.625 397.765 167.205C397.765 168.786 397.627 170.064 397.456 170.064C397.285 170.064 397.146 168.786 397.146 167.205C397.146 165.625 397.285 164.346 397.456 164.346Z" fill="#E0E0E0"/>
<path d="M400.641 171.824C400.641 171.653 401.903 171.514 403.459 171.514C405.015 171.514 406.27 171.653 406.27 171.824C406.27 171.995 405.015 172.134 403.459 172.134C401.903 172.134 400.641 171.995 400.641 171.824Z" fill="#E0E0E0"/>
<path d="M397.651 179.489C397.48 179.489 397.342 178.202 397.342 176.63C397.342 175.058 397.48 173.771 397.651 173.771C397.822 173.771 397.961 175.05 397.961 176.63C397.961 178.21 397.79 179.489 397.651 179.489Z" fill="#E0E0E0"/>
<path d="M402.205 176.198C402.066 176.312 401.512 175.864 400.959 175.204C400.405 174.545 400.071 173.909 400.201 173.803C400.331 173.697 400.885 174.137 401.439 174.797C401.993 175.457 402.335 176.092 402.205 176.198Z" fill="#E0E0E0"/>
<path d="M401.936 167.515C402.058 167.637 401.692 168.199 401.121 168.777C400.551 169.356 399.981 169.73 399.859 169.592C399.737 169.454 400.103 168.908 400.673 168.321C401.244 167.735 401.814 167.393 401.936 167.515Z" fill="#E0E0E0"/>
<path d="M395.485 169.722C395.371 169.861 394.841 169.6 394.295 169.144C393.75 168.688 393.391 168.207 393.481 168.077C393.57 167.947 394.124 168.207 394.67 168.663C395.216 169.12 395.59 169.592 395.485 169.722Z" fill="#E0E0E0"/>
<path d="M395.232 173.551C395.354 173.673 395.037 174.227 394.515 174.797C393.994 175.367 393.473 175.742 393.342 175.612C393.212 175.481 393.538 174.936 394.059 174.365C394.58 173.795 395.102 173.437 395.232 173.551Z" fill="#E0E0E0"/>
<path d="M246.018 99.302L246.384 100.182C246.702 100.94 247.167 101.628 247.751 102.207C248.335 102.786 249.028 103.243 249.789 103.554L250.75 103.945L249.83 104.312C249.056 104.626 248.354 105.094 247.765 105.686C247.176 106.278 246.712 106.982 246.4 107.757L246.14 108.393L245.749 107.578C245.049 106.111 243.799 104.978 242.27 104.426L241.456 104.116L242.547 103.595C243.923 102.917 245.002 101.758 245.578 100.336L246.018 99.302Z" fill="#E0E0E0"/>
<path d="M102.953 165.218L103.197 165.804C103.408 166.309 103.716 166.767 104.105 167.151C104.494 167.536 104.955 167.839 105.462 168.044L106.097 168.305L105.486 168.549C104.973 168.76 104.506 169.07 104.115 169.463C103.723 169.857 103.414 170.324 103.206 170.838L103.034 171.262L102.774 170.732C102.309 169.758 101.482 169.004 100.469 168.631L99.9146 168.435L100.64 168.085C101.544 167.638 102.258 166.88 102.652 165.951L102.953 165.218Z" fill="#E0E0E0"/>
<path d="M463.445 108.393L463.681 108.979C464.11 109.998 464.924 110.806 465.946 111.227L466.581 111.48L465.978 111.732C465.463 111.94 464.995 112.248 464.602 112.64C464.209 113.032 463.898 113.499 463.689 114.013L463.518 114.445L463.266 113.907C462.797 112.935 461.967 112.184 460.952 111.814L460.398 111.61L461.123 111.26C462.036 110.823 462.753 110.062 463.135 109.126L463.445 108.393Z" fill="#E0E0E0"/>
<path d="M464.528 133.123L464.895 134.003C465.211 134.763 465.675 135.453 466.259 136.034C466.844 136.614 467.537 137.073 468.3 137.384L469.261 137.766L468.34 138.141C467.567 138.455 466.864 138.921 466.274 139.512C465.683 140.102 465.217 140.805 464.903 141.579L464.65 142.222L464.259 141.408C463.56 139.94 462.31 138.808 460.781 138.255L459.967 137.954L461.058 137.424C462.426 136.76 463.504 135.619 464.088 134.215L464.528 133.123Z" fill="#263238"/>
<path d="M314.019 93.9665L314.19 94.3819C314.342 94.7406 314.565 95.0652 314.845 95.3366C315.124 95.608 315.456 95.8207 315.819 95.9622L316.267 96.1496L315.835 96.3206C315.467 96.4673 315.133 96.6874 314.853 96.9675C314.573 97.2476 314.353 97.5818 314.206 97.9498L314.084 98.2512L313.896 97.8765C313.571 97.1862 312.985 96.6531 312.267 96.3939L311.876 96.2555L312.389 96.0029C313.033 95.6917 313.54 95.1556 313.815 94.496L314.019 93.9665Z" fill="#263238"/>
<path d="M200.466 161.495L200.686 162.025C200.876 162.484 201.155 162.9 201.507 163.25C201.86 163.599 202.278 163.875 202.739 164.061L203.317 164.297L202.763 164.517C202.296 164.706 201.872 164.987 201.516 165.344C201.161 165.701 200.881 166.126 200.694 166.594L200.54 166.985L200.303 166.497C199.877 165.614 199.123 164.934 198.202 164.599L197.697 164.411L198.356 164.094C199.182 163.69 199.833 163.002 200.189 162.155L200.466 161.495Z" fill="#263238"/>
<path d="M454.134 314.302C454.038 308.687 455.675 303.17 458.839 298.45C462.002 293.73 466.55 290.019 471.906 287.786C477.262 285.553 483.187 284.898 488.929 285.905C494.672 286.912 499.976 289.536 504.169 293.443C508.362 297.351 511.256 302.367 512.485 307.857C513.714 313.347 513.223 319.065 511.074 324.287C508.925 329.509 505.215 334 500.412 337.193C495.61 340.385 489.931 342.136 484.094 342.223C476.277 342.33 468.734 339.451 463.118 334.218C457.503 328.985 454.272 321.823 454.134 314.302ZM497.744 313.627C497.699 310.943 496.827 308.333 495.239 306.125C493.652 303.918 491.419 302.213 488.825 301.227C486.23 300.24 483.39 300.015 480.662 300.582C477.935 301.148 475.444 302.48 473.503 304.408C471.563 306.337 470.26 308.776 469.76 311.417C469.26 314.058 469.585 316.782 470.694 319.245C471.803 321.708 473.647 323.799 475.991 325.254C478.336 326.71 481.076 327.463 483.866 327.42C487.606 327.358 491.168 325.871 493.77 323.285C496.372 320.699 497.801 317.226 497.744 313.627Z" fill="#FAFAFA"/>
<path d="M454.133 314.294C454.017 306.766 456.962 299.5 462.322 294.091C467.682 288.682 475.019 285.573 482.722 285.445L482.968 300.262C479.283 300.32 475.773 301.806 473.209 304.392C470.646 306.979 469.239 310.456 469.298 314.056C469.357 317.657 470.877 321.088 473.524 323.593C476.171 326.098 479.728 327.473 483.413 327.416L483.638 342.223C475.939 342.332 468.509 339.454 462.978 334.218C457.447 328.983 454.266 321.818 454.133 314.294Z" fill="#E0E0E0"/>
<path d="M480.36 282.174C499.039 281.866 513.944 296.625 514.24 315.727L496.56 316.019C496.417 306.883 489.589 301.131 480.66 301.282L480.36 282.174Z" fill="#F0F0F0"/>
<path d="M237.95 174.84C237.811 177.455 234.406 180.941 235.457 183.336C237.396 187.751 236.272 193.038 233.763 197.184C231.254 201.33 227.499 204.515 223.809 207.594C223.995 201.157 223.434 194.72 222.139 188.411C221.731 186.44 221.063 184.24 219.263 183.344C216.925 182.188 213.96 183.858 211.565 182.831C209.016 181.723 208.503 178.237 206.352 176.478C204.405 174.889 201.546 175.06 199.159 175.858C196.773 176.657 194.581 178.001 192.13 178.547C189.678 179.092 186.721 178.604 185.36 176.486C184.546 175.182 185.124 175.981 184.326 174.653C184.326 174.653 179.544 174.816 177.899 169.252C177.899 169.252 175.651 163.07 180.628 160.341C180.628 160.341 181.76 149.165 192.993 154.191C196.251 155.641 200.047 150.981 203.2 152.562C205.823 153.889 206.596 157.539 209.219 158.875C212.233 160.406 215.736 158.125 219.108 157.987C221.269 157.987 223.341 158.845 224.868 160.372C226.396 161.9 227.254 163.972 227.254 166.132C227.254 166.132 227.784 163.9 231.441 164.878C235.099 165.855 238.21 169.741 237.95 174.84Z" fill="#263238"/>
<path d="M233.184 192.826C233.255 191.562 233.02 190.299 232.5 189.144C232.028 188.191 230.26 186.024 228.321 185.886L228.606 174.376C228.628 173.234 228.222 172.125 227.469 171.266C226.715 170.407 225.669 169.86 224.533 169.733L201.978 167.354C200.134 167.159 198.27 167.34 196.498 167.884C194.726 168.428 193.082 169.326 191.666 170.522C190.25 171.719 189.09 173.189 188.257 174.845C187.424 176.501 186.935 178.309 186.819 180.159C186.273 188.835 185.947 199.449 186.973 205.916C189.042 218.95 199.013 220.579 199.013 220.579L198.768 229.67C198.386 239.355 205.635 245.187 213.113 245.187C220.591 245.187 227.499 238.728 227.279 229.14L228.012 199.815C229.275 199.699 230.45 199.118 231.311 198.186C232.551 196.678 233.215 194.778 233.184 192.826Z" fill="#FFBE9D"/>
<path d="M191.82 187.222C191.818 187.66 191.987 188.082 192.291 188.397C192.596 188.712 193.011 188.895 193.449 188.908C193.876 188.933 194.296 188.788 194.617 188.507C194.939 188.225 195.137 187.828 195.168 187.401C195.176 187.182 195.139 186.964 195.061 186.76C194.982 186.556 194.863 186.369 194.711 186.212C194.559 186.055 194.377 185.929 194.176 185.844C193.974 185.759 193.758 185.715 193.539 185.715C193.112 185.69 192.692 185.834 192.371 186.116C192.049 186.398 191.851 186.795 191.82 187.222Z" fill="#263238"/>
<path d="M189.083 185.682C189.287 185.902 190.549 184.965 192.341 184.965C194.133 184.965 195.453 185.87 195.649 185.65C195.738 185.552 195.526 185.161 194.956 184.745C194.179 184.206 193.254 183.921 192.309 183.931C191.378 183.916 190.466 184.202 189.71 184.745C189.164 185.193 188.945 185.585 189.083 185.682Z" fill="#263238"/>
<path d="M209.154 187.556C209.15 187.995 209.318 188.417 209.623 188.733C209.928 189.048 210.345 189.231 210.783 189.242C211.21 189.267 211.63 189.122 211.951 188.841C212.273 188.559 212.471 188.162 212.502 187.735C212.507 187.296 212.338 186.873 212.033 186.558C211.728 186.242 211.312 186.06 210.873 186.049C210.446 186.024 210.027 186.168 209.705 186.45C209.383 186.732 209.186 187.129 209.154 187.556Z" fill="#263238"/>
<path d="M206.735 186.016C206.939 186.236 208.201 185.299 209.993 185.308C211.785 185.316 213.105 186.204 213.3 185.984C213.39 185.886 213.186 185.495 212.608 185.079C211.831 184.54 210.906 184.255 209.961 184.265C209.03 184.254 208.12 184.539 207.362 185.079C206.816 185.527 206.629 185.918 206.735 186.016Z" fill="#263238"/>
<path d="M200.21 199.335C199.263 199.042 198.284 198.864 197.294 198.805C196.838 198.764 196.406 198.667 196.325 198.357C196.29 197.883 196.398 197.409 196.634 196.997L197.986 193.519C199.876 188.541 201.245 184.452 201.033 184.379C200.821 184.306 199.143 188.273 197.261 193.25C196.805 194.472 196.373 195.645 195.966 196.761C195.676 197.313 195.59 197.951 195.722 198.561C195.789 198.722 195.893 198.866 196.024 198.982C196.155 199.098 196.311 199.182 196.479 199.229C196.745 199.301 197.019 199.339 197.294 199.343C198.262 199.466 199.243 199.464 200.21 199.335Z" fill="#263238"/>
<path d="M198.972 220.587C205.101 220.679 211.135 219.069 216.404 215.936C216.404 215.936 211.891 225.711 198.866 224.513L198.972 220.587Z" fill="#EB996E"/>
<path d="M205.92 182.872C206.1 183.361 207.892 183.133 209.993 183.385C212.095 183.638 213.806 184.2 214.066 183.776C214.188 183.564 213.895 183.108 213.211 182.636C212.296 182.046 211.255 181.68 210.173 181.569C209.096 181.439 208.005 181.568 206.988 181.943C206.238 182.261 205.847 182.644 205.92 182.872Z" fill="#263238"/>
<path d="M188.79 181.504C189.107 181.911 190.337 181.504 191.828 181.504C193.319 181.504 194.573 181.772 194.867 181.349C194.997 181.137 194.793 180.73 194.247 180.347C193.509 179.887 192.65 179.657 191.78 179.684C190.91 179.712 190.068 179.996 189.36 180.502C188.822 180.884 188.651 181.3 188.79 181.504Z" fill="#263238"/>
<path d="M200.609 209.501C200.609 209.46 200.732 209.24 201.098 209.012C201.591 208.72 202.154 208.568 202.727 208.572C203.298 208.565 203.861 208.711 204.356 208.996C204.723 209.224 204.886 209.435 204.853 209.476C204.178 209.223 203.47 209.064 202.752 209.004C202.016 209.059 201.294 209.226 200.609 209.501Z" fill="#EB996E"/>
<path d="M227.124 196.288C227.549 196.115 227.963 195.913 228.362 195.685C228.808 195.393 229.178 194.998 229.44 194.533C229.703 194.068 229.85 193.547 229.869 193.014C229.878 192.477 229.76 191.946 229.525 191.463C229.29 190.98 228.945 190.56 228.517 190.236C228.148 189.981 227.723 189.816 227.279 189.755C227.238 189.706 227.881 189.486 228.688 189.983C229.196 190.307 229.612 190.756 229.897 191.286C230.182 191.817 230.327 192.411 230.317 193.014C230.307 193.682 230.097 194.331 229.714 194.879C229.411 195.32 229.009 195.685 228.541 195.946C228.128 196.232 227.622 196.354 227.124 196.288Z" fill="#EB996E"/>
<path d="M184.326 164.251C182.224 169.871 187.218 173.944 191.111 174.84C196.553 176.111 202.336 172.673 206.059 174.132C208.837 175.223 211.459 177.39 214.408 176.942C215.842 176.73 217.259 175.907 218.652 176.282C220.436 176.771 221.161 178.938 221.096 180.787C221.047 183.068 220.281 185.332 220.566 187.597C220.852 189.861 222.872 192.199 225.079 191.596C226.116 191.249 227.025 190.597 227.685 189.725C228.345 188.852 228.726 187.801 228.777 186.709C229.038 183.573 228.46 179.842 228.615 176.698C228.753 173.928 228.761 170.881 226.985 168.739C225.21 166.597 222.212 166.018 219.45 165.644C207.804 164.04 196.044 163.419 184.293 163.786" fill="#263238"/>
<path d="M177.475 165.448C177.405 165.26 177.366 165.062 177.361 164.862C177.331 164.28 177.449 163.7 177.703 163.175C178.106 162.333 178.805 161.669 179.667 161.31C180.211 161.103 180.8 161.038 181.377 161.123C181.988 161.18 182.599 161.343 183.243 161.375C183.91 161.412 184.575 161.266 185.165 160.952C185.809 160.593 186.408 160.158 186.949 159.657C187.535 159.151 188.13 158.598 188.814 158.101C189.527 157.581 190.344 157.222 191.209 157.05C193.078 156.769 194.988 157.094 196.659 157.978C198.394 158.937 200.012 160.093 201.481 161.424C202.908 162.752 204.532 163.851 206.295 164.682C207.131 165.032 208.04 165.172 208.942 165.09C209.798 164.96 210.624 164.685 211.386 164.275C212.816 163.418 214.334 162.718 215.915 162.19C217.337 161.784 218.837 161.737 220.281 162.051C221.472 162.321 222.568 162.91 223.45 163.754C224.109 164.392 224.623 165.164 224.957 166.018C225.165 166.557 225.278 167.127 225.291 167.705C225.302 167.854 225.302 168.003 225.291 168.153C225.291 168.25 225.291 168.299 225.291 168.299C225.281 167.54 225.132 166.789 224.851 166.084C224.504 165.265 223.987 164.53 223.336 163.925C222.473 163.132 221.412 162.586 220.265 162.345C218.87 162.062 217.428 162.123 216.062 162.524C214.506 163.063 213.012 163.768 211.606 164.625C210.793 165.051 209.91 165.327 208.999 165.44C208.032 165.537 207.056 165.395 206.157 165.025C204.354 164.182 202.691 163.066 201.228 161.717C199.783 160.407 198.193 159.267 196.488 158.321C194.899 157.472 193.082 157.149 191.299 157.4C189.596 157.685 188.366 158.883 187.226 159.893C186.659 160.403 186.032 160.843 185.36 161.204C184.715 161.537 183.992 161.689 183.267 161.644C182.591 161.595 181.98 161.424 181.393 161.351C180.847 161.264 180.287 161.314 179.764 161.497C178.946 161.825 178.273 162.435 177.866 163.216C177.602 163.719 177.462 164.278 177.459 164.845C177.443 165.245 177.54 165.44 177.475 165.448Z" fill="#455A64"/>
<path d="M183.772 174.506C183.586 174.558 183.388 174.558 183.202 174.506C182.927 174.452 182.667 174.34 182.44 174.177C182.212 174.014 182.022 173.804 181.882 173.561C181.489 172.769 181.38 171.866 181.573 171.004C181.765 169.863 182.222 168.783 182.909 167.851C183.74 166.708 184.894 165.839 186.224 165.359C187.749 164.792 189.42 164.749 190.973 165.236C192.624 165.852 194.166 166.727 195.543 167.827C196.974 168.994 198.598 169.903 200.341 170.515C202.121 170.967 203.996 170.865 205.717 170.222C207.343 169.639 208.907 168.894 210.384 167.998C211.74 167.183 213.14 166.446 214.579 165.79C215.845 165.214 217.201 164.864 218.587 164.756C219.596 164.672 220.611 164.796 221.57 165.118C222.529 165.44 223.413 165.954 224.167 166.629C224.558 167.013 224.883 167.459 225.128 167.949C225.216 168.119 225.281 168.3 225.324 168.487C225.009 167.838 224.582 167.25 224.061 166.751C223.31 166.122 222.442 165.648 221.506 165.356C220.571 165.064 219.587 164.959 218.612 165.049C217.261 165.175 215.944 165.536 214.718 166.116C213.297 166.777 211.915 167.52 210.58 168.34C209.083 169.255 207.497 170.017 205.847 170.613C204.046 171.288 202.082 171.396 200.218 170.922C198.444 170.291 196.79 169.36 195.331 168.169C193.994 167.089 192.496 166.226 190.891 165.611C189.417 165.14 187.829 165.166 186.371 165.684C185.1 166.137 183.989 166.953 183.177 168.03C182.502 168.916 182.045 169.949 181.841 171.044C181.633 171.86 181.711 172.723 182.061 173.488C182.182 173.722 182.348 173.928 182.552 174.095C182.755 174.262 182.99 174.385 183.243 174.457C183.417 174.489 183.594 174.505 183.772 174.506Z" fill="#455A64"/>
<path d="M233.657 196.215C233.657 196.215 233.95 195.824 234.382 195.074C234.974 194.004 235.306 192.81 235.351 191.588C235.388 190.762 235.283 189.935 235.042 189.144C234.743 188.229 234.303 187.366 233.738 186.586C233.168 185.772 232.492 184.876 231.897 183.898C231.222 182.896 230.851 181.719 230.83 180.51C230.946 179.317 231.319 178.164 231.922 177.129C232.442 176.209 232.754 175.186 232.834 174.132C232.857 173.242 232.647 172.361 232.225 171.577C231.804 170.793 231.186 170.132 230.431 169.66C229.379 169.037 228.145 168.796 226.937 168.975C226.496 169.054 226.061 169.16 225.633 169.293C225.725 169.22 225.826 169.159 225.935 169.114C226.248 168.978 226.576 168.877 226.912 168.812C228.165 168.561 229.466 168.769 230.578 169.399C231.398 169.885 232.075 170.58 232.54 171.412C233.005 172.245 233.242 173.186 233.225 174.14C233.151 175.251 232.834 176.333 232.296 177.308C231.724 178.292 231.368 179.386 231.254 180.518C231.274 181.649 231.622 182.75 232.256 183.687C232.826 184.631 233.494 185.495 234.064 186.367C234.641 187.186 235.086 188.09 235.384 189.047C235.625 189.887 235.716 190.764 235.652 191.637C235.582 192.879 235.208 194.085 234.561 195.148C234.384 195.438 234.179 195.711 233.95 195.962C233.746 196.141 233.665 196.223 233.657 196.215Z" fill="#455A64"/>
<path d="M199.534 186.709C199.459 186.027 199.344 185.349 199.192 184.68C198.904 183.565 198.385 182.522 197.67 181.619C196.955 180.716 196.06 179.972 195.04 179.435C194.021 178.898 192.901 178.58 191.751 178.501C190.602 178.423 189.449 178.585 188.366 178.978C186.853 179.545 185.537 180.538 184.578 181.837C183.55 183.236 182.995 184.927 182.995 186.664C182.995 188.4 183.55 190.091 184.578 191.49C185.054 192.163 185.637 192.752 186.305 193.233C186.93 193.71 187.625 194.087 188.366 194.349C189.654 194.824 191.039 194.968 192.397 194.769C193.754 194.569 195.04 194.033 196.137 193.209C197.631 192.084 198.706 190.493 199.192 188.688C199.343 188.022 199.457 187.347 199.534 186.668C199.585 187.36 199.525 188.056 199.355 188.729C198.921 190.637 197.832 192.332 196.276 193.519C195.145 194.393 193.811 194.968 192.398 195.19C190.986 195.413 189.54 195.275 188.195 194.789C187.414 194.52 186.68 194.13 186.02 193.633C185.322 193.127 184.709 192.514 184.204 191.816C183.114 190.349 182.526 188.569 182.526 186.741C182.526 184.913 183.114 183.134 184.204 181.666C185.211 180.301 186.6 179.263 188.195 178.685C189.636 178.17 191.188 178.049 192.692 178.335C194.287 178.646 195.759 179.408 196.933 180.532C198.107 181.655 198.934 183.092 199.314 184.672C199.494 185.335 199.569 186.022 199.534 186.709Z" fill="#263238"/>
<path d="M218.628 186.709C218.558 186.026 218.443 185.348 218.286 184.68C217.998 183.565 217.481 182.523 216.767 181.619C216.053 180.716 215.157 179.972 214.139 179.435C213.12 178.898 212.001 178.58 210.852 178.502C209.703 178.423 208.55 178.585 207.468 178.978C205.951 179.541 204.632 180.535 203.672 181.837C202.643 183.236 202.088 184.927 202.088 186.664C202.088 188.4 202.643 190.091 203.672 191.49C204.15 192.161 204.733 192.749 205.399 193.233C206.028 193.709 206.726 194.085 207.468 194.349C208.544 194.74 209.689 194.902 210.832 194.827C211.974 194.751 213.088 194.439 214.103 193.911C215.118 193.383 216.013 192.649 216.73 191.757C217.447 190.865 217.971 189.834 218.269 188.729C218.426 188.063 218.54 187.389 218.612 186.709C218.668 187.401 218.607 188.098 218.432 188.77C218.009 190.654 216.944 192.333 215.418 193.519C214.287 194.393 212.954 194.968 211.541 195.19C210.129 195.413 208.683 195.275 207.338 194.789C206.557 194.52 205.823 194.13 205.163 193.633C204.463 193.127 203.847 192.514 203.338 191.816C202.253 190.346 201.668 188.568 201.668 186.741C201.668 184.915 202.253 183.136 203.338 181.666C204.351 180.303 205.742 179.266 207.338 178.685C208.779 178.17 210.331 178.049 211.834 178.335C213.427 178.648 214.897 179.411 216.07 180.535C217.242 181.658 218.068 183.094 218.449 184.672C218.62 185.337 218.681 186.025 218.628 186.709Z" fill="#263238"/>
<path d="M202.336 185.308V185.389V185.242V185.405C201.887 185.505 201.428 185.549 200.968 185.536C200.153 185.536 199.477 185.438 199.477 185.324C199.477 185.21 200.145 185.112 200.968 185.112C201.428 185.094 201.888 185.138 202.336 185.242V185.405V185.259V185.34V185.308Z" fill="#263238"/>
<path d="M228.688 187.149C226.976 187.242 225.259 187.19 223.556 186.994C221.843 186.944 220.137 186.751 218.457 186.415C220.169 186.332 221.885 186.383 223.589 186.57C225.301 186.625 227.007 186.818 228.688 187.149Z" fill="#263238"/>
<path d="M207.68 198.887C207.831 199.308 207.851 199.765 207.737 200.198C207.562 201.282 206.997 202.264 206.147 202.959C205.298 203.654 204.223 204.013 203.126 203.97C202.678 203.997 202.231 203.886 201.847 203.652C201.847 203.587 202.353 203.717 203.126 203.652C204.133 203.617 205.1 203.253 205.88 202.616C206.66 201.979 207.209 201.104 207.444 200.125C207.68 199.383 207.631 198.887 207.68 198.887Z" fill="#263238"/>
<path d="M175.414 257.365C175.425 257.452 175.425 257.539 175.414 257.626V258.392C175.414 259.092 175.414 260.086 175.455 261.34C175.455 263.923 175.455 267.613 175.512 272.166C175.512 281.306 175.235 293.932 174.526 307.861C173.818 321.79 173.085 334.376 172.588 343.531C172.36 348.069 172.172 351.759 172.042 354.341C171.977 355.595 171.928 356.573 171.895 357.273C171.895 357.591 171.855 357.844 171.847 358.039C171.855 358.126 171.855 358.213 171.847 358.3C171.834 358.213 171.834 358.126 171.847 358.039C171.847 357.844 171.847 357.591 171.847 357.273C171.847 356.573 171.887 355.587 171.92 354.333C171.993 351.775 172.123 348.077 172.327 343.515C172.71 334.384 173.451 321.774 174.144 307.845C174.836 293.915 175.211 281.298 175.26 272.158C175.26 267.613 175.317 263.923 175.333 261.34C175.333 260.086 175.333 259.092 175.374 258.392V257.626C175.377 257.538 175.39 257.45 175.414 257.365Z" fill="#263238"/>
<path d="M254.111 243.338C249.728 238.28 241.167 237.538 237.371 240.284C233.575 243.029 231.466 247.688 231.083 252.356C230.7 257.023 231.897 261.707 233.673 266.032C236.532 272.973 240.76 278.593 247.073 285.745L263.365 307.103L231.962 337.764L244.996 358.3L271.689 336.795L293.765 313.4" fill="#4AA664"/>
<path d="M140.567 309.189C141.076 308.815 141.651 308.539 142.261 308.374C143.705 307.887 145.228 307.68 146.749 307.763C148.274 307.846 149.769 308.217 151.156 308.855C151.757 309.08 152.31 309.417 152.785 309.849C152.785 309.906 152.134 309.547 151.075 309.132C149.698 308.589 148.243 308.27 146.766 308.187C145.289 308.114 143.81 308.274 142.383 308.659C141.251 308.961 140.599 309.254 140.567 309.189Z" fill="#263238"/>
<path d="M258.339 248.136C247.382 233.604 235.587 234.801 229.576 234.63V228.252C225.136 228.252 219.068 232.252 215.932 235.111L212.828 239.371C212.031 237.038 210.699 234.924 208.94 233.197C207.181 231.471 205.042 230.179 202.695 229.425C201.001 228.888 199.266 228.495 197.506 228.252V233.954C182.778 234.37 174.901 238.394 165.061 249.782C164.556 250.368 163.554 251.37 162.406 252.502L133.293 286.715C127.346 293.296 121.888 302.354 123.167 311.152C124.56 321.057 130.336 327.574 141.389 335.043L172.018 354.895L171.871 358.308H244.963C244.963 358.308 294.53 321.741 295.744 308.195C296.689 297.491 279.615 274.805 258.339 248.136ZM173.248 325.774L151.816 309.783L174.966 285.827L173.248 325.774ZM243.432 327.044L242.853 315.209L245.965 284.116C252.074 291.121 263.381 305.026 263.381 307.103L243.432 327.044Z" fill="#4AA664"/>
<path d="M229.559 234.663C229.404 235.002 229.219 235.326 229.006 235.632C228.615 236.235 228.052 237.107 227.311 238.157C225.403 240.913 223.258 243.497 220.9 245.88C220.208 246.58 219.508 247.24 218.823 247.867L218.481 248.185V247.721C218.442 245.044 217.368 242.486 215.484 240.585C214.988 239.99 214.344 239.535 213.618 239.265C213.339 239.21 213.049 239.26 212.804 239.404C212.899 239.285 213.026 239.195 213.17 239.144C213.314 239.094 213.469 239.085 213.618 239.119C214.402 239.338 215.107 239.78 215.646 240.389C216.529 241.228 217.257 242.215 217.797 243.306C218.472 244.679 218.839 246.183 218.872 247.712L218.53 247.558C219.198 246.93 219.899 246.279 220.583 245.578C222.92 243.205 225.084 240.668 227.059 237.986L228.851 235.543C229.057 235.226 229.294 234.931 229.559 234.663Z" fill="#263238"/>
<path d="M197.489 233.987C197.728 234.216 197.941 234.47 198.125 234.744L199.754 236.887C201.114 238.711 202.955 241.253 204.975 244.071L206.295 245.912L205.928 245.969C206.323 244.653 206.869 243.387 207.558 242.198C208.127 241.232 208.938 240.432 209.912 239.876C210.554 239.505 211.28 239.303 212.022 239.29C212.298 239.262 212.578 239.301 212.836 239.404C212.836 239.404 212.559 239.404 212.022 239.404C211.319 239.475 210.642 239.706 210.042 240.08C209.138 240.65 208.389 241.433 207.859 242.361C207.204 243.535 206.679 244.778 206.295 246.067L206.165 246.45L205.928 246.124L204.609 244.283C202.589 241.465 200.78 238.899 199.485 237.033C198.891 236.145 198.385 235.404 197.978 234.81C197.786 234.554 197.622 234.278 197.489 233.987Z" fill="#263238"/>
<g opacity="0.1">
<path opacity="0.1" d="M212.812 239.404C214.033 240.741 214.949 242.327 215.499 244.052C216.049 245.778 216.219 247.601 215.997 249.399C215.842 250.588 215.703 252.176 216.811 252.616C217.585 252.918 218.44 252.388 219.068 251.867C223.82 248.037 227.73 243.267 230.553 237.856C230.827 237.431 230.973 236.936 230.977 236.431C230.971 236.18 230.868 235.941 230.691 235.763C230.513 235.586 230.275 235.484 230.024 235.477C229.689 235.57 229.4 235.782 229.209 236.072C225.821 239.982 222.074 244.047 218.685 247.949C218.837 245.777 218.166 243.627 216.803 241.929C215.459 240.3 213.993 238.614 212.836 239.404" fill="black"/>
</g>
<path d="M244.067 356.939C243.971 356.834 243.887 356.72 243.815 356.597C243.635 356.337 243.415 355.994 243.13 355.571L240.63 351.693C238.504 348.321 235.53 343.621 232.068 338.155L231.987 338.017L232.101 337.911L239.742 330.286L256.367 313.832C258.485 311.763 260.212 310.085 261.434 308.879L262.835 307.551C262.992 307.39 263.161 307.24 263.34 307.103C263.206 307.285 263.056 307.454 262.892 307.608C262.558 307.959 262.077 308.423 261.556 309.001L256.555 314.076L240.01 330.62C237.322 333.3 234.732 335.866 232.362 338.22V337.976C235.767 343.474 238.699 348.199 240.792 351.596C241.803 353.225 242.617 354.577 243.196 355.538C243.456 355.97 243.66 356.353 243.823 356.597C243.917 356.702 243.999 356.817 244.067 356.939Z" fill="#263238"/>
<path d="M235.082 242.923L234.96 243.078L234.585 243.517C234.235 243.892 233.771 244.479 233.184 245.244C231.573 247.443 230.503 249.991 230.064 252.681C229.545 256.692 230.175 260.769 231.881 264.436C232.808 266.625 234.013 268.687 235.465 270.57C237.005 272.533 238.634 274.496 240.304 276.606C246.877 284.89 252.522 292.604 256.677 298.143L261.564 304.717C262.126 305.466 262.566 306.069 262.892 306.509L263.226 306.981L263.332 307.144C263.332 307.144 263.275 307.103 263.193 307.006L262.827 306.558L261.442 304.774C260.245 303.25 258.534 301.035 256.432 298.257C252.229 292.767 246.535 285.077 239.978 276.809C238.349 274.732 236.72 272.736 235.139 270.806C233.671 268.89 232.456 266.792 231.523 264.566C229.806 260.83 229.198 256.68 229.771 252.608C230.401 249.143 232.072 245.952 234.561 243.46L234.968 243.053C235.025 242.963 235.074 242.915 235.082 242.923Z" fill="#263238"/>
<path d="M262.558 253.439C262.558 253.48 262.11 253.634 261.344 254.042C260.274 254.633 259.299 255.382 258.453 256.266C257.205 257.587 256.112 259.047 255.194 260.615C254.078 262.577 252.863 264.48 251.553 266.317C250.324 267.991 248.733 269.366 246.9 270.342C245.067 271.318 243.038 271.869 240.964 271.954C239.718 272.017 238.469 271.899 237.257 271.604C236.928 271.53 236.605 271.434 236.288 271.319C236.176 271.282 236.067 271.236 235.962 271.181C237.593 271.573 239.272 271.732 240.947 271.653C242.756 271.529 244.524 271.056 246.152 270.26C248.143 269.282 249.869 267.841 251.187 266.057C252.628 264.183 253.72 262.179 254.828 260.436C255.775 258.853 256.91 257.39 258.208 256.078C259.092 255.194 260.116 254.462 261.238 253.911C261.545 253.768 261.861 253.646 262.183 253.545C262.303 253.493 262.429 253.457 262.558 253.439Z" fill="#FAFAFA"/>
<path d="M243.13 325.065H242.935L242.389 324.935C242.145 324.869 241.843 324.829 241.485 324.772C241.075 324.704 240.662 324.657 240.247 324.633C237.588 324.511 234.928 324.853 232.386 325.643C230.62 326.152 228.891 326.783 227.213 327.533C225.405 328.348 223.532 329.341 221.511 330.295C219.401 331.331 217.197 332.166 214.93 332.787C213.718 333.1 212.48 333.296 211.231 333.374C209.941 333.435 208.647 333.342 207.378 333.097C204.901 332.536 202.535 331.561 200.381 330.213C198.28 328.959 196.398 327.533 194.598 326.213C191.038 323.542 187.633 321.326 184.399 320.365C182.955 319.916 181.455 319.67 179.943 319.632C178.804 319.61 177.666 319.744 176.563 320.031C175.625 320.295 174.719 320.658 173.859 321.114L174.013 321L174.502 320.707C175.143 320.36 175.82 320.087 176.522 319.892C177.638 319.576 178.792 319.417 179.952 319.42C181.485 319.433 183.01 319.66 184.481 320.096C187.788 321.033 191.25 323.265 194.826 325.92C196.634 327.24 198.516 328.641 200.593 329.879C202.707 331.201 205.028 332.156 207.46 332.706C208.693 332.949 209.952 333.039 211.207 332.975C212.428 332.905 213.639 332.716 214.824 332.412C217.067 331.803 219.249 330.985 221.34 329.969C223.361 329.024 225.242 328.03 227.042 327.24C228.738 326.495 230.486 325.875 232.272 325.383C234.847 324.609 237.54 324.308 240.222 324.495C241.213 324.549 242.192 324.74 243.13 325.065Z" fill="#FAFAFA"/>
<path d="M162.609 317.831C162.609 317.831 162.65 317.929 162.674 318.116C162.726 318.385 162.758 318.658 162.772 318.931C162.853 319.94 162.81 320.955 162.642 321.953C162.401 323.454 161.822 324.88 160.947 326.124C159.828 327.602 158.402 328.822 156.769 329.7C155.14 330.702 153.453 331.541 152.109 332.518C150.894 333.343 149.831 334.371 148.965 335.557C148.393 336.358 148.067 337.31 148.028 338.294C148.028 338.994 148.134 339.377 148.085 339.385C148.037 339.302 148.004 339.211 147.988 339.116C147.918 338.85 147.874 338.577 147.857 338.302C147.824 337.272 148.109 336.257 148.672 335.394C149.526 334.146 150.599 333.064 151.84 332.201C153.209 331.182 154.863 330.327 156.508 329.341C158.089 328.486 159.475 327.313 160.581 325.896C161.437 324.706 162.023 323.344 162.3 321.904C162.486 320.927 162.573 319.934 162.56 318.939C162.55 318.569 162.567 318.199 162.609 317.831Z" fill="#FAFAFA"/>
<path d="M285.537 284.116C283.865 284.397 282.24 284.907 280.707 285.631C279.066 286.432 277.593 287.538 276.365 288.889C275.647 289.692 275.029 290.578 274.524 291.529C273.987 292.514 273.62 293.63 273.091 294.73C272.606 295.837 271.873 296.818 270.948 297.597C270.079 298.306 269.092 298.858 268.032 299.226C266.249 299.817 264.366 300.05 262.493 299.911C261.242 299.835 259.996 299.688 258.762 299.471C258.307 299.411 257.858 299.316 257.418 299.186C257.877 299.187 258.335 299.228 258.787 299.308C259.666 299.397 260.929 299.568 262.501 299.609C264.333 299.702 266.166 299.445 267.902 298.852C268.957 298.51 269.93 297.951 270.758 297.212C271.585 296.473 272.249 295.569 272.708 294.559C273.221 293.484 273.596 292.359 274.158 291.341C274.692 290.37 275.346 289.47 276.104 288.661C277.374 287.273 278.905 286.149 280.609 285.354C281.746 284.815 282.952 284.436 284.193 284.23C284.53 284.175 284.87 284.137 285.211 284.116C285.319 284.098 285.429 284.098 285.537 284.116Z" fill="#FAFAFA"/>
<path d="M245.053 290.991L244.865 291.048L244.311 291.17C243.823 291.276 243.098 291.406 242.153 291.553C239.493 291.963 236.804 292.154 234.113 292.123C230.108 292.095 226.133 291.421 222.342 290.128C220.122 289.321 217.979 288.315 215.94 287.122C213.779 285.841 211.518 284.738 209.179 283.823C207.989 283.402 206.753 283.129 205.497 283.008C204.275 282.916 203.046 282.976 201.839 283.187C199.564 283.653 197.368 284.449 195.323 285.55C191.372 287.643 188.048 289.973 185.043 291.594C182.718 292.973 180.184 293.964 177.54 294.526C176.826 294.68 176.097 294.759 175.365 294.762H174.795C174.73 294.772 174.665 294.772 174.6 294.762H174.795L175.357 294.697C176.082 294.655 176.802 294.548 177.508 294.38C180.112 293.761 182.605 292.742 184.896 291.358C187.853 289.728 191.16 287.358 195.135 285.224C197.22 284.084 199.463 283.26 201.79 282.78C203.032 282.559 204.296 282.494 205.554 282.585C206.847 282.712 208.119 283 209.342 283.44C211.703 284.362 213.984 285.479 216.16 286.78C218.182 287.959 220.303 288.962 222.497 289.777C226.244 291.074 230.173 291.77 234.137 291.838C236.814 291.897 239.49 291.753 242.145 291.406C243.09 291.284 243.815 291.178 244.311 291.097L244.874 291.024C244.932 291.005 244.992 290.994 245.053 290.991Z" fill="#FAFAFA"/>
<path d="M165.428 295.699C165.507 295.283 165.49 294.854 165.379 294.445C165.15 293.917 164.799 293.452 164.354 293.088C163.909 292.724 163.383 292.471 162.821 292.351C162.112 292.14 161.306 292.017 160.442 291.822C159.485 291.645 158.587 291.234 157.828 290.625C157.032 289.907 156.413 289.015 156.019 288.018C155.619 286.959 155.305 285.869 155.083 284.76C154.871 283.68 154.56 282.622 154.154 281.599C153.763 280.657 153.251 279.77 152.631 278.96C151.584 277.574 150.24 276.44 148.696 275.644C147.67 275.107 146.573 274.718 145.438 274.488C144.623 274.325 144.159 274.292 144.159 274.252C144.272 274.229 144.388 274.229 144.501 274.252C144.823 274.262 145.144 274.292 145.462 274.341C146.649 274.506 147.802 274.861 148.875 275.392C150.472 276.18 151.866 277.326 152.948 278.74C153.61 279.567 154.158 280.479 154.577 281.452C154.999 282.506 155.321 283.597 155.539 284.711C155.755 285.789 156.057 286.849 156.443 287.879C156.811 288.81 157.385 289.645 158.121 290.323C158.828 290.904 159.667 291.302 160.565 291.48C161.379 291.692 162.194 291.83 162.951 292.066C163.547 292.209 164.099 292.497 164.558 292.903C165.016 293.309 165.368 293.822 165.582 294.396C165.665 294.719 165.665 295.058 165.582 295.382C165.555 295.498 165.502 295.606 165.428 295.699Z" fill="#FAFAFA"/>
<path d="M229.763 253.92C229.006 253.503 228.202 253.177 227.368 252.95C226.379 252.747 225.359 252.747 224.371 252.95C223.052 253.21 221.774 253.64 220.566 254.229C219.206 254.84 217.772 255.638 216.208 256.461C214.551 257.384 212.794 258.113 210.971 258.636C208.919 259.138 206.786 259.207 204.707 258.84C202.491 258.435 200.341 257.725 198.32 256.73C194.158 254.702 190.696 251.981 187.356 249.863C184.478 247.86 181.264 246.389 177.866 245.521C175.571 244.958 173.177 244.93 170.869 245.44C170.041 245.669 169.225 245.941 168.425 246.254C169.192 245.822 170.014 245.496 170.869 245.285C173.199 244.703 175.634 244.687 177.972 245.236C181.419 246.071 184.685 247.529 187.609 249.537C190.981 251.647 194.443 254.359 198.54 256.355C200.526 257.333 202.636 258.035 204.813 258.44C206.837 258.8 208.914 258.739 210.914 258.261C212.713 257.761 214.448 257.056 216.086 256.16C217.65 255.345 219.1 254.531 220.485 253.96C221.722 253.384 223.028 252.968 224.371 252.722C225.394 252.548 226.442 252.587 227.45 252.836C228.076 253.01 228.678 253.262 229.242 253.586C229.421 253.687 229.595 253.799 229.763 253.92Z" fill="#FAFAFA"/>
<path d="M225.161 357.338L227.425 358.471H240.459L243.09 356.32L233.608 340.631C232.443 341.145 227.328 341.943 225.674 342.521C224.248 343.022 222.746 343.276 221.234 343.271C219.549 343.308 217.865 343.169 216.209 342.855L215.85 342.741C215.629 342.646 215.391 342.596 215.15 342.595C213.74 342.472 212.624 343.947 213.415 345.112C214.205 346.276 218.058 347.832 222.978 347.694H223.214C227.531 347.694 223.572 351.311 221.006 353.461C220.553 353.827 220.201 354.303 219.985 354.843C219.768 355.384 219.693 355.971 219.768 356.548C219.783 356.756 219.842 356.958 219.942 357.141C220.042 357.324 220.18 357.483 220.347 357.607C221.438 358.3 225.161 357.338 225.161 357.338Z" fill="#FFBE9D"/>
<path d="M171.977 355.392C171.968 355.316 171.968 355.239 171.977 355.164C171.977 354.984 171.977 354.764 171.977 354.487C171.977 353.86 172.026 352.989 172.066 351.889C172.164 349.608 172.295 346.358 172.466 342.35C172.8 334.27 173.28 323.159 173.777 310.883C174.274 298.607 174.592 287.456 174.82 279.4C174.909 275.392 174.974 272.142 175.023 269.853C175.023 268.753 175.064 267.881 175.08 267.254C175.08 266.977 175.08 266.757 175.08 266.586C175.07 266.508 175.07 266.429 175.08 266.35C175.093 266.428 175.093 266.508 175.08 266.586C175.08 266.757 175.08 266.985 175.08 267.254C175.08 267.881 175.08 268.753 175.08 269.853C175.08 272.109 175.08 275.367 175.015 279.4C174.901 287.464 174.575 298.599 174.095 310.899C173.614 323.2 173.085 334.319 172.661 342.367C172.433 346.366 172.254 349.616 172.123 351.897C172.05 352.997 171.993 353.868 171.952 354.487L171.895 355.164C171.931 355.236 171.958 355.313 171.977 355.392Z" fill="#263238"/>
<path d="M207.435 356.939C207.423 356.839 207.423 356.738 207.435 356.638C207.435 356.418 207.395 356.125 207.362 355.75L207.126 352.321C207.028 350.838 206.906 349.014 206.841 346.896C206.776 344.778 206.621 342.375 206.605 339.711C206.588 337.047 206.491 334.123 206.531 330.987C206.531 329.423 206.531 327.802 206.531 326.099C206.531 324.397 206.605 322.711 206.645 320.951C206.849 313.905 207.216 306.167 207.786 298.053C208.926 281.819 210.376 267.165 211.305 256.551C211.761 251.256 212.119 246.971 212.396 243.974C212.518 242.515 212.624 241.367 212.69 240.56C212.73 240.186 212.755 239.893 212.779 239.673C212.804 239.453 212.82 239.371 212.82 239.371C212.831 239.471 212.831 239.572 212.82 239.673L212.779 240.569C212.722 241.383 212.649 242.524 212.559 243.99C212.372 246.963 212.038 251.264 211.606 256.575C210.751 267.165 209.35 281.827 208.209 298.078C207.639 306.224 207.264 313.921 207.036 320.959C207.036 322.719 206.947 324.438 206.906 326.108C206.865 327.777 206.906 329.366 206.849 330.995C206.8 334.123 206.849 337.039 206.849 339.703C206.849 342.367 206.971 344.778 207.02 346.887C207.069 348.997 207.159 350.83 207.232 352.313C207.305 353.795 207.354 354.936 207.395 355.742V356.638C207.419 356.737 207.433 356.838 207.435 356.939Z" fill="#263238"/>
<path d="M213.431 276.687C213.39 276.646 213.846 276.459 214.351 276.891C214.496 277.019 214.607 277.179 214.677 277.359C214.746 277.539 214.772 277.733 214.75 277.925C214.698 278.162 214.576 278.378 214.4 278.545C214.224 278.712 214.002 278.822 213.763 278.861C213.523 278.901 213.278 278.867 213.057 278.766C212.837 278.664 212.652 278.499 212.527 278.292C212.445 278.119 212.406 277.928 212.413 277.737C212.42 277.546 212.473 277.359 212.567 277.192C212.901 276.614 213.382 276.646 213.382 276.703C213.382 276.76 213.032 276.842 212.844 277.322C212.785 277.45 212.754 277.589 212.754 277.73C212.754 277.87 212.785 278.009 212.844 278.137C212.94 278.26 213.067 278.355 213.212 278.411C213.358 278.468 213.515 278.484 213.669 278.458C213.823 278.432 213.967 278.365 214.085 278.264C214.204 278.163 214.293 278.032 214.343 277.884C214.36 277.749 214.348 277.612 214.309 277.482C214.27 277.351 214.204 277.23 214.115 277.127C213.806 276.711 213.431 276.76 213.431 276.687Z" fill="#263238"/>
<path d="M211.142 313.262C211.101 313.221 211.565 313.025 212.07 313.465C212.213 313.593 212.323 313.752 212.391 313.931C212.459 314.11 212.483 314.302 212.461 314.492C212.419 314.733 212.301 314.954 212.123 315.123C211.946 315.292 211.719 315.399 211.476 315.428C211.237 315.476 210.988 315.448 210.766 315.347C210.544 315.246 210.359 315.078 210.238 314.866C210.158 314.691 210.122 314.499 210.13 314.307C210.139 314.114 210.192 313.926 210.286 313.758C210.62 313.18 211.101 313.221 211.101 313.27C211.101 313.319 210.751 313.416 210.563 313.889C210.502 314.016 210.469 314.155 210.469 314.296C210.469 314.437 210.502 314.577 210.563 314.703C210.648 314.842 210.773 314.952 210.921 315.02C211.069 315.087 211.234 315.108 211.394 315.081C211.555 315.054 211.703 314.979 211.821 314.867C211.938 314.755 212.02 314.61 212.054 314.451C212.073 314.317 212.062 314.18 212.023 314.051C211.984 313.921 211.916 313.802 211.826 313.701C211.525 313.262 211.142 313.319 211.142 313.262Z" fill="#263238"/>
<path d="M269.588 338.391C269.22 338.383 268.854 338.336 268.496 338.253C267.512 338.044 266.551 337.735 265.629 337.332C262.559 335.969 259.994 333.675 258.298 330.775C257.441 329.162 256.761 327.46 256.269 325.7C255.867 324.289 255.26 322.945 254.469 321.709C253.923 320.889 253.22 320.186 252.4 319.64C251.806 319.273 251.431 319.151 251.447 319.11C251.542 319.117 251.636 319.139 251.724 319.176C251.986 319.26 252.24 319.369 252.482 319.501C253.368 320.005 254.131 320.701 254.714 321.538C255.561 322.789 256.212 324.163 256.644 325.611C257.144 327.338 257.821 329.008 258.664 330.596C260.322 333.431 262.794 335.702 265.759 337.113C267 337.638 268.28 338.065 269.588 338.391Z" fill="#FAFAFA"/>
<path d="M460.178 271.976C463.398 267.225 466.326 262.282 468.944 257.175C472.095 251.163 471.561 250.858 470.806 250.591C468.776 249.866 464.862 260.944 464.343 258.045C463.825 255.145 470.676 245.074 468.524 244.434C465.717 243.564 461.833 255.245 461.437 256.206C461.04 257.167 459.644 256.58 460.056 255.733C460.643 254.52 466.487 241.557 463.733 240.68C462.207 240.199 461.658 243.053 461.658 243.053C461.658 243.053 457.08 255.603 455.791 255.145C454.501 254.688 456.935 247.218 457.935 244.762C458.934 242.305 458.186 240.848 456.76 241.275C455.783 241.565 452.541 249.011 451.61 251.46C450.679 253.909 448.238 260.692 446.758 256.305C446.758 256.236 446.704 256.175 446.674 256.107C445.338 251.743 442.859 248.828 441.57 248.477C440.28 248.126 439.342 249.545 439.876 250.766C439.944 250.979 440.059 251.174 440.211 251.338C440.28 251.415 440.349 251.529 440.417 251.613C441.183 252.975 441.807 254.412 442.279 255.901C442.731 257.227 442.955 258.62 442.943 260.021C442.943 261.646 443.706 266.376 443.645 267.543" fill="#FFAD9D"/>
<path d="M442.882 265.811L424.426 302.433C424.426 302.433 413.989 272.243 408.359 260.234C406.215 255.656 401.912 252.483 397.784 250.377V250.293L396.922 249.95C393.96 248.534 390.848 247.456 387.645 246.738C368.174 241.161 349.833 243.106 328.6 250.552C328.6 250.552 317.576 253.513 312.228 267.894C307.421 280.864 302.027 300.701 301.104 304.21C294.489 326.473 303.934 338.871 317.08 337.345C322.497 336.49 327.105 332.004 329.142 330.265L336.092 323.734L336.245 328.792L328.44 360.035L408.351 359.867L393.931 322.872L397.136 305.912L402.621 318.943C404.344 323.04 407.226 326.546 410.913 329.029C414.599 331.513 418.93 332.866 423.375 332.924C427.82 332.981 432.185 331.74 435.934 329.353C439.684 326.966 442.655 323.536 444.484 319.484L463.168 272.441L442.882 265.811Z" fill="#4AA664"/>
<path d="M346.652 311.466C346.44 311.828 346.201 312.172 345.934 312.496C345.454 313.137 344.729 314.06 343.806 315.166C341.967 317.386 339.32 320.369 336.245 323.52C333.17 326.671 330.241 329.38 328.043 331.249C326.952 332.195 326.044 332.927 325.404 333.416C325.088 333.703 324.746 333.958 324.381 334.179C324.666 333.872 324.974 333.589 325.304 333.332C325.915 332.805 326.792 332.035 327.86 331.043C329.997 329.113 332.888 326.381 335.955 323.238C339.022 320.095 341.708 317.135 343.585 314.983C344.538 313.9 345.286 313.007 345.805 312.397C346.06 312.062 346.343 311.751 346.652 311.466Z" fill="#263238"/>
<path d="M394.191 321.682C394.185 321.538 394.198 321.395 394.229 321.254C394.29 320.934 394.351 320.537 394.435 320.049L395.266 315.609C395.968 311.863 396.93 306.69 397.693 300.93C397.886 299.49 398.059 298.089 398.211 296.726C398.4 295.43 398.474 294.12 398.433 292.812C398.291 290.593 397.962 288.391 397.448 286.228C397.036 284.366 396.685 282.871 396.449 281.825C396.342 281.299 396.281 280.887 396.251 280.612C396.232 280.468 396.232 280.322 396.251 280.177C396.299 280.313 396.33 280.454 396.342 280.597C396.396 280.872 396.487 281.276 396.617 281.795C396.869 282.825 397.288 284.305 397.738 286.167C398.297 288.339 398.657 290.559 398.814 292.797C398.86 294.122 398.794 295.449 398.616 296.764C398.471 298.13 398.295 299.541 398.105 300.983C397.342 306.758 396.327 311.931 395.556 315.662C395.16 317.485 394.839 318.981 394.603 320.08C394.488 320.56 394.397 320.957 394.328 321.277C394.296 321.416 394.25 321.552 394.191 321.682Z" fill="#263238"/>
<path d="M422.801 311.39C423.092 308.382 423.646 305.405 424.457 302.494C424.373 304.015 424.156 305.527 423.808 307.01C423.597 308.496 423.26 309.961 422.801 311.39Z" fill="#263238"/>
<path d="M425.616 312.473C425.233 310.778 424.978 309.056 424.853 307.323C424.586 305.604 424.451 303.867 424.449 302.127C424.832 303.822 425.087 305.544 425.212 307.277C425.479 308.996 425.614 310.733 425.616 312.473Z" fill="#263238"/>
<path d="M366.671 359.867C366.565 359.867 366.473 347.599 366.473 332.477C366.473 317.356 366.565 305.08 366.671 305.08C366.778 305.08 366.87 317.341 366.87 332.477C366.87 347.614 366.778 359.867 366.671 359.867Z" fill="#263238"/>
<g opacity="0.2">
<path opacity="0.2" d="M396.655 282.39C400.401 289.569 403.659 296.711 403.956 304.805C404.185 311.1 401.667 316.349 404.269 322.086C404.139 322.185 401.919 317.241 400.935 314.922C398.913 310.146 397.12 305.881 397.12 305.881C397.12 305.881 398.509 295.101 398.646 293.262C398.784 291.423 396.655 282.39 396.655 282.39Z" fill="black"/>
</g>
<g opacity="0.2">
<path opacity="0.2" d="M303.934 318.866C303.934 322.468 301.699 310.581 303.789 307.659C305.262 305.606 307.78 304.607 310.221 304.004C312.662 303.402 315.218 302.997 317.385 301.715C320.185 300.06 321.963 297.138 323.923 294.574C325.884 292.011 328.501 281.032 331.736 280.795V296.817C323.989 301.832 315.931 306.35 307.612 310.344C306.427 311.421 305.486 312.738 304.852 314.208C304.218 315.678 303.905 317.266 303.934 318.866Z" fill="black"/>
</g>
<g opacity="0.2">
<path opacity="0.2" d="M336.07 323.742C341.296 320.804 345.11 316.875 351.016 315.86C356.7 314.853 362.551 315.86 368.304 315.464C367.994 312.559 367.676 309.65 367.35 306.736L350.894 306.552L336.07 323.742Z" fill="black"/>
</g>
<path d="M331.736 280.612C331.843 280.612 331.934 284.175 331.934 288.57C331.934 292.964 331.843 296.535 331.736 296.535C331.535 293.885 331.469 291.227 331.538 288.57C331.469 285.916 331.535 283.26 331.736 280.612Z" fill="#263238"/>
<path d="M303.919 318.782C303.796 318.32 303.764 317.838 303.828 317.363C303.904 316.214 304.178 315.086 304.636 314.029C305.088 312.972 305.721 312.001 306.505 311.161C306.806 310.79 307.174 310.48 307.589 310.245C306.561 311.443 305.692 312.769 305.002 314.189C304.433 315.664 304.069 317.209 303.919 318.782Z" fill="#263238"/>
<path d="M307.207 310.489C307.619 310.38 308.02 310.235 308.405 310.054C309.168 309.749 310.267 309.291 311.602 308.658C314.272 307.438 317.912 305.606 321.772 303.318C325.633 301.029 328.997 298.778 331.355 297.054C332.537 296.184 333.483 295.467 334.116 294.956C334.46 294.706 334.781 294.428 335.078 294.124C334.703 294.328 334.346 294.563 334.01 294.826L331.179 296.81C328.776 298.473 325.404 300.693 321.551 302.959C317.698 305.225 314.097 307.071 311.465 308.361L308.337 309.887C307.943 310.054 307.565 310.255 307.207 310.489Z" fill="#263238"/>
<path d="M407.458 212.268C406.146 210.551 404.063 209.216 403.644 207.118C403.117 204.303 405.932 201.663 405.421 198.84C405.086 196.91 403.308 195.552 401.492 194.804C399.676 194.056 397.677 193.698 396.014 192.698C394.017 191.418 392.485 189.529 391.642 187.312C391.393 186.706 391.177 186.087 390.994 185.458C390.824 184.11 390.514 182.783 390.071 181.498C390.002 181.163 389.941 180.827 389.88 180.491L389.964 181.254C389.711 180.619 389.377 180.019 388.972 179.469C387.576 177.607 384.784 176.57 382.869 177.874L383.784 177.264C382.627 174.464 380.766 172.01 378.384 170.139C376.001 168.268 373.175 167.043 370.181 166.583C369.039 166.423 367.883 166.384 366.732 166.468C362.62 166.255 356.677 167.452 354.167 169.047C350.962 171.076 347.682 173.861 346.072 177.302C345.21 179.156 344.622 181.3 343.02 182.536C340.838 184.184 337.779 183.543 335.055 183.848C330.569 184.359 326.662 187.8 325.137 192.05C324.426 194.201 324.171 196.476 324.386 198.731C324.601 200.986 325.283 203.172 326.388 205.15C326.861 206.027 327.418 207.042 327.044 207.965C326.657 208.65 326.053 209.187 325.327 209.491C323.498 210.434 322.037 211.962 321.177 213.832C320.414 215.732 320.704 218.135 322.245 219.478C322.891 219.993 323.663 220.326 324.482 220.443C325.3 220.559 326.134 220.455 326.899 220.141C326.444 221.291 326.204 222.514 326.189 223.75C326.157 225.101 326.487 226.436 327.146 227.615C327.805 228.795 328.768 229.776 329.935 230.456C332.324 231.7 335.665 231.044 337.069 228.747C337.06 230.441 337.509 232.105 338.369 233.563C339.229 235.022 340.468 236.221 341.954 237.032C343.44 237.844 345.118 238.239 346.81 238.175C348.502 238.11 350.145 237.589 351.565 236.667C352.694 235.904 353.854 234.897 355.189 235.141C356.524 235.385 357.279 236.667 358.195 237.598C360.636 240.138 364.802 240.428 368.014 238.986C371.226 237.544 373.591 234.66 375.293 231.578C375.886 232.466 376.717 233.168 377.691 233.604C378.665 234.041 379.743 234.194 380.8 234.046C381.857 233.897 382.851 233.454 383.668 232.767C384.484 232.079 385.091 231.175 385.417 230.159C386.606 231.697 388.239 232.833 390.095 233.413C391.951 233.993 393.94 233.989 395.794 233.401C397.647 232.814 399.276 231.671 400.459 230.128C401.642 228.584 402.322 226.715 402.408 224.772C403.749 224.574 405.016 224.029 406.083 223.191C407.15 222.354 407.98 221.252 408.491 219.995C409.001 218.739 409.176 217.371 408.996 216.026C408.816 214.682 408.289 213.407 407.466 212.329L407.458 212.268ZM330.729 214.625C330.729 214.625 330.729 214.625 330.729 214.58L330.805 214.541L330.729 214.625Z" fill="#263238"/>
<path d="M379.13 233.768C379.13 233.768 388.903 232.15 390.925 219.401C391.932 213.061 391.612 202.67 391.078 194.178C390.964 192.366 390.485 190.595 389.67 188.972C388.854 187.35 387.718 185.909 386.332 184.736C384.945 183.564 383.335 182.684 381.599 182.15C379.863 181.616 378.037 181.438 376.231 181.628L354.106 183.97C352.984 184.089 351.947 184.626 351.204 185.474C350.46 186.323 350.063 187.42 350.093 188.548L352.419 243.922C350.81 244.266 347.155 245.059 345.362 245.578C345.362 245.578 362.467 283.809 366.656 283.367C370.845 282.924 387.584 246.745 387.584 246.745C384.668 245.867 381.709 245.141 378.718 244.571C378.671 240.965 378.808 237.359 379.13 233.768Z" fill="#FFAD9D"/>
<path d="M386.134 201.121C386.138 201.547 385.976 201.957 385.683 202.264C385.389 202.572 384.987 202.753 384.562 202.769C384.353 202.791 384.142 202.77 383.942 202.707C383.741 202.643 383.556 202.539 383.398 202.401C383.239 202.263 383.111 202.093 383.022 201.903C382.932 201.713 382.882 201.507 382.876 201.297C382.872 200.871 383.034 200.461 383.327 200.154C383.621 199.846 384.023 199.665 384.448 199.649C384.656 199.632 384.865 199.657 385.063 199.723C385.261 199.788 385.444 199.893 385.601 200.03C385.758 200.167 385.886 200.334 385.978 200.522C386.069 200.709 386.122 200.913 386.134 201.121Z" fill="#263238"/>
<path d="M388.827 199.611C388.621 199.824 387.385 198.909 385.623 198.916C383.86 198.924 382.571 199.801 382.388 199.588C382.289 199.489 382.495 199.107 383.059 198.695C383.827 198.176 384.734 197.902 385.661 197.909C386.576 197.908 387.468 198.196 388.209 198.733C388.713 199.13 388.926 199.519 388.827 199.611Z" fill="#263238"/>
<path d="M369.158 201.449C369.163 201.876 369 202.287 368.705 202.595C368.409 202.903 368.006 203.083 367.579 203.097C367.37 203.119 367.159 203.098 366.958 203.035C366.758 202.971 366.573 202.867 366.415 202.729C366.256 202.591 366.128 202.421 366.039 202.231C365.949 202.041 365.899 201.835 365.893 201.625C365.889 201.198 366.052 200.787 366.347 200.479C366.642 200.171 367.046 199.991 367.472 199.977C367.68 199.96 367.889 199.985 368.087 200.051C368.286 200.116 368.469 200.221 368.626 200.358C368.783 200.495 368.911 200.662 369.002 200.85C369.094 201.037 369.147 201.241 369.158 201.449Z" fill="#263238"/>
<path d="M371.531 199.939C371.333 200.152 370.089 199.237 368.335 199.244C366.58 199.252 365.283 200.129 365.092 199.916C365 199.817 365.206 199.435 365.771 199.023C366.534 198.497 367.439 198.218 368.365 198.222C369.28 198.222 370.172 198.51 370.913 199.046C371.447 199.435 371.63 199.847 371.531 199.939Z" fill="#263238"/>
<path d="M377.917 212.985C378.845 212.695 379.807 212.523 380.778 212.474C381.221 212.428 381.648 212.337 381.724 212.031C381.763 211.566 381.66 211.101 381.427 210.696C380.999 209.613 380.564 208.468 380.099 207.278C378.253 202.411 376.918 198.405 377.116 198.329C377.314 198.253 378.962 202.144 380.809 207.019L382.083 210.46C382.367 211.001 382.448 211.626 382.312 212.222C382.245 212.384 382.141 212.527 382.008 212.641C381.876 212.755 381.718 212.836 381.549 212.878C381.299 212.943 381.043 212.979 380.786 212.985C379.833 213.103 378.87 213.103 377.917 212.985Z" fill="#263238"/>
<path d="M379.13 233.768C373.127 233.852 367.218 232.267 362.063 229.19C362.063 229.19 366.206 237.941 378.962 236.751L379.13 233.768Z" fill="#ED9482"/>
<path d="M372.966 215.739C373.353 215.467 373.792 215.278 374.255 215.182C374.489 215.139 374.73 215.171 374.945 215.272C375.159 215.373 375.337 215.539 375.453 215.747C375.501 215.899 375.562 216.047 375.636 216.189C375.895 216.54 376.437 216.411 376.849 216.533C377.005 216.598 377.146 216.694 377.264 216.815C377.382 216.935 377.476 217.078 377.539 217.235C377.602 217.391 377.634 217.559 377.632 217.728C377.63 217.897 377.595 218.064 377.528 218.219C377.375 218.529 377.16 218.804 376.898 219.03C376.636 219.255 376.331 219.426 376.002 219.531C375.138 219.887 374.198 220.015 373.271 219.905C372.946 219.893 372.628 219.811 372.337 219.667C372.047 219.522 371.79 219.317 371.585 219.066C371.392 218.729 371.302 218.343 371.325 217.955C371.348 217.568 371.483 217.195 371.714 216.884C372.188 216.263 372.783 215.744 373.461 215.358" fill="#ED9482"/>
<path d="M372.744 214.206C373.027 214.206 373.034 216.098 374.667 217.448C376.3 218.799 378.329 218.593 378.344 218.86C378.344 218.982 377.894 219.234 377.032 219.256C375.921 219.267 374.842 218.889 373.98 218.188C373.138 217.513 372.591 216.536 372.454 215.465C372.401 214.694 372.615 214.19 372.744 214.206Z" fill="#263238"/>
<path d="M372.325 196.864C372.149 197.337 370.394 197.116 368.335 197.36C366.275 197.604 364.596 198.176 364.329 197.741C364.207 197.543 364.497 197.093 365.168 196.627C366.068 196.06 367.085 195.704 368.143 195.588C369.2 195.472 370.27 195.598 371.272 195.956C372.02 196.261 372.401 196.635 372.325 196.864Z" fill="#263238"/>
<path d="M388.179 195.62C387.866 196.025 386.653 195.62 385.196 195.62C383.738 195.62 382.51 195.887 382.228 195.468C382.098 195.269 382.296 194.865 382.83 194.491C383.555 194.038 384.398 193.809 385.252 193.835C386.106 193.861 386.934 194.14 387.629 194.636C388.148 195.033 388.316 195.445 388.179 195.62Z" fill="#263238"/>
<path d="M383.624 179.766C383.148 182.025 382.224 184.165 380.908 186.061C379.592 187.957 377.909 189.57 375.959 190.805C374.009 192.04 371.832 192.872 369.555 193.252C367.279 193.633 364.949 193.553 362.704 193.019C362.335 195.819 361.25 198.477 359.554 200.735C357.858 202.994 355.608 204.777 353.022 205.912C356.55 212.308 357.988 219.647 357.135 226.901C356.761 229.953 355.868 233.211 353.549 235.293C350.009 238.467 344.042 237.697 340.64 234.386C337.374 231.204 336.222 226.23 337.145 221.766C338.069 217.303 340.869 213.374 344.386 210.505C342.904 210.252 341.523 209.59 340.396 208.594C339.27 207.598 338.445 206.308 338.012 204.868C337.579 203.428 337.556 201.897 337.946 200.445C338.337 198.993 339.124 197.679 340.22 196.65C341.22 195.704 342.509 195.002 343.272 193.85C344.035 192.698 344.157 191.417 344.592 190.188C345.729 186.976 348.597 184.756 351.329 182.711C353.617 180.987 356.181 179.187 359.065 179.194C360.591 179.194 362.117 179.728 363.642 179.522C365.741 179.24 367.381 177.645 369.113 176.47C371.522 174.677 374.519 173.86 377.505 174.182C380.458 174.647 383.212 176.852 383.769 179.782" fill="#263238"/>
<path d="M382.487 181.025C382.037 183.49 383.25 186.015 385.096 187.739C386.943 189.463 389.224 190.532 391.505 191.554C390.71 189.13 389.599 186.821 388.202 184.687C387.497 183.616 386.586 182.694 385.523 181.977C384.459 181.259 383.264 180.759 382.006 180.506" fill="#263238"/>
<path d="M326.426 210.414C326.339 210.156 326.315 209.881 326.357 209.613C326.471 208.834 326.881 208.128 327.502 207.644C328.506 206.913 329.744 206.576 330.981 206.698C332.407 206.698 333.987 207.171 335.734 207.065C336.679 206.985 337.592 206.683 338.398 206.183C339.205 205.683 339.881 205 340.373 204.188C340.918 203.281 341.217 202.248 341.242 201.19C341.319 200.099 341.242 198.954 341.281 197.764C341.292 196.516 341.68 195.301 342.394 194.278C343.189 193.256 344.243 192.465 345.446 191.989C347.849 190.898 350.588 190.882 353.213 190.394C354.515 190.182 355.77 189.743 356.921 189.097C357.999 188.411 358.934 187.522 359.675 186.48C361.163 184.436 362.162 182.154 363.528 180.209C365.169 177.766 367.584 175.945 370.384 175.039C373.185 174.132 376.208 174.193 378.97 175.212C380.115 175.625 381.196 176.198 382.182 176.913C383.036 177.501 383.795 178.216 384.433 179.034C384.377 178.994 384.326 178.948 384.28 178.897L383.86 178.477C383.311 177.954 382.722 177.474 382.098 177.043C379.784 175.447 377.026 174.622 374.217 174.685C372.154 174.755 370.137 175.311 368.33 176.308C366.523 177.305 364.977 178.715 363.818 180.422C362.483 182.33 361.491 184.611 360.003 186.717C359.234 187.801 358.259 188.724 357.134 189.433C355.953 190.106 354.661 190.563 353.32 190.783C350.634 191.279 347.979 191.294 345.629 192.309C344.489 192.763 343.489 193.511 342.73 194.476C342.054 195.437 341.687 196.581 341.677 197.757C341.609 198.909 341.677 200.045 341.624 201.182C341.586 202.296 341.263 203.38 340.685 204.333C340.164 205.183 339.448 205.896 338.596 206.413C337.744 206.931 336.781 207.238 335.787 207.309C333.964 207.4 332.392 206.927 330.996 206.889C329.806 206.749 328.606 207.051 327.624 207.736C327.02 208.191 326.607 208.855 326.464 209.598C326.417 209.867 326.404 210.141 326.426 210.414Z" fill="#FAFAFA"/>
<path d="M345.377 269.306L346.186 289.63L348.231 309.086L369.845 308.162L368.289 269.748L345.377 269.306Z" fill="#263238"/>
<path d="M342.204 269.237L343.012 289.63L345.057 309.086L366.671 308.162L365.115 269.687L342.204 269.237Z" fill="#455A64"/>
<path d="M340.174 311.466C345.91 311.205 351.625 310.593 357.287 309.635C363.986 308.559 363.917 307.956 363.681 307.186C363.04 305.126 351.824 308.62 353.839 306.469C355.853 304.317 368.006 303.798 367.243 301.677C366.259 298.908 354.579 302.784 353.572 303.035C352.564 303.287 352.198 301.83 353.121 301.647C354.449 301.387 368.327 298.32 367.381 295.589C366.862 294.063 364.245 295.345 364.245 295.345C364.245 295.345 351.443 299.16 351.039 297.885C350.634 296.611 358.081 294.071 360.644 293.384C363.207 292.697 363.932 291.24 362.734 290.332C361.918 289.73 354.014 291.584 351.496 292.308C348.979 293.033 342.082 295.124 344.706 291.309C344.752 291.248 344.782 291.187 344.821 291.126C347.514 287.448 348.361 283.718 347.872 282.466C347.384 281.215 345.683 281.33 345.034 282.466C344.907 282.65 344.818 282.858 344.775 283.077C344.775 283.176 344.706 283.306 344.676 283.412C344.052 284.837 343.285 286.195 342.387 287.464C341.597 288.623 340.614 289.637 339.48 290.462C338.175 291.416 334.902 294.91 333.872 295.528" fill="#FFAD9D"/>
<path d="M335.223 294.406L346.652 311.466L327.815 330.677L328.455 299.518L335.223 294.406Z" fill="#4AA664"/>
<path d="M273.118 221.489L272.823 222.277C272.733 222.521 272.695 222.781 272.711 223.041C272.728 223.3 272.799 223.554 272.919 223.784L288.963 254.466C289.079 254.689 289.24 254.886 289.435 255.046C289.63 255.206 289.855 255.324 290.097 255.395L291.004 255.639C291.209 255.696 291.422 255.717 291.634 255.701L310.348 254.228C310.795 254.191 311.214 253.995 311.526 253.674C311.839 253.353 312.025 252.93 312.05 252.483C312.067 252.144 311.993 251.807 311.834 251.508L294.821 219.812C294.65 219.496 294.391 219.235 294.075 219.063C293.759 218.891 293.399 218.815 293.04 218.843L274.734 220.288C274.377 220.312 274.035 220.437 273.748 220.65C273.462 220.864 273.243 221.155 273.118 221.489Z" fill="#E0E0E0"/>
<path d="M274.292 221.053L291.316 252.851L310.603 251.332L293.709 219.529L274.292 221.053Z" fill="#FAFAFA"/>
<path d="M293.278 245.179C293.795 244.969 294.363 244.915 294.91 245.026C295.457 245.136 295.959 245.405 296.354 245.8C296.748 246.194 297.018 246.696 297.128 247.243C297.238 247.789 297.185 248.356 296.974 248.873C296.763 249.389 296.405 249.832 295.943 250.145C295.482 250.459 294.938 250.629 294.38 250.635C293.822 250.642 293.274 250.483 292.806 250.18C292.338 249.876 291.969 249.442 291.747 248.93C291.597 248.584 291.517 248.211 291.513 247.834C291.509 247.456 291.58 247.082 291.723 246.733C291.866 246.383 292.077 246.066 292.344 245.799C292.611 245.532 292.929 245.322 293.278 245.179Z" fill="#E0E0E0"/>
<path d="M294.43 246.471L294.356 246.986C294.35 247.017 294.355 247.049 294.371 247.076C294.387 247.103 294.411 247.124 294.441 247.134L294.537 247.173C294.537 247.173 294.713 247.224 294.656 247.383C294.6 247.542 294.327 248.205 294.327 248.205C294.327 248.205 294.254 248.397 294.112 248.329L293.97 248.273C293.945 248.264 293.918 248.264 293.893 248.271C293.868 248.278 293.845 248.292 293.828 248.312L293.471 248.76C293.452 248.783 293.442 248.812 293.442 248.842C293.442 248.872 293.452 248.901 293.471 248.924L293.607 249.049C293.629 249.076 293.659 249.096 293.692 249.106C293.781 249.132 293.876 249.132 293.964 249.106C294.212 248.962 294.428 248.769 294.598 248.539C294.769 248.309 294.891 248.047 294.957 247.768C295.263 246.879 294.957 246.545 294.906 246.46C294.843 246.393 294.759 246.351 294.668 246.341H294.583C294.564 246.339 294.545 246.341 294.527 246.347C294.51 246.353 294.493 246.362 294.479 246.374C294.465 246.386 294.453 246.401 294.445 246.417C294.436 246.434 294.431 246.452 294.43 246.471Z" fill="white"/>
<path d="M300.764 248.817C300.343 248.45 300.04 247.967 299.893 247.429C299.745 246.891 299.76 246.322 299.935 245.792C300.11 245.262 300.438 244.796 300.878 244.452C301.317 244.108 301.848 243.901 302.405 243.857C302.962 243.813 303.519 243.935 304.007 244.206C304.495 244.477 304.891 244.887 305.147 245.382C305.403 245.878 305.507 246.439 305.446 246.993C305.384 247.547 305.16 248.072 304.802 248.499C304.56 248.788 304.263 249.026 303.927 249.199C303.592 249.372 303.226 249.476 302.85 249.505C302.474 249.535 302.096 249.489 301.737 249.371C301.379 249.253 301.048 249.064 300.764 248.817Z" fill="#E0E0E0"/>
<path d="M301.388 247.213L301.887 247.049C301.917 247.04 301.943 247.021 301.96 246.995C301.978 246.969 301.986 246.938 301.983 246.907V246.805C301.978 246.783 301.978 246.76 301.982 246.738C301.986 246.716 301.994 246.695 302.006 246.676C302.018 246.657 302.034 246.641 302.052 246.628C302.071 246.615 302.092 246.606 302.114 246.601C302.233 246.601 302.998 246.533 302.998 246.533C302.998 246.533 303.203 246.533 303.208 246.675V246.822C303.21 246.848 303.221 246.873 303.238 246.892C303.256 246.912 303.279 246.925 303.305 246.93L303.872 247.054C303.901 247.06 303.931 247.056 303.957 247.041C303.983 247.026 304.003 247.003 304.014 246.975L304.07 246.799C304.079 246.766 304.079 246.731 304.07 246.698C304.053 246.608 304.014 246.525 303.957 246.454C303.718 246.294 303.449 246.185 303.166 246.133C302.883 246.082 302.592 246.089 302.312 246.154C301.382 246.273 301.178 246.686 301.178 246.782C301.15 246.869 301.15 246.962 301.178 247.049L301.229 247.139C301.244 247.168 301.267 247.19 301.296 247.204C301.325 247.217 301.357 247.22 301.388 247.213Z" fill="white"/>
<path d="M292.53 232.929C293.25 232.425 293.465 231.411 292.972 230.323C292.331 228.901 290.704 227.903 289.377 228.09C288.05 228.277 287.477 229.592 288.123 231.008C288.374 231.546 288.742 232.02 289.2 232.397C289.659 232.773 290.196 233.042 290.772 233.184C287.307 234.317 289.337 238.283 289.337 238.283L298.83 237.541C298.83 237.541 296.471 232.94 292.53 232.929Z" fill="#EBEBEB"/>
<path d="M303.73 240.777C303.73 240.93 300.327 241.315 296.102 241.649C291.878 241.983 288.441 242.131 288.43 241.983C288.418 241.836 291.832 241.417 296.057 241.111C300.282 240.805 303.719 240.629 303.73 240.777Z" fill="#EBEBEB"/>
<path d="M149.312 198.632H95.4211V235.703H149.312V198.632Z" fill="#263238"/>
<path d="M149.312 198.632H95.4211V202.027H149.312V198.632Z" fill="#4AA664"/>
<path d="M105.29 219.138L114.11 224.019C114.44 224.18 114.737 224.402 114.984 224.674C115.138 224.89 115.215 225.152 115.203 225.417C115.205 225.601 115.171 225.784 115.101 225.954C115.032 226.125 114.929 226.28 114.798 226.41C114.675 226.542 114.526 226.646 114.361 226.718C114.195 226.789 114.017 226.826 113.837 226.825C113.447 226.779 113.073 226.644 112.744 226.432L101.377 220.11C101.198 220.018 101.048 219.879 100.943 219.708C100.838 219.536 100.783 219.339 100.783 219.138C100.783 218.937 100.838 218.74 100.943 218.569C101.048 218.397 101.198 218.258 101.377 218.166L112.744 211.844C113.076 211.639 113.449 211.509 113.837 211.462C114.202 211.467 114.55 211.616 114.808 211.875C115.065 212.134 115.211 212.483 115.214 212.849C115.234 213.114 115.156 213.379 114.995 213.591C114.752 213.87 114.454 214.097 114.121 214.257L105.29 219.138Z" fill="white"/>
<path d="M127.968 210.042L119.225 228.813C119.093 229.158 118.888 229.471 118.623 229.73C118.389 229.919 118.095 230.02 117.793 230.014C117.614 230.014 117.436 229.978 117.271 229.909C117.106 229.839 116.956 229.738 116.831 229.61C116.705 229.497 116.604 229.359 116.534 229.205C116.464 229.051 116.428 228.883 116.427 228.714C116.459 228.333 116.566 227.962 116.744 227.622L125.487 208.863C125.62 208.521 125.821 208.209 126.077 207.946C126.337 207.745 126.661 207.646 126.988 207.666C127.316 207.686 127.625 207.824 127.858 208.055C127.985 208.167 128.087 208.305 128.156 208.459C128.226 208.614 128.262 208.781 128.263 208.95C128.238 209.33 128.137 209.701 127.968 210.042Z" fill="white"/>
<path d="M138.973 219.138L130.121 214.257C129.782 214.099 129.481 213.872 129.236 213.591C129.083 213.374 129.006 213.113 129.017 212.849C129.014 212.667 129.05 212.486 129.121 212.319C129.193 212.151 129.299 212.001 129.432 211.877C129.555 211.745 129.704 211.641 129.87 211.569C130.035 211.498 130.214 211.461 130.394 211.462C130.782 211.507 131.155 211.637 131.487 211.844L142.853 218.166C143.032 218.258 143.182 218.397 143.287 218.569C143.392 218.74 143.448 218.937 143.448 219.138C143.448 219.339 143.392 219.536 143.287 219.708C143.182 219.879 143.032 220.018 142.853 220.11L131.487 226.432C131.158 226.646 130.784 226.78 130.394 226.825C130.212 226.825 130.032 226.789 129.865 226.717C129.698 226.646 129.547 226.542 129.421 226.41C129.162 226.145 129.017 225.788 129.017 225.417C129.009 225.152 129.086 224.892 129.236 224.674C129.485 224.4 129.786 224.178 130.121 224.019L138.973 219.138Z" fill="white"/>
<path d="M495.203 220.707C495.203 220.707 495.203 220.707 495.122 220.707H494.893L494.001 220.747L490.561 220.896L477.912 221.368C467.229 221.76 452.465 222.28 436.166 222.84L430.558 223.029H430.43V222.901C429.294 208.001 428.267 194.647 427.558 185.047C427.206 180.254 426.929 176.399 426.733 173.746C426.646 172.396 426.571 171.39 426.524 170.695C426.524 170.344 426.483 170.08 426.477 169.898C426.47 169.716 426.477 169.743 426.477 169.695C426.477 169.648 426.477 169.628 426.477 169.628C426.48 169.65 426.48 169.673 426.477 169.695C426.477 169.743 426.477 169.81 426.477 169.898C426.477 169.986 426.517 170.344 426.551 170.688C426.605 171.363 426.693 172.409 426.808 173.739C427.017 176.393 427.328 180.247 427.713 185.027C428.47 194.6 429.511 207.92 430.659 222.881L430.524 222.759L436.133 222.563C452.431 222.01 467.215 221.517 477.878 221.179L490.534 220.788L493.974 220.693H494.866H495.176L495.203 220.707Z" fill="#455A64"/>
<path d="M436.416 219.235H442.613L441.64 202.431H435.565L436.416 219.235Z" fill="#4AA664"/>
<path d="M447.647 219.242H453.836L452.87 195.755H446.795L447.647 219.242Z" fill="#4AA664"/>
<path d="M458.161 218.492H464.357L463.384 187.741H457.316L458.161 218.492Z" fill="#4AA664"/>
<path d="M482.284 217.297H488.473L487.507 175.387H481.432L482.284 217.297Z" fill="#4AA664"/>
<path d="M470.547 217.439H476.736L475.763 181.375H469.695L470.547 217.439Z" fill="#4AA664"/>
<path d="M432.524 198.077C432.362 197.827 443.43 190.455 457.235 181.611C471.04 172.767 482.378 165.8 482.541 166.084C482.703 166.367 471.635 173.706 457.823 182.55C444.011 191.393 432.673 198.327 432.524 198.077Z" fill="#4AA664"/>
<path d="M476.412 166.057C476.358 165.76 480.365 164.76 485.379 163.815L486.649 163.579L485.926 164.652L485.885 164.713C483.02 168.966 480.48 172.281 480.243 172.139C480.007 171.998 482.122 168.392 484.973 164.133L485.014 164.072L485.568 164.909C480.561 165.82 476.466 166.347 476.412 166.057Z" fill="#4AA664"/>
<path d="M435.565 224.913H442.038L442.241 226.06H435.565V224.913Z" fill="#263238"/>
<path d="M447.025 224.44H453.498L453.701 225.588H447.025V224.44Z" fill="#263238"/>
<path d="M458.823 224.103H465.296L465.499 225.25H458.823V224.103Z" fill="#263238"/>
<path d="M469.878 223.826H476.351L476.554 224.98H469.878V223.826Z" fill="#263238"/>
<path d="M483.574 223.421H490.048L490.251 224.575H483.574V223.421Z" fill="#263238"/>
</svg>
