<svg width="567" height="568" viewBox="0 0 567 568" fill="none" xmlns="http://www.w3.org/2000/svg">
<path d="M567 431.74H0V432.002H567V431.74Z" fill="#EBEBEB"/>
<path d="M510.187 448.633H472.629V448.895H510.187V448.633Z" fill="#EBEBEB"/>
<path d="M375.603 451.488H365.749V451.751H375.603V451.488Z" fill="#EBEBEB"/>
<path d="M471.495 438.89H449.733V439.152H471.495V438.89Z" fill="#EBEBEB"/>
<path d="M108.467 440.653H59.4896V440.916H108.467V440.653Z" fill="#EBEBEB"/>
<path d="M125.749 440.653H118.571V440.916H125.749V440.653Z" fill="#EBEBEB"/>
<path d="M255.32 445.084H149.087V445.347H255.32V445.084Z" fill="#EBEBEB"/>
<path d="M268.758 384.914H49.7939C48.0786 384.911 46.4345 384.278 45.2227 383.154C44.0108 382.03 43.3301 380.507 43.3301 378.919V93.9425C43.3451 92.3634 44.0323 90.8536 45.2426 89.741C46.4528 88.6283 48.0884 88.0027 49.7939 88H268.758C270.475 88 272.122 88.6316 273.337 89.7559C274.551 90.8802 275.233 92.405 275.233 93.995V378.919C275.233 380.509 274.551 382.034 273.337 383.158C272.122 384.282 270.475 384.914 268.758 384.914ZM49.7939 88.21C48.1538 88.2128 46.5818 88.8179 45.4231 89.8927C44.2644 90.9674 43.6136 92.4239 43.6136 93.9425V378.919C43.6136 380.437 44.2644 381.894 45.4231 382.969C46.5818 384.043 48.1538 384.649 49.7939 384.651H268.758C270.399 384.649 271.972 384.044 273.133 382.969C274.293 381.895 274.947 380.438 274.95 378.919V93.9425C274.947 92.423 274.293 90.9665 273.133 89.8921C271.972 88.8176 270.399 88.2128 268.758 88.21H49.7939Z" fill="#EBEBEB"/>
<path d="M514.053 384.914H295.078C293.362 384.911 291.716 384.279 290.503 383.155C289.289 382.031 288.606 380.508 288.603 378.919V93.9425C288.621 92.3625 289.311 90.8527 290.523 89.7403C291.735 88.628 293.371 88.0027 295.078 88H514.053C515.757 88.0055 517.39 88.6323 518.598 89.7447C519.805 90.857 520.491 92.3653 520.506 93.9425V378.919C520.506 380.505 519.827 382.027 518.617 383.151C517.408 384.274 515.767 384.908 514.053 384.914ZM295.078 88.21C293.437 88.2128 291.864 88.8176 290.703 89.8921C289.543 90.9665 288.889 92.423 288.886 93.9425V378.919C288.889 380.438 289.543 381.895 290.703 382.969C291.864 384.044 293.437 384.649 295.078 384.651H514.053C515.695 384.649 517.268 384.044 518.428 382.969C519.589 381.895 520.242 380.438 520.245 378.919V93.9425C520.242 92.423 519.589 90.9665 518.428 89.8921C517.268 88.8176 515.695 88.2128 514.053 88.21H295.078Z" fill="#EBEBEB"/>
<path d="M401.357 133.293C401.358 132.615 401.214 131.943 400.933 131.317C400.652 130.691 400.24 130.122 399.72 129.645C399.2 129.167 398.582 128.79 397.904 128.535C397.225 128.28 396.498 128.152 395.766 128.159C395.225 128.159 394.687 128.23 394.167 128.369C394.249 127.847 394.291 127.321 394.292 126.794C394.292 123.919 393.061 121.162 390.87 119.125C388.679 117.088 385.705 115.939 382.6 115.928C381.874 115.928 381.149 115.988 380.434 116.106C379.277 114.345 377.532 112.98 375.463 112.218C373.394 111.455 371.113 111.337 368.965 111.879C366.817 112.422 364.918 113.597 363.554 115.227C362.191 116.857 361.436 118.853 361.406 120.915H361.236C358.782 120.993 356.458 121.951 354.753 123.585C353.048 125.22 352.094 127.404 352.094 129.676C352.094 131.949 353.048 134.132 354.753 135.767C356.458 137.401 358.782 138.359 361.236 138.438H395.959C397.405 138.399 398.778 137.84 399.786 136.88C400.794 135.919 401.357 134.632 401.357 133.293Z" fill="#F0F0F0"/>
<path d="M380.967 140.968V130.962H372.156V140.968H364.978L376.567 150.039L388.157 140.968H380.967Z" fill="#E0E0E0"/>
<path d="M227.571 148.433C227.571 145.541 226.331 142.768 224.124 140.723C221.917 138.677 218.923 137.527 215.8 137.524C214.648 137.526 213.502 137.681 212.398 137.986C212.581 136.878 212.672 135.758 212.67 134.637C212.67 128.511 210.042 122.636 205.363 118.304C200.685 113.972 194.339 111.539 187.722 111.539C186.181 111.539 184.644 111.672 183.13 111.938C180.672 108.197 176.967 105.297 172.573 103.676C168.179 102.056 163.335 101.803 158.772 102.955C154.21 104.107 150.175 106.602 147.278 110.063C144.382 113.525 142.779 117.765 142.714 122.143H142.351C139.673 122.084 137.009 122.522 134.516 123.43C132.023 124.338 129.751 125.699 127.834 127.432C125.918 129.164 124.395 131.235 123.355 133.521C122.315 135.806 121.779 138.262 121.779 140.742C121.779 143.222 122.315 145.678 123.355 147.964C124.395 150.25 125.918 152.32 127.834 154.053C129.751 155.786 132.023 157.146 134.516 158.054C137.009 158.963 139.673 159.4 142.351 159.341H216.118C219.186 159.265 222.101 158.081 224.24 156.043C226.38 154.006 227.575 151.275 227.571 148.433Z" fill="#F0F0F0"/>
<path d="M165.564 149.273V170.533H184.286V149.273H199.539L174.919 130.017L150.312 149.273H165.564Z" fill="#E0E0E0"/>
<path d="M236.972 201.526V172.938H331.525V201.243" stroke="#E6E6E6" stroke-miterlimit="10"/>
<path d="M285.643 145.997V201.453" stroke="#E6E6E6" stroke-miterlimit="10"/>
<path d="M301.735 135.109H269.574C268.829 135.109 268.225 135.669 268.225 136.359V154.071C268.225 154.761 268.829 155.32 269.574 155.32H301.735C302.48 155.32 303.084 154.761 303.084 154.071V136.359C303.084 135.669 302.48 135.109 301.735 135.109Z" fill="#F0F0F0"/>
<path d="M301.395 137.482H269.903C269.64 137.482 269.427 137.68 269.427 137.923V154.071C269.427 154.314 269.64 154.512 269.903 154.512H301.395C301.658 154.512 301.871 154.314 301.871 154.071V137.923C301.871 137.68 301.658 137.482 301.395 137.482Z" fill="#E0E0E0"/>
<path d="M253.052 198.933H220.892C220.147 198.933 219.542 199.493 219.542 200.183V217.895C219.542 218.585 220.147 219.144 220.892 219.144H253.052C253.797 219.144 254.402 218.585 254.402 217.895V200.183C254.402 199.493 253.797 198.933 253.052 198.933Z" fill="#F0F0F0"/>
<path d="M252.712 201.306H221.221C220.958 201.306 220.744 201.503 220.744 201.747V217.895C220.744 218.138 220.958 218.335 221.221 218.335H252.712C252.975 218.335 253.188 218.138 253.188 217.895V201.747C253.188 201.503 252.975 201.306 252.712 201.306Z" fill="#E0E0E0"/>
<path d="M301.735 198.933H269.574C268.829 198.933 268.225 199.493 268.225 200.183V217.895C268.225 218.585 268.829 219.144 269.574 219.144H301.735C302.48 219.144 303.084 218.585 303.084 217.895V200.183C303.084 199.493 302.48 198.933 301.735 198.933Z" fill="#F0F0F0"/>
<path d="M301.395 201.306H269.903C269.64 201.306 269.427 201.503 269.427 201.747V217.895C269.427 218.138 269.64 218.335 269.903 218.335H301.395C301.658 218.335 301.871 218.138 301.871 217.895V201.747C301.871 201.503 301.658 201.306 301.395 201.306Z" fill="#E0E0E0"/>
<path d="M347.684 198.933H315.524C314.779 198.933 314.175 199.493 314.175 200.183V217.895C314.175 218.585 314.779 219.144 315.524 219.144H347.684C348.43 219.144 349.034 218.585 349.034 217.895V200.183C349.034 199.493 348.43 198.933 347.684 198.933Z" fill="#F0F0F0"/>
<path d="M347.344 201.306H315.853C315.59 201.306 315.377 201.503 315.377 201.747V217.895C315.377 218.138 315.59 218.335 315.853 218.335H347.344C347.607 218.335 347.82 218.138 347.82 217.895V201.747C347.82 201.503 347.607 201.306 347.344 201.306Z" fill="#E0E0E0"/>
<path d="M284.993 164.277L276.284 172.339C275.926 172.671 275.926 173.21 276.284 173.542L284.993 181.604C285.351 181.936 285.933 181.936 286.292 181.604L295 173.542C295.358 173.21 295.358 172.671 295 172.339L286.292 164.277C285.933 163.944 285.351 163.944 284.993 164.277Z" fill="#E0E0E0"/>
<path opacity="0.8" d="M101.028 159.026H78.3367C77.7918 159.026 77.3501 159.435 77.3501 159.94V171.793C77.3501 172.298 77.7918 172.707 78.3367 172.707H101.028C101.573 172.707 102.015 172.298 102.015 171.793V159.94C102.015 159.435 101.573 159.026 101.028 159.026Z" fill="#E0E0E0"/>
<path d="M83.7119 188.455H65.738C65.1931 188.455 64.7514 188.864 64.7514 189.369V197.988C64.7514 198.493 65.1931 198.902 65.738 198.902H83.7119C84.2568 198.902 84.6985 198.493 84.6985 197.988V189.369C84.6985 188.864 84.2568 188.455 83.7119 188.455Z" fill="#E0E0E0"/>
<path d="M113.978 188.455H96.0044C95.4596 188.455 95.0179 188.864 95.0179 189.369V197.988C95.0179 198.493 95.4596 198.902 96.0044 198.902H113.978C114.523 198.902 114.965 198.493 114.965 197.988V189.369C114.965 188.864 114.523 188.455 113.978 188.455Z" fill="#E0E0E0"/>
<path d="M95.3694 210.566H86.8757C86.3308 210.566 85.8891 210.975 85.8891 211.48V218.577C85.8891 219.081 86.3308 219.49 86.8757 219.49H95.3694C95.9142 219.49 96.356 219.081 96.356 218.577V211.48C96.356 210.975 95.9142 210.566 95.3694 210.566Z" fill="#E0E0E0"/>
<path d="M108.66 210.566H100.166C99.6213 210.566 99.1796 210.975 99.1796 211.48V218.577C99.1796 219.081 99.6213 219.49 100.166 219.49H108.66C109.205 219.49 109.646 219.081 109.646 218.577V211.48C109.646 210.975 109.205 210.566 108.66 210.566Z" fill="#E0E0E0"/>
<path d="M121.962 210.566H113.468C112.923 210.566 112.481 210.975 112.481 211.48V218.577C112.481 219.081 112.923 219.49 113.468 219.49H121.962C122.507 219.49 122.948 219.081 122.948 218.577V211.48C122.948 210.975 122.507 210.566 121.962 210.566Z" fill="#E0E0E0"/>
<path d="M64.604 210.566H56.1103C55.5654 210.566 55.1237 210.975 55.1237 211.48V218.577C55.1237 219.081 55.5654 219.49 56.1103 219.49H64.604C65.1488 219.49 65.5906 219.081 65.5906 218.577V211.48C65.5906 210.975 65.1488 210.566 64.604 210.566Z" fill="#E0E0E0"/>
<path d="M79.0285 210.566H70.5348C69.9899 210.566 69.5482 210.975 69.5482 211.48V218.577C69.5482 219.081 69.9899 219.49 70.5348 219.49H79.0285C79.5733 219.49 80.015 219.081 80.015 218.577V211.48C80.015 210.975 79.5733 210.566 79.0285 210.566Z" fill="#E0E0E0"/>
<path d="M103.852 188.455H104.986V181.106H90.2437V172.707H89.1097V181.106H74.3677V188.455H75.5017V182.156H103.852V188.455Z" fill="#E0E0E0"/>
<path d="M74.3677 205.254H59.6257V210.503H60.7597V206.304H74.3677V210.503H75.5017V198.954H74.3677V205.254Z" fill="#E0E0E0"/>
<path d="M104.986 206.304V198.954H103.852V206.304H90.2437V210.503H91.3777V207.353H103.852V210.503H104.986V207.353H117.46V210.503H118.594V206.304H104.986Z" fill="#E0E0E0"/>
<path d="M432.054 162.312V169.893L436.25 170.26C436.813 172.745 437.874 175.11 439.38 177.232L436.681 180.245L442.441 185.578L445.696 183.08C447.985 184.478 450.541 185.461 453.226 185.977L453.6 189.841H461.742L462.139 185.956C464.824 185.44 467.379 184.457 469.669 183.059L472.923 185.557L478.684 180.224L475.996 177.242C477.502 175.12 478.563 172.755 479.126 170.271L483.322 169.903V162.365L479.126 161.997C478.565 159.516 477.504 157.154 475.996 155.037L478.695 152.023L472.935 146.69L469.68 149.178C467.388 147.784 464.834 146.802 462.15 146.28L461.753 142.396H453.6L453.203 146.28C450.519 146.802 447.965 147.784 445.673 149.178L442.419 146.69L436.658 152.023L439.357 155.037C437.85 157.154 436.788 159.516 436.227 161.997L432.054 162.312ZM457.694 155.877C459.876 155.877 462.01 156.476 463.825 157.599C465.64 158.722 467.054 160.318 467.889 162.185C468.724 164.052 468.941 166.107 468.515 168.089C468.088 170.071 467.036 171.891 465.492 173.319C463.948 174.748 461.98 175.72 459.839 176.113C457.698 176.506 455.479 176.302 453.463 175.527C451.447 174.752 449.725 173.441 448.514 171.76C447.303 170.079 446.658 168.103 446.66 166.082C446.663 163.376 447.825 160.782 449.892 158.869C451.958 156.955 454.76 155.879 457.682 155.877H457.694Z" fill="#F5F5F5"/>
<path d="M437.304 217.349C439.407 216.939 441.408 216.166 443.201 215.07L445.753 217.034L450.289 212.834L448.179 210.472C449.358 208.81 450.189 206.958 450.629 205.012L453.918 204.718V198.807L450.629 198.524C450.191 196.577 449.36 194.725 448.179 193.064L450.289 190.702L445.753 186.502L443.201 188.455C441.407 187.362 439.407 186.593 437.304 186.187L436.998 183.143H430.614L430.308 186.187C428.205 186.593 426.205 187.362 424.411 188.455L421.848 186.544L417.312 190.744L419.421 193.106C418.241 194.767 417.41 196.619 416.972 198.566L413.683 198.849V204.76L416.972 205.054C417.412 207 418.243 208.852 419.421 210.514L417.312 212.855L421.848 217.055L424.4 215.091C426.193 216.187 428.194 216.96 430.296 217.37L430.603 220.404H436.987L437.304 217.349ZM425.159 201.789C425.157 200.204 425.663 198.654 426.612 197.336C427.561 196.017 428.912 194.988 430.493 194.38C432.074 193.773 433.814 193.612 435.493 193.92C437.172 194.228 438.715 194.99 439.926 196.11C441.137 197.23 441.962 198.658 442.297 200.212C442.632 201.766 442.461 203.377 441.807 204.842C441.152 206.306 440.043 207.558 438.62 208.438C437.197 209.319 435.523 209.789 433.812 209.789C431.519 209.789 429.32 208.947 427.698 207.447C426.075 205.947 425.162 203.912 425.159 201.789Z" fill="#F5F5F5"/>
<path d="M423.061 185.358L425.205 186.996L429.004 183.489L427.223 181.505C428.217 180.11 428.918 178.553 429.287 176.917L432.043 176.675V171.72L429.287 171.478C428.918 169.842 428.217 168.285 427.223 166.89L429.004 164.906L425.25 161.399L423.107 163.037C421.603 162.118 419.925 161.47 418.162 161.126L417.902 158.575H412.538L412.277 161.126C410.51 161.468 408.828 162.116 407.321 163.037L405.178 161.399L401.391 164.906L403.16 166.89C402.169 168.286 401.473 169.843 401.107 171.478L398.34 171.72V176.675L401.107 176.917C401.473 178.552 402.169 180.109 403.16 181.505L401.345 183.542L405.133 187.048L407.276 185.41C408.781 186.332 410.464 186.977 412.232 187.311L412.492 189.873H417.856L418.117 187.311C419.885 186.959 421.564 186.296 423.061 185.358ZM407.911 174.197C407.911 172.868 408.337 171.569 409.134 170.464C409.932 169.359 411.065 168.498 412.391 167.989C413.718 167.481 415.177 167.348 416.585 167.607C417.992 167.866 419.286 168.506 420.301 169.446C421.316 170.386 422.007 171.583 422.287 172.887C422.567 174.19 422.423 175.541 421.874 176.769C421.325 177.997 420.394 179.046 419.201 179.784C418.007 180.523 416.604 180.917 415.169 180.917C413.244 180.917 411.398 180.209 410.037 178.949C408.676 177.689 407.911 175.98 407.911 174.197Z" fill="#F5F5F5"/>
<path d="M498.268 370.457H422.12V416.306H498.268V370.457Z" fill="#F5F5F5"/>
<path d="M495.467 379.055H424.898V414.017H495.467V379.055Z" fill="#E0E0E0"/>
<path d="M482.857 384.284H430.648V385.785H482.857V384.284Z" fill="#F5F5F5"/>
<path d="M455.698 388.882H430.648V390.384H455.698V388.882Z" fill="#F5F5F5"/>
<path d="M462.196 393.492H430.648V394.993H462.196V393.492Z" fill="#F5F5F5"/>
<path d="M441.761 398.101H430.648V399.602H441.761V398.101Z" fill="#F5F5F5"/>
<path d="M437.849 402.71H430.648V404.211H437.849V402.71Z" fill="#F5F5F5"/>
<path d="M108.398 370.197L54.2157 370.424L54.3673 401.365L108.549 401.137L108.398 370.197Z" fill="#EBEBEB"/>
<path d="M75.0028 393.586C74.7626 393.587 74.5283 393.517 74.3337 393.387L64.4566 386.699C64.3136 386.602 64.1972 386.476 64.1164 386.33C64.0357 386.184 63.9929 386.023 63.9916 385.859C63.9899 385.694 64.03 385.531 64.1088 385.383C64.1876 385.236 64.3029 385.107 64.4452 385.008L74.2657 378.236C74.5078 378.071 74.8111 378.001 75.1088 378.042C75.4065 378.084 75.6743 378.233 75.8533 378.457C76.0322 378.681 76.1077 378.962 76.063 379.238C76.0183 379.513 75.8572 379.761 75.6151 379.927L67.0308 385.848L75.6718 391.686C75.8662 391.816 76.011 392 76.0852 392.211C76.1594 392.423 76.1594 392.65 76.085 392.862C76.0106 393.073 75.8658 393.257 75.6713 393.387C75.4768 393.517 75.2428 393.587 75.0028 393.586Z" fill="#FAFAFA"/>
<path d="M87.8396 393.523C87.6617 393.525 87.4858 393.488 87.3262 393.415C87.1666 393.342 87.0279 393.235 86.9211 393.103C86.8323 392.992 86.7681 392.866 86.732 392.732C86.6959 392.598 86.6888 392.459 86.7109 392.322C86.733 392.186 86.784 392.055 86.8609 391.937C86.9379 391.818 87.0392 391.715 87.1592 391.633L95.7436 385.712L87.1025 379.874C86.8604 379.709 86.6993 379.461 86.6547 379.185C86.61 378.909 86.6854 378.629 86.8644 378.404C87.0433 378.18 87.3111 378.031 87.6089 377.99C87.9066 377.948 88.2099 378.018 88.452 378.184L98.3291 384.861C98.4736 384.959 98.591 385.087 98.6718 385.235C98.7526 385.383 98.7945 385.546 98.7941 385.712C98.7941 385.875 98.7531 386.036 98.6743 386.181C98.5956 386.327 98.4813 386.454 98.3405 386.552L88.52 393.324C88.3223 393.456 88.0837 393.526 87.8396 393.523Z" fill="#FAFAFA"/>
<path d="M78.8357 393.576C78.708 393.574 78.5815 393.553 78.4615 393.513C78.1794 393.42 77.9485 393.228 77.8189 392.978C77.6893 392.728 77.6716 392.441 77.7697 392.179L82.8614 378.698C82.9105 378.568 82.9869 378.448 83.0862 378.345C83.1854 378.242 83.3056 378.158 83.4399 378.098C83.5741 378.038 83.7198 378.003 83.8686 377.996C84.0175 377.988 84.1665 378.007 84.3072 378.053C84.4479 378.098 84.5776 378.169 84.6888 378.261C84.8 378.353 84.8906 378.464 84.9554 378.588C85.0201 378.713 85.0578 378.847 85.0663 378.985C85.0747 379.123 85.0538 379.261 85.0046 379.391L79.913 392.872C79.835 393.079 79.6892 393.258 79.4961 393.384C79.3029 393.51 79.072 393.577 78.8357 393.576Z" fill="#FAFAFA"/>
<path d="M283.5 479.154C404.932 479.154 503.371 473.832 503.371 467.269C503.371 460.705 404.932 455.384 283.5 455.384C162.068 455.384 63.6287 460.705 63.6287 467.269C63.6287 473.832 162.068 479.154 283.5 479.154Z" fill="#F5F5F5"/>
<path d="M379.187 467.269H387.522L398.862 409.272H390.527L379.187 467.269Z" fill="#263238"/>
<path opacity="0.2" d="M379.187 467.269H387.522L398.862 409.272H390.527L379.187 467.269Z" fill="white"/>
<path opacity="0.2" d="M379.187 467.269H385.254L396.594 409.272H390.527L379.187 467.269Z" fill="white"/>
<path d="M355.724 426.522H389.053C389.294 426.523 389.534 426.48 389.757 426.395C389.981 426.31 390.184 426.185 390.355 426.027C390.526 425.868 390.661 425.68 390.753 425.473C390.845 425.266 390.891 425.045 390.89 424.821C390.891 424.597 390.845 424.375 390.753 424.168C390.661 423.961 390.526 423.773 390.355 423.615C390.184 423.457 389.981 423.332 389.757 423.247C389.534 423.162 389.294 423.119 389.053 423.12H355.724C355.483 423.119 355.243 423.162 355.02 423.247C354.796 423.332 354.593 423.457 354.422 423.615C354.251 423.773 354.116 423.961 354.024 424.168C353.932 424.375 353.886 424.597 353.887 424.821C353.886 425.045 353.932 425.266 354.024 425.473C354.116 425.68 354.251 425.868 354.422 426.027C354.593 426.185 354.796 426.31 355.02 426.395C355.243 426.48 355.483 426.523 355.724 426.522Z" fill="#263238"/>
<path d="M352.016 445.945H385.356C385.844 445.942 386.311 445.761 386.656 445.44C387 445.119 387.193 444.686 387.193 444.234C387.19 443.783 386.996 443.352 386.652 443.034C386.308 442.716 385.842 442.536 385.356 442.533H352.016C351.53 442.536 351.064 442.716 350.721 443.034C350.377 443.352 350.182 443.783 350.179 444.234C350.179 444.686 350.372 445.119 350.717 445.44C351.061 445.761 351.528 445.942 352.016 445.945Z" fill="#263238"/>
<path d="M345.167 467.269H353.502L364.842 409.272H356.507L345.167 467.269Z" fill="#263238"/>
<path opacity="0.2" d="M345.167 467.269H353.502L364.842 409.272H356.507L345.167 467.269Z" fill="white"/>
<path opacity="0.2" d="M345.167 467.269H351.234L362.574 409.272H356.507L345.167 467.269Z" fill="white"/>
<path d="M422.676 467.269H414.341L403.001 409.272H411.336L422.676 467.269Z" fill="#263238"/>
<path opacity="0.4" d="M422.676 467.269H414.341L403.001 409.272H411.336L422.676 467.269Z" fill="white"/>
<path opacity="0.2" d="M420.408 467.269H414.341L403.001 409.272H409.068L420.408 467.269Z" fill="white"/>
<path d="M408.036 426.522H374.696C374.209 426.522 373.742 426.342 373.397 426.024C373.053 425.705 372.859 425.272 372.859 424.821C372.859 424.37 373.053 423.937 373.397 423.618C373.742 423.299 374.209 423.12 374.696 423.12H408.036C408.523 423.12 408.99 423.299 409.335 423.618C409.679 423.937 409.873 424.37 409.873 424.821C409.873 425.272 409.679 425.705 409.335 426.024C408.99 426.342 408.523 426.522 408.036 426.522Z" fill="#263238"/>
<path d="M411.733 445.945H378.404C378.162 445.945 377.922 445.901 377.699 445.814C377.475 445.728 377.272 445.602 377.101 445.443C376.931 445.284 376.796 445.095 376.704 444.888C376.612 444.68 376.566 444.458 376.567 444.234C376.567 443.783 376.761 443.35 377.105 443.031C377.45 442.712 377.917 442.533 378.404 442.533H411.733C412.22 442.533 412.687 442.712 413.032 443.031C413.376 443.35 413.57 443.783 413.57 444.234C413.571 444.458 413.525 444.68 413.433 444.888C413.342 445.095 413.207 445.284 413.036 445.443C412.865 445.602 412.662 445.728 412.438 445.814C412.215 445.901 411.975 445.945 411.733 445.945Z" fill="#263238"/>
<path opacity="0.2" d="M408.036 426.522H374.696C374.209 426.522 373.742 426.342 373.397 426.024C373.053 425.705 372.859 425.272 372.859 424.821C372.859 424.37 373.053 423.937 373.397 423.618C373.742 423.299 374.209 423.12 374.696 423.12H408.036C408.523 423.12 408.99 423.299 409.335 423.618C409.679 423.937 409.873 424.37 409.873 424.821C409.873 425.272 409.679 425.705 409.335 426.024C408.99 426.342 408.523 426.522 408.036 426.522Z" fill="white"/>
<path opacity="0.2" d="M411.733 445.945H378.404C378.162 445.945 377.922 445.901 377.699 445.814C377.475 445.728 377.272 445.602 377.101 445.443C376.931 445.284 376.796 445.095 376.704 444.888C376.612 444.68 376.566 444.458 376.567 444.234C376.567 443.783 376.761 443.35 377.105 443.031C377.45 442.712 377.917 442.533 378.404 442.533H411.733C412.22 442.533 412.687 442.712 413.032 443.031C413.376 443.35 413.57 443.783 413.57 444.234C413.571 444.458 413.525 444.68 413.433 444.888C413.342 445.095 413.207 445.284 413.036 445.443C412.865 445.602 412.662 445.728 412.438 445.814C412.215 445.901 411.975 445.945 411.733 445.945Z" fill="white"/>
<path d="M388.656 467.269H380.321L368.981 409.272H377.316L388.656 467.269Z" fill="#263238"/>
<path opacity="0.4" d="M388.656 467.269H380.321L368.981 409.272H377.316L388.656 467.269Z" fill="white"/>
<path opacity="0.2" d="M386.388 467.269H380.321L368.981 409.272H375.048L386.388 467.269Z" fill="white"/>
<path d="M414.579 406.5H354.375C353.63 406.5 353.026 407.059 353.026 407.749V410.784C353.026 411.474 353.63 412.033 354.375 412.033H414.579C415.324 412.033 415.929 411.474 415.929 410.784V407.749C415.929 407.059 415.324 406.5 414.579 406.5Z" fill="#263238"/>
<path opacity="0.2" d="M377.259 406.5H354.375C353.63 406.5 353.026 407.059 353.026 407.749V410.784C353.026 411.474 353.63 412.033 354.375 412.033H377.259C378.004 412.033 378.609 411.474 378.609 410.784V407.749C378.609 407.059 378.004 406.5 377.259 406.5Z" fill="white"/>
<path d="M220.393 420.663H144.245V466.513H220.393V420.663Z" fill="#4AA664"/>
<path opacity="0.6" d="M220.393 420.663H144.245V466.513H220.393V420.663Z" fill="white"/>
<path d="M217.615 429.262H147.034V464.224H217.615V429.262Z" fill="#4AA664"/>
<path d="M204.993 434.48H152.784V435.981H204.993V434.48Z" fill="white"/>
<path d="M177.834 439.089H152.784V440.59H177.834V439.089Z" fill="white"/>
<path d="M184.332 443.698H152.784V445.2H184.332V443.698Z" fill="white"/>
<path d="M163.897 448.297H152.784V449.798H163.897V448.297Z" fill="white"/>
<path d="M159.985 452.906H152.784V454.407H159.985V452.906Z" fill="white"/>
<path d="M314.492 467.269H252.508L262.997 390.972H304.003L314.492 467.269Z" fill="#4AA664"/>
<path opacity="0.6" d="M314.492 467.269H252.508L259.686 415.067L263.009 390.972H303.991L308.89 426.522L314.492 467.269Z" fill="white"/>
<path opacity="0.1" d="M308.89 426.522L259.686 415.067L263.009 390.972H303.991L308.89 426.522Z" fill="black"/>
<path d="M429.639 202.839H137.361C136.379 202.839 135.406 203.018 134.499 203.367C133.592 203.715 132.767 204.225 132.073 204.869C131.379 205.513 130.829 206.277 130.454 207.117C130.079 207.958 129.887 208.859 129.888 209.768V392.956C129.888 394.791 130.676 396.551 132.077 397.849C133.479 399.146 135.379 399.875 137.361 399.875H429.639C431.621 399.875 433.521 399.146 434.923 397.849C436.324 396.551 437.112 394.791 437.112 392.956V209.789C437.116 208.878 436.926 207.975 436.553 207.132C436.179 206.289 435.629 205.522 434.935 204.876C434.24 204.231 433.415 203.718 432.506 203.369C431.597 203.019 430.623 202.839 429.639 202.839Z" fill="#4AA664"/>
<path opacity="0.7" d="M429.639 202.839H137.361C136.379 202.839 135.406 203.018 134.499 203.367C133.592 203.715 132.767 204.225 132.073 204.869C131.379 205.513 130.829 206.277 130.454 207.117C130.079 207.958 129.887 208.859 129.888 209.768V392.956C129.888 394.791 130.676 396.551 132.077 397.849C133.479 399.146 135.379 399.875 137.361 399.875H429.639C431.621 399.875 433.521 399.146 434.923 397.849C436.324 396.551 437.112 394.791 437.112 392.956V209.789C437.116 208.878 436.926 207.975 436.553 207.132C436.179 206.289 435.629 205.522 434.935 204.876C434.24 204.231 433.415 203.718 432.506 203.369C431.597 203.019 430.623 202.839 429.639 202.839Z" fill="white"/>
<path d="M427.28 209.621H139.731V386.268H427.28V209.621Z" fill="#4AA664"/>
<path d="M335.551 461.536H231.438C230.787 461.536 230.259 462.025 230.259 462.628V466.082C230.259 466.685 230.787 467.174 231.438 467.174H335.551C336.202 467.174 336.73 466.685 336.73 466.082V462.628C336.73 462.025 336.202 461.536 335.551 461.536Z" fill="#4AA664"/>
<path opacity="0.7" d="M335.551 461.536H231.438C230.787 461.536 230.259 462.025 230.259 462.628V466.082C230.259 466.685 230.787 467.174 231.438 467.174H335.551C336.202 467.174 336.73 466.685 336.73 466.082V462.628C336.73 462.025 336.202 461.536 335.551 461.536Z" fill="white"/>
<path opacity="0.2" d="M427.28 209.789H139.731V236.121H427.28V209.789Z" fill="black"/>
<path opacity="0.4" d="M262.952 236.436H139.731V386.268H262.952V236.436Z" fill="white"/>
<path d="M383.02 274.653V277.277H380.185" stroke="white" stroke-miterlimit="10"/>
<path d="M374.197 277.277H281.323" stroke="white" stroke-miterlimit="10" stroke-dasharray="5.28 5.28"/>
<path d="M278.329 277.277H275.494V274.653" stroke="white" stroke-miterlimit="10"/>
<path d="M275.494 269.896V224.719" stroke="white" stroke-miterlimit="10" stroke-dasharray="4.53 4.53"/>
<path d="M275.494 222.346V219.721H278.329" stroke="white" stroke-miterlimit="10"/>
<path d="M284.316 219.721H377.191" stroke="white" stroke-miterlimit="10" stroke-dasharray="5.28 5.28"/>
<path d="M380.185 219.721H383.02V222.346" stroke="white" stroke-miterlimit="10"/>
<path d="M383.02 227.102V272.28" stroke="white" stroke-miterlimit="10" stroke-dasharray="4.53 4.53"/>
<path d="M384.823 218.052H381.228V221.38H384.823V218.052Z" fill="#4AA664" stroke="white" stroke-miterlimit="10"/>
<path d="M384.823 275.618H381.228V278.947H384.823V275.618Z" fill="#4AA664" stroke="white" stroke-miterlimit="10"/>
<path d="M277.286 218.052H273.691V221.38H277.286V218.052Z" fill="#4AA664" stroke="white" stroke-miterlimit="10"/>
<path d="M277.286 275.618H273.691V278.947H277.286V275.618Z" fill="#4AA664" stroke="white" stroke-miterlimit="10"/>
<path d="M331.06 218.052H327.465V221.38H331.06V218.052Z" fill="#4AA664" stroke="white" stroke-miterlimit="10"/>
<path d="M331.06 275.618H327.465V278.947H331.06V275.618Z" fill="#4AA664" stroke="white" stroke-miterlimit="10"/>
<path d="M384.823 246.83H381.228V250.158H384.823V246.83Z" fill="#4AA664" stroke="white" stroke-miterlimit="10"/>
<path d="M277.286 246.83H273.691V250.158H277.286V246.83Z" fill="#4AA664" stroke="white" stroke-miterlimit="10"/>
<path opacity="0.7" d="M373.256 239.05H346.936C345.752 239.05 344.793 239.939 344.793 241.034V247.554C344.793 248.65 345.752 249.539 346.936 249.539H373.256C374.44 249.539 375.399 248.65 375.399 247.554V241.034C375.399 239.939 374.44 239.05 373.256 239.05Z" fill="white"/>
<path opacity="0.7" d="M327.896 239.05H301.576C300.392 239.05 299.433 239.939 299.433 241.034V247.554C299.433 248.65 300.392 249.539 301.576 249.539H327.896C329.08 249.539 330.039 248.65 330.039 247.554V241.034C330.039 239.939 329.08 239.05 327.896 239.05Z" fill="white"/>
<path opacity="0.7" d="M269.506 366.708H243.186C242.003 366.708 241.043 367.597 241.043 368.693V375.213C241.043 376.309 242.003 377.197 243.186 377.197H269.506C270.69 377.197 271.65 376.309 271.65 375.213V368.693C271.65 367.597 270.69 366.708 269.506 366.708Z" fill="white"/>
<path d="M408.297 219.154H417.868" stroke="white" stroke-width="1.5" stroke-linecap="round" stroke-linejoin="round"/>
<path d="M408.297 223.354H417.868" stroke="white" stroke-width="1.5" stroke-linecap="round" stroke-linejoin="round"/>
<path d="M408.297 227.554H417.868" stroke="white" stroke-width="1.5" stroke-linecap="round" stroke-linejoin="round"/>
<path opacity="0.5" d="M255.672 259.66H159.225V348.954H255.672V259.66Z" fill="white"/>
<path d="M199.595 266.957V343.988" stroke="#4AA664" stroke-miterlimit="10"/>
<path d="M241.19 343.988C230.156 343.988 219.573 339.93 211.77 332.706C203.968 325.482 199.584 315.684 199.584 305.467V305.467C199.584 295.254 203.966 285.458 211.767 278.236C219.568 271.014 230.147 266.957 241.179 266.957V266.957" stroke="#4AA664" stroke-miterlimit="10"/>
<path d="M242.993 265.298H239.399V268.626H242.993V265.298Z" fill="white" stroke="#4AA664" stroke-miterlimit="10"/>
<path d="M242.993 342.319H239.399V345.647H242.993V342.319Z" fill="white" stroke="#4AA664" stroke-miterlimit="10"/>
<path d="M201.398 303.808H197.804V307.137H201.398V303.808Z" fill="white" stroke="#4AA664" stroke-miterlimit="10"/>
<path d="M200.525 266.957C200.525 267.127 200.471 267.293 200.369 267.435C200.266 267.577 200.121 267.687 199.951 267.752C199.781 267.817 199.594 267.834 199.414 267.801C199.234 267.768 199.068 267.686 198.938 267.566C198.808 267.445 198.719 267.292 198.683 267.125C198.647 266.958 198.666 266.785 198.736 266.627C198.807 266.47 198.926 266.335 199.079 266.241C199.232 266.146 199.411 266.096 199.595 266.096C199.841 266.099 200.076 266.19 200.25 266.351C200.423 266.512 200.522 266.729 200.525 266.957Z" fill="white" stroke="#4AA664" stroke-miterlimit="10"/>
<path d="M200.525 343.988C200.525 344.158 200.471 344.324 200.369 344.466C200.268 344.607 200.123 344.717 199.954 344.783C199.785 344.848 199.598 344.866 199.418 344.834C199.238 344.801 199.072 344.72 198.942 344.601C198.811 344.481 198.722 344.329 198.685 344.163C198.648 343.996 198.664 343.824 198.733 343.666C198.802 343.509 198.919 343.374 199.071 343.278C199.222 343.182 199.401 343.13 199.584 343.128C199.707 343.126 199.829 343.147 199.943 343.19C200.057 343.233 200.161 343.296 200.249 343.376C200.336 343.456 200.406 343.551 200.453 343.657C200.501 343.762 200.525 343.875 200.525 343.988Z" fill="white" stroke="#4AA664" stroke-miterlimit="10"/>
<path opacity="0.7" d="M359.399 367.979H330.198C327.96 367.979 325.815 367.156 324.232 365.691C322.65 364.226 321.761 362.239 321.761 360.168C321.761 358.096 322.65 356.109 324.232 354.644C325.815 353.179 327.96 352.356 330.198 352.356H359.399C361.636 352.356 363.782 353.179 365.364 354.644C366.947 356.109 367.836 358.096 367.836 360.168C367.836 362.239 366.947 364.226 365.364 365.691C363.782 367.156 361.636 367.979 359.399 367.979Z" fill="white"/>
<path opacity="0.7" d="M385.05 301.362H294.84C294.35 301.362 293.88 301.182 293.533 300.861C293.186 300.54 292.992 300.105 292.992 299.651C293.001 299.203 293.2 298.777 293.546 298.465C293.892 298.152 294.357 297.979 294.84 297.982H385.038C385.281 297.98 385.521 298.023 385.745 298.108C385.969 298.193 386.173 298.318 386.345 298.476C386.517 298.634 386.653 298.822 386.746 299.029C386.839 299.236 386.887 299.458 386.887 299.682C386.878 300.129 386.681 300.555 386.338 300.868C385.994 301.182 385.532 301.36 385.05 301.362Z" fill="white"/>
<path opacity="0.7" d="M385.05 313.825H294.84C294.598 313.826 294.358 313.783 294.134 313.698C293.909 313.613 293.705 313.488 293.534 313.33C293.362 313.172 293.226 312.984 293.132 312.777C293.039 312.57 292.992 312.348 292.992 312.124C292.992 311.67 293.186 311.235 293.533 310.914C293.88 310.593 294.35 310.412 294.84 310.412H385.038C385.529 310.412 385.999 310.593 386.345 310.914C386.692 311.235 386.887 311.67 386.887 312.124C386.887 312.575 386.693 313.007 386.349 313.326C386.004 313.645 385.537 313.825 385.05 313.825Z" fill="white"/>
<path opacity="0.7" d="M385.05 326.329H328.86C328.372 326.329 327.903 326.15 327.557 325.831C327.211 325.513 327.015 325.08 327.012 324.628C327.012 324.174 327.206 323.739 327.553 323.418C327.9 323.097 328.37 322.917 328.86 322.917H385.038C385.529 322.917 385.999 323.097 386.345 323.418C386.692 323.739 386.887 324.174 386.887 324.628C386.884 325.078 386.689 325.509 386.345 325.828C386.002 326.146 385.536 326.326 385.05 326.329Z" fill="white"/>
<path opacity="0.4" d="M155.188 217.086H148.815V222.987H155.188V217.086Z" fill="black"/>
<path opacity="0.4" d="M165.938 217.086H162.831C161.929 217.086 161.198 217.763 161.198 218.598V221.475C161.198 222.31 161.929 222.987 162.831 222.987H165.938C166.84 222.987 167.571 222.31 167.571 221.475V218.598C167.571 217.763 166.84 217.086 165.938 217.086Z" fill="black"/>
<path opacity="0.4" d="M177.051 217.086H176.507C174.898 217.086 173.593 218.294 173.593 219.784V220.288C173.593 221.779 174.898 222.987 176.507 222.987H177.051C178.661 222.987 179.966 221.779 179.966 220.288V219.784C179.966 218.294 178.661 217.086 177.051 217.086Z" fill="black"/>
<path opacity="0.9" d="M168.342 362.551V360.252L167.072 360.147C166.891 359.4 166.568 358.689 166.12 358.047L166.936 357.133L165.178 355.506L164.192 356.262C163.498 355.846 162.73 355.548 161.924 355.38L161.81 354.204H159.327L159.202 355.38C158.396 355.549 157.629 355.847 156.934 356.262L155.948 355.506L154.19 357.133L155.006 358.047C154.549 358.685 154.225 359.397 154.054 360.147L152.772 360.252V362.551L154.054 362.666C154.226 363.415 154.549 364.128 155.006 364.766L154.19 365.69L155.948 367.307L156.934 366.551C157.624 366.974 158.393 367.273 159.202 367.433L159.327 368.619H161.81L161.924 367.433C162.733 367.274 163.503 366.975 164.192 366.551L165.178 367.307L166.936 365.69L166.12 364.766C166.572 364.126 166.895 363.414 167.072 362.666L168.342 362.551ZM160.529 364.514C159.856 364.514 159.198 364.329 158.639 363.983C158.08 363.637 157.643 363.145 157.386 362.57C157.128 361.994 157.061 361.361 157.192 360.75C157.324 360.139 157.648 359.578 158.123 359.137C158.599 358.697 159.205 358.397 159.865 358.275C160.525 358.154 161.209 358.216 161.831 358.454C162.453 358.693 162.984 359.097 163.358 359.615C163.732 360.132 163.931 360.741 163.931 361.364C163.931 362.2 163.573 363.001 162.935 363.592C162.297 364.182 161.431 364.514 160.529 364.514Z" fill="white"/>
<path opacity="0.6" d="M178.412 369.039V367.275L177.414 367.181C177.279 366.59 177.025 366.027 176.666 365.522L177.301 364.798L175.929 363.527L175.158 364.126C174.608 363.793 173.997 363.558 173.355 363.433L173.264 362.498H171.313L171.223 363.433C170.58 363.558 169.969 363.793 169.42 364.126L168.648 363.527L167.265 364.798L167.911 365.522C167.552 366.027 167.298 366.59 167.163 367.181L166.165 367.275V369.071L167.163 369.165C167.298 369.757 167.552 370.319 167.911 370.824L167.265 371.549L168.648 372.819L169.42 372.22C169.969 372.553 170.58 372.788 171.223 372.913L171.313 373.837H173.264L173.355 372.913C173.997 372.788 174.608 372.553 175.158 372.22L175.929 372.819L177.301 371.549L176.666 370.824C177.025 370.319 177.279 369.757 177.414 369.165L178.412 369.039ZM172.289 370.583C171.766 370.585 171.254 370.443 170.818 370.175C170.382 369.908 170.041 369.527 169.839 369.08C169.638 368.633 169.584 368.141 169.684 367.666C169.785 367.19 170.036 366.753 170.405 366.41C170.774 366.067 171.245 365.833 171.758 365.738C172.27 365.643 172.802 365.69 173.286 365.875C173.769 366.06 174.183 366.374 174.473 366.776C174.764 367.179 174.919 367.652 174.919 368.136C174.921 368.457 174.854 368.775 174.722 369.072C174.591 369.368 174.397 369.638 174.153 369.865C173.908 370.093 173.618 370.273 173.298 370.396C172.978 370.519 172.635 370.583 172.289 370.583Z" fill="white"/>
<path opacity="0.4" d="M168.342 374.152V372.64L167.503 372.567C167.391 372.07 167.179 371.596 166.879 371.171L167.424 370.572L166.29 369.522L165.632 370.016C165.172 369.738 164.661 369.542 164.124 369.438L164.044 368.661H162.389L162.309 369.438C161.772 369.542 161.261 369.738 160.801 370.016L160.143 369.522L159.009 370.572L159.554 371.171C159.254 371.596 159.043 372.07 158.93 372.567L158.08 372.64V374.152L158.93 374.226C159.04 374.727 159.252 375.204 159.554 375.633L159.009 376.231L160.143 377.281L160.801 376.777C161.258 377.062 161.77 377.262 162.309 377.365L162.389 378.142H164.022L164.101 377.365C164.64 377.262 165.153 377.062 165.609 376.777L166.267 377.281L167.401 376.231L166.857 375.633C167.158 375.204 167.37 374.727 167.48 374.226L168.342 374.152ZM163.205 375.444C162.77 375.433 162.349 375.305 161.993 375.073C161.636 374.842 161.362 374.519 161.203 374.144C161.044 373.769 161.009 373.359 161.1 372.966C161.192 372.572 161.407 372.212 161.718 371.931C162.03 371.65 162.424 371.46 162.851 371.385C163.278 371.311 163.72 371.354 164.121 371.51C164.522 371.667 164.864 371.929 165.104 372.265C165.345 372.6 165.473 372.994 165.473 373.396C165.473 373.67 165.414 373.94 165.3 374.192C165.185 374.444 165.017 374.672 164.806 374.863C164.594 375.054 164.344 375.203 164.069 375.303C163.794 375.403 163.5 375.451 163.205 375.444Z" fill="white"/>
<path d="M382.362 219.123L387.17 231.029L395.21 223.575L382.362 219.123Z" fill="#4AA664"/>
<path d="M390.106 224.628L388.31 226.291L392.295 229.981L394.091 228.318L390.106 224.628Z" fill="#4AA664"/>
<path opacity="0.4" d="M395.21 223.575L382.362 219.123L387.17 231.029L390.3 228.131L392.285 229.979L394.076 228.32L392.092 226.472L395.21 223.575Z" fill="white"/>
<path d="M185.364 261.676L197.463 265.875L191.124 260.006C190.89 260.131 190.617 260.181 190.349 260.149C190.081 260.117 189.831 260.004 189.639 259.828C189.404 259.611 189.272 259.316 189.272 259.009C189.272 258.702 189.404 258.407 189.639 258.19C189.873 257.973 190.192 257.851 190.523 257.851C190.855 257.851 191.173 257.973 191.408 258.19C191.598 258.368 191.72 258.599 191.755 258.848C191.79 259.096 191.736 259.348 191.601 259.565L197.94 265.434L193.404 254.232L189.389 255.051L189.242 253.717L188.482 253.014L184.037 257.13L184.797 257.833L186.248 257.97L185.364 261.676Z" fill="#263238"/>
<path opacity="0.2" d="M185.364 261.676L197.463 265.875L191.124 260.006C190.89 260.131 190.617 260.181 190.349 260.149C190.081 260.117 189.831 260.004 189.639 259.828C189.404 259.611 189.272 259.316 189.272 259.009C189.272 258.702 189.404 258.407 189.639 258.19C189.873 257.973 190.192 257.851 190.523 257.851C190.855 257.851 191.173 257.973 191.408 258.19C191.598 258.368 191.72 258.599 191.755 258.848C191.79 259.096 191.736 259.348 191.601 259.565L197.94 265.434L193.404 254.232L189.389 255.051L189.242 253.717L188.482 253.014L184.037 257.13L184.797 257.833L186.248 257.97L185.364 261.676Z" fill="white"/>
<g opacity="0.1">
<path opacity="0.1" d="M181.78 209.621L139.164 357.049V209.621H181.78Z" fill="white"/>
<path opacity="0.1" d="M229.873 209.621L178.809 386.268H143.632L194.685 209.621H229.873Z" fill="white"/>
<path opacity="0.1" d="M281.016 209.621L229.952 386.268H214.042L265.106 209.621H281.016Z" fill="white"/>
<path opacity="0.1" d="M328.111 209.621L277.047 386.268H271.355L322.419 209.621H328.111Z" fill="white"/>
</g>
<path d="M501.115 248.636C505.14 252.93 525.62 289.456 521.663 297.981C517.705 306.507 484.887 296.68 484.887 296.68L486.849 284.637C486.849 284.637 499.595 285.057 500.82 283.934C502.044 282.81 483.572 265.739 483.572 265.739L501.115 248.636Z" fill="#263238"/>
<g opacity="0.2">
<path opacity="0.2" d="M521.64 297.981C521.154 298.968 520.306 299.764 519.247 300.228L518.59 300.501H518.499C518.296 300.58 518.087 300.647 517.875 300.701C516.953 300.975 516.003 301.158 515.04 301.247L514.212 301.32C513.804 301.32 513.396 301.373 512.976 301.383H511.842C500.842 301.383 484.842 296.606 484.842 296.606L486.804 284.564C486.804 284.564 499.55 284.984 500.774 283.86C501.069 283.587 500.196 282.369 498.711 280.711C495.104 276.605 487.881 269.77 484.898 266.978L483.549 265.718L501.115 248.636C505.14 252.888 525.62 289.414 521.64 297.981Z" fill="white"/>
</g>
<path opacity="0.2" d="M519.27 300.197L518.612 300.47H518.521C518.318 300.549 518.11 300.615 517.898 300.669C516.976 300.943 516.026 301.126 515.063 301.215L514.235 301.289C513.827 301.289 513.418 301.341 512.999 301.352H511.865C500.865 301.352 484.864 296.575 484.864 296.575L486.826 284.532C486.826 284.532 501.183 285.656 502.407 284.532C502.634 284.091 501.047 282.6 498.699 280.7C495.093 276.595 487.869 269.76 484.887 266.967L493.188 258.757L499.504 258.127C499.504 258.127 513.486 279.083 519.27 300.197Z" fill="black"/>
<path d="M459.735 247.397C457.467 248.919 456.333 251.082 457.24 252.227L517.161 328.712C518.057 329.857 520.631 329.542 522.899 328.019C525.167 326.497 526.301 324.324 525.394 323.19L465.473 246.693C464.577 245.56 462.014 245.864 459.735 247.397Z" fill="#263238"/>
<path opacity="0.7" d="M465.473 246.693L525.394 323.179C526.289 324.313 525.167 326.476 522.899 328.009C520.631 329.542 518.057 329.836 517.172 328.702L457.251 252.206C457.023 251.807 456.921 251.356 456.959 250.906C456.998 250.456 457.174 250.025 457.467 249.665C457.773 249.159 458.155 248.696 458.601 248.289C458.948 247.957 459.328 247.655 459.735 247.386C462.014 245.875 464.577 245.56 465.473 246.693Z" fill="white"/>
<path opacity="0.3" d="M525.393 323.179C526.289 324.313 525.167 326.476 522.899 328.009C520.631 329.542 518.057 329.836 517.172 328.702C516.673 328.072 517.909 327.116 518.635 325.741L457.467 249.686C457.773 249.18 458.155 248.717 458.601 248.31L518.533 324.807C518.885 324.475 519.264 324.17 519.667 323.893C521.935 322.36 524.498 322.045 525.393 323.179Z" fill="black"/>
<path d="M452.319 245.276C450.402 247.166 449.744 249.476 450.856 250.452L525.359 315.032C526.493 315.998 528.932 315.242 530.848 313.342C532.765 311.441 533.422 309.142 532.311 308.155L457.807 243.575C456.696 242.62 454.235 243.386 452.319 245.276Z" fill="#4AA664"/>
<path opacity="0.7" d="M457.807 243.586L532.311 308.166C533.445 309.121 532.764 311.441 530.848 313.342C528.932 315.242 526.471 315.987 525.359 315.032L450.856 250.452C450.552 250.098 450.362 249.672 450.308 249.223C450.253 248.773 450.337 248.319 450.549 247.911C450.753 247.361 451.035 246.838 451.389 246.358C451.669 245.986 451.98 245.635 452.319 245.308C454.235 243.386 456.696 242.62 457.807 243.586Z" fill="white"/>
<path opacity="0.3" d="M532.311 308.166C533.445 309.121 532.764 311.441 530.848 313.342C528.932 315.242 526.471 315.987 525.359 315.032C524.747 314.497 525.768 313.352 526.199 311.882L450.549 247.932C450.753 247.382 451.035 246.859 451.389 246.379L525.904 310.969C526.178 310.596 526.485 310.245 526.822 309.919C528.739 307.956 531.2 307.2 532.311 308.166Z" fill="black"/>
<path d="M470.224 451.373L464.554 451.457C458.782 426.354 454.7 395.287 452.16 371.853C451.763 368.178 451.4 364.703 451.026 361.459C450.878 359.916 450.731 358.435 450.595 357.007C449.914 349.962 449.461 344.408 449.166 340.923C448.962 338.403 448.86 337.017 448.86 337.017H469.476L469.283 341.857L468.603 357.826L468.535 359.653L468.104 370.205L467.389 388.169C474.432 413.471 470.224 451.373 470.224 451.373Z" fill="#EBB376"/>
<path d="M516.265 450.029L510.674 451.006C499.482 425.104 488.969 391.938 482.131 368.766C481.077 365.176 480.102 361.816 479.228 358.771C479.228 358.614 479.149 358.467 479.104 358.32C477.38 352.272 476.053 347.453 475.225 344.398L474.239 340.692L494.424 337.458L495.558 345.332L497.248 356.881L497.576 359.149L498.71 367.034L501.784 388.179C513.441 412.012 516.265 450.029 516.265 450.029Z" fill="#EBB376"/>
<path opacity="0.2" d="M497.304 356.902L479.228 358.771C479.228 358.614 479.149 358.467 479.104 358.32C477.38 352.272 476.053 347.453 475.225 344.398L495.637 345.332L497.304 356.902Z" fill="black"/>
<path opacity="0.2" d="M469.238 341.857L468.603 357.826L468.535 359.653L451.071 361.448C450.924 359.905 450.776 358.425 450.64 356.997C449.96 349.952 449.506 344.398 449.211 340.912L469.238 341.857Z" fill="black"/>
<path d="M453.453 468.822C454.509 468.028 455.711 467.417 457.002 467.017C457.002 467.017 460.869 463.468 462.74 452.78L467.798 451.551C468.657 451.362 469.559 451.42 470.382 451.718C471.205 452.017 471.91 452.541 472.402 453.221C472.541 453.411 472.648 453.62 472.719 453.84C472.981 454.987 473.163 456.148 473.264 457.316C473.547 461.223 473.573 465.143 473.343 469.053H472.424L472.062 461.704C471.925 459.195 469.85 462.135 469.261 464.854C468.671 467.573 467.412 470.408 461.493 470.544C454.575 470.639 451.706 470.387 453.453 468.822Z" fill="#263238"/>
<path d="M472.583 453.368C472.912 450.869 473.014 446.522 473.014 446.522L461.765 447.677C461.765 447.677 463.126 452.622 462.003 456.339C467.673 454.901 472.583 453.368 472.583 453.368Z" fill="#263238"/>
<path d="M499.221 468.822C500.278 468.032 501.48 467.424 502.77 467.027C502.77 467.027 506.637 463.478 508.497 452.79L513.566 451.562C514.426 451.372 515.327 451.43 516.15 451.729C516.973 452.027 517.678 452.551 518.17 453.231C518.309 453.421 518.417 453.63 518.487 453.851C518.749 454.997 518.931 456.158 519.032 457.326C519.313 461.234 519.336 465.154 519.1 469.064H518.238L517.875 461.715C517.739 459.205 515.664 462.145 515.074 464.864C514.484 467.584 513.226 470.418 507.295 470.555C500.343 470.639 497.474 470.387 499.221 468.822Z" fill="#263238"/>
<path d="M518.34 453.368C518.68 450.869 518.782 446.522 518.782 446.522L507.533 447.677C507.533 447.677 508.894 452.622 507.771 456.339C513.441 454.901 518.34 453.368 518.34 453.368Z" fill="#263238"/>
<path d="M499.255 351.747L477.856 354.278L477.028 354.372L472.629 339.442L471.495 355.443L448.565 354.33C438.359 298.821 455.811 285.708 455.811 285.708L486.917 291.504C501.001 313.678 497.656 339.442 497.656 339.442L499.255 351.747Z" fill="#4AA664"/>
<path d="M469.793 216.551C469.793 218.734 468.75 220.498 467.525 220.498C466.301 220.498 465.189 218.734 465.189 216.551C465.189 214.367 466.233 212.603 467.525 212.603C468.818 212.603 469.793 214.367 469.793 216.551Z" stroke="#263238" stroke-width="0.5" stroke-linecap="round" stroke-linejoin="round"/>
<path d="M485.159 229.737C485.076 229.81 484.985 229.873 484.887 229.926C483.593 230.84 482.117 231.507 480.544 231.89C475.951 232.877 472.81 232.289 470.757 230.367C467.888 227.48 467.174 222.367 467.582 216.194C467.654 213.737 468.143 211.306 469.034 208.991C469.034 208.991 469.034 208.897 469.034 208.876C469.034 208.855 469.102 208.697 469.147 208.613C469.709 207.308 470.616 206.153 471.785 205.256C472.954 204.359 474.348 203.748 475.838 203.479C477.13 203.212 478.449 203.075 479.773 203.07C492.78 202.975 495.116 222.903 485.159 229.737Z" fill="#EBB376"/>
<path opacity="0.2" d="M484.887 229.958C483.583 230.818 482.106 231.429 480.544 231.753C475.951 232.74 472.81 232.016 470.757 230.063C473.506 230.692 476.402 230.471 479.001 229.433C479.962 229.105 480.99 228.982 482.009 229.073C483.028 229.164 484.012 229.466 484.887 229.958Z" fill="black"/>
<path d="M486.202 240.825C487.008 244.247 482.211 245.644 482.211 245.644C474.375 242.494 472.923 238.683 472.923 238.683C479.467 235.533 477.573 226.598 477.573 226.598L478.9 227.207L488.232 228.898C488.232 228.898 485.647 233.496 485.307 234.546C483.538 240.058 486.202 240.825 486.202 240.825Z" fill="#EBB376"/>
<path d="M469.022 208.939C469.022 208.939 468.308 217.338 476.96 221.002C476.96 221.002 480.669 229.769 486.123 229.884C493.573 230.052 500.128 220.257 497.554 210.272C494.186 197.316 472.991 196.266 469.022 208.939Z" fill="#263238"/>
<path d="M472.56 218.577C472.56 217.265 473.694 215.049 475.962 215.354C478.23 215.658 479.523 220.887 473.899 222.052C473.048 222.22 472.56 221.338 472.56 218.577Z" fill="#EBB376"/>
<path d="M484.887 199.973C484.887 199.973 476.201 197.936 471.392 201.18C465.779 204.96 463.647 208.865 470.258 214.934C470.258 214.934 484.853 210.556 489.707 211.48C492.543 212.009 495.328 212.757 498.03 213.716C499.085 204.792 489.741 198.146 484.887 199.973Z" fill="#263238"/>
<path d="M472.56 216.551C472.56 216.551 474.828 226.273 471.268 234.567C471.268 234.567 491.906 241.192 499.085 237.591C506.263 233.99 499.686 221.905 499.379 214.934C499.073 207.962 495.807 197.663 484.887 199.973C473.967 202.282 472.56 216.551 472.56 216.551Z" fill="#263238"/>
<path d="M465.133 215.931H473.853" stroke="#263238" stroke-width="0.5" stroke-linecap="round" stroke-linejoin="round"/>
<path opacity="0.2" d="M477.856 354.278L477.028 354.372L472.629 339.442C472.629 339.442 482.063 324.523 479.115 316.754C479.535 317.3 489.695 331.253 477.856 354.278Z" fill="black"/>
<path d="M460.189 240.069C460.189 240.069 470.565 236.646 486.203 240.825C501.84 245.003 502.43 251.166 502.43 251.166C502.43 251.166 492.519 271.965 490.954 295.514L450.198 294.107C450.198 294.107 445.333 260.867 460.189 240.069Z" fill="#263238"/>
<path opacity="0.2" d="M502.43 251.166C502.43 251.166 492.519 271.965 490.954 295.514L450.198 294.107C449.711 290.274 449.461 286.418 449.45 282.558C449.369 276.909 449.748 271.262 450.584 265.665C451.944 256.951 454.745 247.649 460.188 240.027C460.188 240.027 470.565 236.604 486.202 240.783C501.84 244.961 502.43 251.166 502.43 251.166Z" fill="white"/>
<path opacity="0.2" d="M459.621 267.125C459.621 267.125 457.932 276.7 449.415 282.6C449.335 276.951 449.714 271.304 450.549 265.707L459.621 267.125Z" fill="black"/>
<path d="M414.59 239.407L409.453 232.352C409.453 232.352 408.671 229.286 407.673 228.593C406.675 227.9 396.809 224.005 395.619 224.026C394.428 224.047 394.485 231.144 395.619 232.352C396.753 233.559 403.035 236.142 404.691 236.404C406.346 236.667 405.53 236.404 405.53 236.404L410.066 244.804L414.59 239.407Z" fill="#EBB376"/>
<path d="M460.189 240.069C449.184 244.336 438.566 249.413 428.437 255.25L411.846 234.252C411.846 234.252 407.378 235.533 405.723 242.735C405.723 242.735 414.239 272.773 425.307 275.755C436.375 278.737 459.644 267.072 459.644 267.072C459.644 267.072 466.38 251.471 460.189 240.069Z" fill="#263238"/>
<path opacity="0.2" d="M460.189 240.069C449.184 244.336 438.566 249.413 428.437 255.25L411.846 234.252C411.846 234.252 407.378 235.533 405.723 242.735C405.723 242.735 414.239 272.773 425.307 275.755C436.375 278.737 459.644 267.072 459.644 267.072C459.644 267.072 466.38 251.471 460.189 240.069Z" fill="white"/>
<path d="M470.678 238.746C470.678 238.746 474.295 262.726 485.76 263.691C497.225 264.657 502.362 246.893 500.423 244.793C498.484 242.693 483.708 238.588 470.678 238.746Z" fill="#263238"/>
<path opacity="0.3" d="M470.678 238.746C470.678 238.746 474.295 262.726 485.76 263.691C497.225 264.657 502.362 246.893 500.423 244.793C498.484 242.693 483.708 238.588 470.678 238.746Z" fill="white"/>
<path d="M62.7783 459.321H71.1812L71.873 441.304H63.47L62.7783 459.321Z" fill="#B97964"/>
<path d="M72.3379 458.418H62.1319C61.9638 458.415 61.8 458.467 61.6693 458.565C61.5386 458.663 61.4495 458.8 61.4175 458.953L59.7618 465.872C59.7269 466.02 59.7238 466.172 59.7529 466.321C59.7819 466.47 59.8425 466.611 59.931 466.738C60.0196 466.865 60.1344 466.975 60.2688 467.06C60.4033 467.146 60.5547 467.206 60.7144 467.237H60.9865C64.2865 467.185 66.6565 466.996 70.8297 466.996C73.3925 466.996 81.0357 467.248 84.6191 467.248C88.2025 467.248 88.5994 464.024 87.1593 463.73C80.6841 462.418 75.8193 460.581 73.744 458.89C73.3568 458.574 72.8543 458.405 72.3379 458.418Z" fill="#263238"/>
<path d="M72.9162 459.499C72.8777 459.489 72.8432 459.469 72.817 459.441C72.7907 459.413 72.774 459.379 72.7688 459.342C72.7617 459.307 72.7666 459.271 72.7829 459.239C72.7992 459.207 72.826 459.18 72.8595 459.163C73.1657 458.985 75.876 457.441 76.8059 457.882C76.9109 457.928 76.9992 458.001 77.0597 458.092C77.1202 458.184 77.1502 458.29 77.146 458.397C77.177 458.581 77.1545 458.77 77.0808 458.943C77.007 459.116 76.8847 459.269 76.7265 459.384C76.257 459.688 75.6869 459.829 75.1162 459.783C74.374 459.761 73.6365 459.666 72.9162 459.499ZM73.4946 459.237C74.4751 459.544 75.5452 459.496 76.4883 459.1C76.5865 459.018 76.6616 458.915 76.707 458.799C76.7524 458.684 76.7669 458.56 76.7492 458.439C76.7492 458.292 76.6811 458.218 76.6244 458.218C76.5439 458.18 76.454 458.162 76.3636 458.166C75.3427 458.352 74.3691 458.715 73.4946 459.237Z" fill="#4AA664"/>
<path d="M72.8595 459.531C72.8299 459.512 72.8059 459.487 72.79 459.458C72.7741 459.428 72.7668 459.396 72.7688 459.363C72.7688 459.258 72.9842 457.021 73.9028 456.286C74.0154 456.193 74.1491 456.123 74.2943 456.083C74.4394 456.044 74.5923 456.034 74.742 456.056C74.8927 456.057 75.0386 456.105 75.1559 456.193C75.2732 456.281 75.3551 456.402 75.3883 456.538C75.5584 457.357 73.8801 459.069 73.0069 459.51H72.9162L72.8595 459.531ZM74.209 456.517C73.6205 457.218 73.2764 458.067 73.2224 458.953C74.0842 458.344 75.1502 457.053 75.0481 456.549C75.0481 456.549 75.0481 456.36 74.7533 456.36H74.6626C74.4954 456.358 74.3336 456.414 74.209 456.517Z" fill="#4AA664"/>
<path opacity="0.2" d="M63.47 441.315H71.8729L71.5101 450.607H63.1071L63.47 441.315Z" fill="black"/>
<path d="M106.018 459.898L114.693 460.749L116.314 443.446L107.651 442.596L106.018 459.898Z" fill="#B97964"/>
<path d="M115.6 458.166H105.462C105.295 458.167 105.133 458.221 105.004 458.318C104.874 458.415 104.784 458.55 104.748 458.701L103.092 465.631C103.051 465.776 103.042 465.928 103.065 466.077C103.089 466.225 103.143 466.368 103.227 466.497C103.31 466.626 103.42 466.739 103.551 466.828C103.682 466.917 103.83 466.981 103.988 467.017H104.26C107.56 466.964 109.93 466.775 114.114 466.775C116.666 466.775 124.32 467.017 127.893 467.017C131.465 467.017 131.873 463.793 130.433 463.499C123.958 462.198 119.093 460.35 117.017 458.659C116.628 458.337 116.122 458.161 115.6 458.166Z" fill="#263238"/>
<path d="M116.178 459.247C116.14 459.237 116.105 459.217 116.079 459.189C116.053 459.161 116.036 459.127 116.031 459.09C116.023 459.054 116.028 459.016 116.047 458.983C116.066 458.951 116.096 458.925 116.133 458.911C116.428 458.733 119.138 457.189 120.068 457.641C120.173 457.683 120.262 457.754 120.323 457.844C120.383 457.934 120.413 458.039 120.408 458.145C120.436 458.329 120.413 458.518 120.342 458.692C120.27 458.866 120.153 459.021 120 459.142C119.522 459.437 118.951 459.574 118.378 459.531C117.636 459.509 116.899 459.414 116.178 459.247ZM116.757 458.995C117.739 459.3 118.809 459.247 119.75 458.848C119.849 458.767 119.925 458.663 119.971 458.548C120.016 458.433 120.03 458.308 120.011 458.187C120.011 458.04 119.943 457.977 119.887 457.977C119.812 457.935 119.724 457.917 119.637 457.924C118.626 458.108 117.663 458.471 116.802 458.995H116.757Z" fill="#4AA664"/>
<path d="M116.133 459.289C116.102 459.272 116.076 459.247 116.059 459.217C116.041 459.188 116.031 459.155 116.031 459.121C116.031 459.006 116.246 456.78 117.222 456.045C117.337 455.955 117.471 455.887 117.615 455.846C117.759 455.805 117.911 455.79 118.061 455.804C118.212 455.803 118.359 455.851 118.477 455.939C118.594 456.027 118.676 456.149 118.707 456.287C118.877 457.116 117.199 458.827 116.326 459.258H116.235L116.133 459.289ZM117.471 456.266C116.883 456.962 116.539 457.808 116.485 458.691C117.346 458.092 118.412 456.79 118.31 456.287C118.31 456.287 118.31 456.098 118.015 456.098H117.936C117.765 456.102 117.6 456.161 117.471 456.266Z" fill="#4AA664"/>
<path opacity="0.2" d="M107.651 442.596L116.314 443.446L115.464 452.37L106.8 451.52L107.651 442.596Z" fill="black"/>
<path d="M66.906 283.335H111.506C115.736 304.764 129.004 380.578 119.444 448.171L104.351 446.438C104.351 446.438 105.745 356.766 92.4323 323.599C90.9014 341.343 89.0303 360.22 87.4994 370.268C83.6212 394.993 75.3203 449.011 75.3203 449.011H59.9999C59.9999 449.011 63.1411 397.292 64.5926 372.997C66.1802 346.592 66.906 288.753 66.906 283.335Z" fill="#263238"/>
<path d="M121.213 451.383L102.536 448.811L103.115 444.024L122.54 446.386L121.213 451.383Z" fill="#4AA664"/>
<path d="M77.2141 449.105H59.0928V444.097L77.8945 443.772L77.2141 449.105Z" fill="#4AA664"/>
<path opacity="0.2" d="M92.4778 323.568C94.6662 329.38 96.3313 335.35 97.456 341.416C98.7034 325.668 93.7138 308.869 93.7138 308.869L92.4778 323.568Z" fill="black"/>
<path d="M65.67 290.517L64.6494 295.504C64.6494 295.504 95.8457 299.241 115.248 299.136L114.568 295.714L65.67 290.517Z" fill="#4AA664"/>
<path d="M128.981 247.334C128.981 247.334 139.766 278.831 147.125 280.931C154.485 283.031 173.207 257.004 173.207 257.004C173.207 257.004 190.024 256.857 190.773 255.796C191.521 254.736 186.407 243.764 185.182 243.754C183.958 243.743 169.306 248.846 168.751 249.707C168.195 250.568 151.378 265.455 150.607 265.014C149.835 264.573 143.44 245.854 143.44 245.854L128.981 247.334Z" fill="#B97964"/>
<path d="M175.43 255.303C175.564 255.277 175.696 255.246 175.827 255.208L175.634 255.093C175.572 255.168 175.504 255.238 175.43 255.303Z" fill="#B97964"/>
<path d="M122.858 243.701L124.173 245.938L130.308 256.437L131.589 258.61L148.815 253.066C148.815 253.066 141.648 228.31 139.164 225.769L122.858 243.701Z" fill="#4AA664"/>
<path opacity="0.4" d="M122.858 243.701L124.173 245.938L130.308 256.437L131.589 258.61L148.815 253.066C148.815 253.066 141.648 228.31 139.164 225.769L122.858 243.701Z" fill="white"/>
<path opacity="0.2" d="M124.173 245.938L130.308 256.437C134.107 249.539 133.007 240.09 133.007 240.09L124.173 245.938Z" fill="black"/>
<path d="M139.164 225.779C135.919 222.31 131.945 219.487 127.485 217.484C123.025 215.48 118.171 214.338 113.219 214.125C96.3446 213.39 91.0375 214.944 84.8686 220.047C75.8533 227.501 64.638 291.682 64.638 291.682C81.0915 295.923 98.1836 297.643 115.237 296.774C115.237 296.774 115.441 278.926 121.531 266.946C128.389 253.602 134.28 239.849 139.164 225.779Z" fill="#4AA664"/>
<path opacity="0.4" d="M64.638 291.682C81.0915 295.924 98.1831 297.647 115.237 296.785C115.237 296.785 115.237 294.58 115.566 291.21C115.702 289.614 115.906 287.745 116.19 285.729C116.473 283.713 116.881 281.414 117.324 279.125C117.596 277.897 117.913 276.658 118.254 275.43C119.044 272.513 120.122 269.67 121.474 266.936C122.223 265.466 122.948 264.006 123.651 262.579C124.865 260.08 126.021 257.655 127.053 255.334C129.321 250.452 131.249 245.99 132.859 242.084C133.993 239.281 135.014 236.772 135.842 234.62C136.76 232.215 137.486 230.241 138.019 228.772C138.711 226.829 139.051 225.769 139.051 225.769C138.488 225.116 137.882 224.495 137.237 223.911C130.908 218.135 122.541 214.668 113.672 214.146H113.105C100.246 213.59 94.1107 214.356 89.1891 217.013C87.6021 217.892 86.1164 218.919 84.7552 220.078C83.475 221.363 82.4672 222.859 81.7841 224.488C79.6881 229.001 77.967 233.655 76.6357 238.41L75.8873 240.961C74.7533 244.856 73.6873 249.003 72.6667 253.203C72.3719 254.4 72.0884 255.597 71.8049 256.783C71.3853 258.61 70.9657 260.426 70.5688 262.222C69.5482 266.747 68.6297 271.135 67.8245 275.083C66.6905 280.753 65.772 285.498 65.2277 288.448C64.8535 290.527 64.638 291.682 64.638 291.682ZM114.194 214.724C115.332 214.75 116.467 214.831 117.596 214.965C122.132 215.532 129.106 218.902 128.936 220.498C128.766 222.094 126.112 226.168 119.331 225.181C116.968 224.777 114.726 223.911 112.754 222.64C109.011 220.351 106.29 217.254 106.018 216.246C105.677 215.039 110.077 214.629 114.205 214.745L114.194 214.724Z" fill="white"/>
<path d="M99.656 236.121C99.656 236.121 90.72 256.143 88.883 272.784L113.049 275.639C113.049 275.639 123.89 248.583 126.135 240.121C126.135 240.1 106.834 238.315 99.656 236.121Z" fill="#4AA664"/>
<path opacity="0.4" d="M121.417 240.888L124.774 241.192L122.313 242.956L121.417 240.888Z" fill="white"/>
<path d="M108.263 216.299C110.089 221.128 116.881 223.333 120.442 223.648C121.753 223.839 123.096 223.627 124.264 223.042C125.432 222.458 126.36 221.535 126.906 220.414C126.906 220.414 122.835 218.535 123.243 216.425C123.532 215.134 124.103 213.912 124.921 212.834C125.345 212.218 125.807 211.626 126.305 211.06L119.784 198.114C118.333 203.721 113.876 214.493 108.263 216.299Z" fill="#B97964"/>
<path opacity="0.2" d="M119.524 204.088C116.417 210.388 120.805 214.724 123.243 216.383C123.532 215.092 124.103 213.87 124.922 212.792L119.524 204.088Z" fill="black"/>
<path d="M141.387 187.279C141.387 187.279 143.474 197.946 137.464 202.219C131.453 206.493 130.841 186.565 130.841 186.565L141.387 187.279Z" fill="#B97964"/>
<path opacity="0.4" d="M141.387 187.279C141.387 187.279 143.474 197.946 137.464 202.219C131.453 206.493 130.841 186.565 130.841 186.565L141.387 187.279Z" fill="black"/>
<path d="M119.898 211.196C121.238 212.926 123.154 214.2 125.352 214.824C127.55 215.448 129.909 215.387 132.066 214.65C134.883 213.735 137.216 211.857 138.586 209.401C138.779 209.075 138.949 208.718 139.119 208.351C141.931 201.726 142.521 185.557 134.946 186.156C128.686 186.649 122.563 184.864 119.365 189.873C118.451 191.297 117.915 192.902 117.8 194.555C117.12 202.282 116.326 206.766 119.898 211.196Z" fill="#B97964"/>
<path d="M129.968 198.377C129.832 198.986 130.149 199.542 130.592 199.605C131.034 199.668 131.465 199.196 131.567 198.555C131.669 197.915 131.374 197.39 130.943 197.337C130.512 197.285 130.07 197.747 129.968 198.377Z" fill="#263238"/>
<path d="M137.554 199.374C137.418 199.983 137.747 200.54 138.178 200.603C138.609 200.666 139.051 200.193 139.142 199.553C139.233 198.912 138.96 198.387 138.518 198.324C138.076 198.261 137.645 198.786 137.554 199.374Z" fill="#263238"/>
<path d="M135.093 199.364C135.604 201.367 136.409 203.296 137.486 205.096C136.978 205.341 136.419 205.479 135.847 205.503C135.275 205.527 134.704 205.434 134.175 205.233L135.093 199.364Z" fill="#A24E3F"/>
<path d="M127.972 195.794C128.041 195.813 128.115 195.815 128.185 195.798C128.255 195.781 128.318 195.747 128.369 195.7C128.716 195.368 129.142 195.116 129.612 194.963C130.082 194.81 130.584 194.76 131.079 194.818C131.183 194.837 131.29 194.818 131.379 194.765C131.468 194.712 131.531 194.629 131.555 194.534C131.567 194.487 131.568 194.439 131.559 194.391C131.55 194.344 131.53 194.299 131.502 194.258C131.473 194.218 131.436 194.184 131.392 194.157C131.349 194.131 131.3 194.112 131.249 194.104C130.633 194.02 130.004 194.071 129.413 194.254C128.822 194.436 128.286 194.744 127.847 195.154C127.774 195.224 127.733 195.318 127.733 195.416C127.733 195.514 127.774 195.608 127.847 195.679C127.883 195.722 127.925 195.761 127.972 195.794Z" fill="#263238"/>
<path d="M141.183 197.379C141.256 197.405 141.337 197.405 141.41 197.379C141.46 197.368 141.507 197.346 141.548 197.316C141.589 197.287 141.623 197.249 141.648 197.207C141.672 197.164 141.687 197.118 141.691 197.07C141.695 197.022 141.688 196.973 141.671 196.928C141.491 196.368 141.168 195.856 140.73 195.436C140.292 195.016 139.751 194.699 139.153 194.513C139.103 194.499 139.051 194.494 138.999 194.499C138.947 194.504 138.897 194.519 138.851 194.542C138.805 194.566 138.765 194.598 138.734 194.636C138.702 194.674 138.679 194.718 138.666 194.765C138.638 194.858 138.65 194.958 138.701 195.043C138.752 195.127 138.837 195.19 138.938 195.217C139.407 195.376 139.829 195.635 140.172 195.972C140.514 196.309 140.767 196.716 140.911 197.159C140.933 197.213 140.97 197.262 141.017 197.3C141.065 197.339 141.122 197.366 141.183 197.379Z" fill="#263238"/>
<path d="M128.913 205.506C128.913 205.506 130.308 208.277 133.154 208.172" stroke="#263238" stroke-width="0.5" stroke-linecap="round" stroke-linejoin="round"/>
<path d="M125.296 185.883L125.409 189.306C124.763 189.523 124.229 189.959 123.915 190.526C123.602 191.092 123.532 191.748 123.719 192.361C124.604 195.301 122.415 199.563 119.887 201.117C119.887 201.117 119.887 199.878 118.753 200.067C117.619 200.256 117.267 206.703 119.138 209.947C119.138 209.947 115.135 206.535 113.944 199.637C112.81 193.264 113.026 189.222 113.944 186.166L125.296 185.883Z" fill="#B97964"/>
<path opacity="0.4" d="M125.296 185.883L125.409 189.306C124.763 189.523 124.229 189.959 123.915 190.526C123.602 191.092 123.532 191.748 123.719 192.361C124.604 195.301 122.415 199.563 119.887 201.117C119.887 201.117 119.887 199.878 118.753 200.067C117.619 200.256 117.267 206.703 119.138 209.947C119.138 209.947 115.135 206.535 113.944 199.637C112.81 193.264 113.026 189.222 113.944 186.166L125.296 185.883Z" fill="black"/>
<path d="M113.309 189.988C117.356 190.355 121.44 190.124 125.409 189.306C136.828 187.206 141.693 191.09 141.693 191.09C142.483 190.432 143.106 189.62 143.516 188.712C143.926 187.805 144.113 186.824 144.063 185.841C143.735 182.796 139.165 182.282 139.165 182.282C139.165 182.282 137.792 178.848 134.765 177.809C131.737 176.77 128.698 179.373 128.698 179.373C128.698 179.373 124.921 175.993 120.522 176.959C119.04 177.24 117.708 177.984 116.749 179.065C115.789 180.147 115.259 181.501 115.248 182.901C115.248 182.901 110.089 183.384 110.202 185.841C110.316 188.298 113.309 189.988 113.309 189.988Z" fill="#263238"/>
<path d="M130.852 202.849C132.9 202.849 134.56 201.077 134.56 198.891C134.56 196.705 132.9 194.933 130.852 194.933C128.804 194.933 127.144 196.705 127.144 198.891C127.144 201.077 128.804 202.849 130.852 202.849Z" stroke="#263238" stroke-width="0.5" stroke-linecap="round" stroke-linejoin="round"/>
<path d="M143.882 199.479C143.78 200.136 143.476 200.753 143.006 201.255C142.537 201.756 141.921 202.123 141.233 202.31C140.545 202.497 139.813 202.497 139.125 202.31C138.437 202.124 137.821 201.758 137.351 201.256C136.881 200.754 136.577 200.138 136.474 199.481C136.372 198.824 136.475 198.153 136.773 197.549C137.07 196.945 137.549 196.432 138.152 196.073C138.755 195.713 139.457 195.522 140.174 195.521C141.23 195.596 142.212 196.054 142.906 196.795C143.6 197.536 143.951 198.5 143.882 199.479Z" stroke="#263238" stroke-width="0.5" stroke-linecap="round" stroke-linejoin="round"/>
<path d="M134.549 199.364C134.549 199.364 135.751 198.671 136.466 199.479" stroke="#263238" stroke-width="0.5" stroke-linecap="round" stroke-linejoin="round"/>
<path d="M127.144 198.891L120.646 198.083C119.795 197.981 118.934 198.196 118.254 198.681L117.97 198.891" stroke="#263238" stroke-width="0.5" stroke-linecap="round" stroke-linejoin="round"/>
<path d="M113.241 200.34C113.893 202.187 115.308 203.719 117.176 204.603C119.66 205.747 121.429 203.815 121.179 201.39C120.952 199.227 119.399 195.972 116.643 195.846C116.055 195.828 115.471 195.946 114.945 196.19C114.418 196.433 113.965 196.794 113.628 197.24C113.29 197.686 113.078 198.204 113.01 198.745C112.943 199.286 113.022 199.834 113.241 200.34Z" fill="#B97964"/>
<path opacity="0.2" d="M71.8049 256.815C82.5099 252.699 90.9695 235.701 90.9695 235.701L84.8913 232.299L76.6357 238.441L75.8873 240.993C74.7533 244.888 73.6873 249.035 72.6667 253.234C72.3719 254.431 72.0884 255.628 71.8049 256.815Z" fill="black"/>
<path d="M130.762 258.62L149.223 252.342L149.756 253.791L131.283 259.88L130.762 258.62Z" fill="#4AA664"/>
<path d="M82.9279 301.826L29.414 293.97L24.1803 324.529L77.6943 332.385L82.9279 301.826Z" fill="#4AA664"/>
<path d="M48.3425 305.604L37.4674 310.822L46.0631 318.896" stroke="white" stroke-width="2" stroke-linecap="round" stroke-linejoin="round"/>
<path d="M58.7299 320.754L69.5936 315.536L61.0092 307.462" stroke="white" stroke-width="2" stroke-linecap="round" stroke-linejoin="round"/>
<path d="M49.8506 319.452L57.2216 306.906" stroke="white" stroke-width="2" stroke-linecap="round" stroke-linejoin="round"/>
<path d="M78.4842 222.787C78.4842 222.787 58.3103 241.528 55.566 245.171C52.8217 248.814 47.56 289.204 47.56 289.204C47.56 289.204 46.426 289.561 46.3579 290.433C46.2899 291.304 46.1765 302.643 46.3579 303.168C46.5394 303.693 55.8155 308.995 57.1876 307.735C58.5598 306.475 60.4649 293.635 60.4649 293.635L55.566 289.204C55.566 289.204 61.236 259.46 64.8308 254.641C68.4256 249.822 83.0769 239.512 83.0769 239.512L78.4842 222.787Z" fill="#B97964"/>
<path d="M93.9859 215.238C96.923 221.002 94.689 233.139 89.2685 237.423C83.5332 241.826 77.4702 245.85 71.1245 249.465L61.236 237.465C61.236 237.465 71.7595 227.953 78.1326 222.472C82.4673 218.582 88.0131 216.051 93.9859 215.238Z" fill="#4AA664"/>
<path opacity="0.4" d="M93.9859 215.238C96.923 221.002 94.689 233.139 89.2685 237.423C83.5332 241.826 77.4702 245.85 71.1245 249.465L61.236 237.465C61.236 237.465 71.7595 227.953 78.1326 222.472C82.4673 218.582 88.0131 216.051 93.9859 215.238Z" fill="white"/>
<path d="M61.236 236.698L60.0113 238.242L70.342 250.746L71.8049 249.78L61.236 236.698Z" fill="#4AA664"/>
</svg>
